G04 Layer_Color=65535*
%FSLAX44Y44*%
%MOMM*%
G71*
G01*
G75*
%ADD23C,0.2540*%
%ADD40C,0.2500*%
%ADD41C,0.6000*%
%ADD42C,0.1524*%
%ADD43C,0.2000*%
%ADD44C,0.1270*%
%ADD45R,0.5080X3.6830*%
%ADD46R,3.6830X0.5080*%
D23*
X346127Y725839D02*
G03*
X346127Y725839I-5680J0D01*
G01*
X344463D02*
G03*
X344463Y725839I-4016J0D01*
G01*
X342987D02*
G03*
X342987Y725839I-2540J0D01*
G01*
X341717D02*
G03*
X341717Y725839I-1270J0D01*
G01*
X436941Y639054D02*
G03*
X435671Y640324I0J1270D01*
G01*
X434401D02*
G03*
X434669Y641460I2540J0D01*
G01*
X440751Y640324D02*
G03*
X440751Y640324I-3810J0D01*
G01*
X442021D02*
G03*
X442021Y640324I-5080J0D01*
G01*
X249698Y718464D02*
G03*
X224413Y718578I-12648J-1150D01*
G01*
X268800Y712234D02*
G03*
X268800Y712234I-1270J0D01*
G01*
X347767Y338600D02*
G03*
X347767Y292100I0J-23250D01*
G01*
X414767D02*
G03*
X414767Y338600I0J23250D01*
G01*
X249698Y884834D02*
G03*
X224413Y884948I-12648J-1150D01*
G01*
X268800Y878604D02*
G03*
X268800Y878604I-1270J0D01*
G01*
X342087Y580958D02*
X354587D01*
X342087Y556458D02*
Y580958D01*
Y556458D02*
X354587D01*
Y580958D01*
X267665Y190327D02*
X324815D01*
Y152227D02*
Y190327D01*
X267665Y152227D02*
X324815D01*
X267665D02*
Y190327D01*
Y146048D02*
X324815D01*
Y107948D02*
Y146048D01*
X267665Y107948D02*
X324815D01*
X267665D02*
Y146048D01*
X518475Y587176D02*
Y599676D01*
X493975D02*
X518475D01*
X493975Y587176D02*
Y599676D01*
Y587176D02*
X518475D01*
X229733Y346983D02*
X242233D01*
X229733Y322483D02*
Y346983D01*
Y322483D02*
X242233D01*
Y346983D01*
X385383Y694174D02*
Y751324D01*
X423484D01*
Y694174D02*
Y751324D01*
X385383Y694174D02*
X423484D01*
X292187Y715679D02*
Y828709D01*
X378547D01*
Y715679D02*
Y828709D01*
X292187Y715679D02*
X378547D01*
X318831Y668264D02*
X445831D01*
X318831Y602224D02*
Y668264D01*
Y602224D02*
X445831D01*
Y668264D01*
X494005Y632336D02*
X518505D01*
Y619836D02*
Y632336D01*
X494005Y619836D02*
X518505D01*
X494005D02*
Y632336D01*
X229204Y355411D02*
X241704D01*
Y379911D01*
X229204D02*
X241704D01*
X229204Y355411D02*
Y379911D01*
X368729Y870416D02*
X393229D01*
Y857916D02*
Y870416D01*
X368729Y857916D02*
X393229D01*
X368729D02*
Y870416D01*
X207846Y718578D02*
X224413D01*
X249818Y718584D02*
X266260D01*
X209110Y804944D02*
X266260D01*
X207840Y718584D02*
Y804944D01*
X266260Y718584D02*
Y804944D01*
X284900Y1053442D02*
Y1077942D01*
X272400Y1053442D02*
X284900D01*
X272400D02*
Y1077942D01*
X284900D01*
X309116Y1053827D02*
Y1078327D01*
X296616Y1053827D02*
X309116D01*
X296616D02*
Y1078327D01*
X309116D01*
X296616Y1036657D02*
X309116D01*
X296616Y1012157D02*
Y1036657D01*
Y1012157D02*
X309116D01*
Y1036657D01*
X271930Y1036620D02*
X284430D01*
X271930Y1012120D02*
Y1036620D01*
Y1012120D02*
X284430D01*
Y1036620D01*
X502486Y98263D02*
Y110763D01*
X477985D02*
X502486D01*
X477985Y98263D02*
Y110763D01*
Y98263D02*
X502486D01*
Y121317D02*
Y133817D01*
X477985D02*
X502486D01*
X477985Y121317D02*
Y133817D01*
Y121317D02*
X502486D01*
Y144371D02*
Y156871D01*
X477985D02*
X502486D01*
X477985Y144371D02*
Y156871D01*
Y144371D02*
X502486D01*
X347767Y338600D02*
X414767D01*
X347767Y292100D02*
X414767D01*
X481599Y509311D02*
X494099D01*
X481599Y484811D02*
Y509311D01*
Y484811D02*
X494099D01*
Y509311D01*
X400122Y145232D02*
X403297D01*
X402662Y145867D02*
X404567Y147772D01*
Y148407D01*
X402662D02*
X404567D01*
X400122Y145867D02*
X402662Y148407D01*
X400122Y145867D02*
X402662Y148407D01*
X404567D01*
X402662D02*
X406472D01*
X400122Y145867D02*
X402662Y148407D01*
X400122Y145867D02*
Y148407D01*
Y142057D02*
Y148407D01*
Y142057D02*
X406472Y148407D01*
X450922Y110307D02*
Y119197D01*
X400122Y110307D02*
X450922D01*
X400122D02*
Y148407D01*
X450922D01*
Y114117D02*
Y148407D01*
X207846Y884948D02*
X224413D01*
X249818Y884954D02*
X266260D01*
X209110Y971314D02*
X266260D01*
X207840Y884954D02*
Y971314D01*
X266260Y884954D02*
Y971314D01*
X5576Y16140D02*
Y92339D01*
Y16140D02*
X226556D01*
Y92339D01*
X5576D02*
X226556D01*
X5505Y710004D02*
X138505D01*
Y844004D01*
X5505D02*
X138505D01*
X5505Y710004D02*
Y844004D01*
Y316413D02*
Y480663D01*
X136505D01*
X5505Y316413D02*
X136505D01*
Y480663D01*
X5505Y875104D02*
X138505D01*
Y1009104D01*
X5505D02*
X138505D01*
X5505Y875104D02*
Y1009104D01*
Y512763D02*
Y677013D01*
X136505D01*
X5505Y512763D02*
X136505D01*
Y677013D01*
X5505Y123023D02*
Y287273D01*
X136505D01*
X5505Y123023D02*
X136505D01*
Y287273D01*
X478909Y1009104D02*
X579240D01*
X478909Y673824D02*
Y1009104D01*
Y673824D02*
X579240D01*
Y1009104D01*
Y738594D02*
Y739864D01*
X566539Y727164D02*
X579240Y739864D01*
X566539Y727164D02*
X579240Y714464D01*
X368960Y1038125D02*
X381660Y1025425D01*
X368960Y1038125D02*
Y1049555D01*
Y1079625D01*
X456590Y1050825D02*
Y1079625D01*
Y1038125D02*
Y1050825D01*
X443890Y1025425D02*
X456590Y1038125D01*
X381660Y1025425D02*
X443890D01*
X368960Y1079625D02*
X456590D01*
X199408Y616002D02*
X223908D01*
Y603502D02*
Y616002D01*
X199408Y603502D02*
X223908D01*
X199408D02*
Y616002D01*
X172448Y570274D02*
Y594774D01*
X184948D01*
Y570274D02*
Y594774D01*
X172448Y570274D02*
X184948D01*
X236183Y590289D02*
Y614789D01*
X248683D01*
Y590289D02*
Y614789D01*
X236183Y590289D02*
X248683D01*
X192354Y504943D02*
Y529443D01*
X204854D01*
Y504943D02*
Y529443D01*
X192354Y504943D02*
X204854D01*
X219056Y556513D02*
X243556D01*
Y544013D02*
Y556513D01*
X219056Y544013D02*
X243556D01*
X219056D02*
Y556513D01*
X255771Y530448D02*
Y554948D01*
X268271D01*
Y530448D02*
Y554948D01*
X255771Y530448D02*
X268271D01*
X204363Y301705D02*
Y349965D01*
X181503Y301705D02*
X204363D01*
X181503D02*
Y349965D01*
X204363D01*
X278182Y268036D02*
X273950Y272268D01*
X265486D01*
X261254Y268036D01*
Y251108D01*
X265486Y246876D01*
X273950D01*
X278182Y251108D01*
X303573Y268036D02*
X299342Y272268D01*
X290877D01*
X286646Y268036D01*
Y251108D01*
X290877Y246876D01*
X299342D01*
X303573Y251108D01*
X328965Y268036D02*
X324733Y272268D01*
X316269D01*
X312037Y268036D01*
Y263804D01*
X316269Y259572D01*
X324733D01*
X328965Y255340D01*
Y251108D01*
X324733Y246876D01*
X316269D01*
X312037Y251108D01*
X362821Y263804D02*
X371285Y246876D01*
X379749Y263804D01*
X400909Y246876D02*
Y272268D01*
X388213Y259572D01*
X405141D01*
X413605Y246876D02*
Y251108D01*
X417836D01*
Y246876D01*
X413605D01*
X434764Y268036D02*
X438996Y272268D01*
X447460D01*
X451692Y268036D01*
Y251108D01*
X447460Y246876D01*
X438996D01*
X434764Y251108D01*
Y268036D01*
X261254Y235702D02*
Y210310D01*
X278182D01*
X290877D02*
X299342D01*
X303573Y214542D01*
Y223006D01*
X299342Y227238D01*
X290877D01*
X286646Y223006D01*
Y214542D01*
X290877Y210310D01*
X320501Y201846D02*
X324733D01*
X328965Y206078D01*
Y227238D01*
X316269D01*
X312037Y223006D01*
Y214542D01*
X316269Y210310D01*
X328965D01*
X341661Y227238D02*
X350125D01*
X354357Y223006D01*
Y210310D01*
X341661D01*
X337429Y214542D01*
X341661Y218774D01*
X354357D01*
X362821Y210310D02*
Y227238D01*
X375517D01*
X379749Y223006D01*
Y210310D01*
X413605Y235702D02*
Y210310D01*
Y223006D01*
X430532D01*
Y235702D01*
Y210310D01*
X438996Y227238D02*
Y214542D01*
X443228Y210310D01*
X455924D01*
Y227238D01*
X464388Y210310D02*
Y227238D01*
X477084D01*
X481316Y223006D01*
Y210310D01*
X494012Y231470D02*
Y227238D01*
X489780D01*
X498244D01*
X494012D01*
Y214542D01*
X498244Y210310D01*
X523636D02*
X515172D01*
X510940Y214542D01*
Y223006D01*
X515172Y227238D01*
X523636D01*
X527868Y223006D01*
Y218774D01*
X510940D01*
X536332Y227238D02*
Y210310D01*
Y218774D01*
X540564Y223006D01*
X544795Y227238D01*
X549027D01*
X335486Y179233D02*
Y163999D01*
X343104D01*
X345643Y166538D01*
Y176694D01*
X343104Y179233D01*
X335486D01*
X350721Y163999D02*
X355800D01*
X353260D01*
Y179233D01*
X350721Y176694D01*
X363417Y179233D02*
X373574D01*
Y176694D01*
X363417Y166538D01*
Y163999D01*
X334273Y133742D02*
Y118506D01*
X341891D01*
X344430Y121046D01*
Y131202D01*
X341891Y133742D01*
X334273D01*
X349508Y118506D02*
X354586D01*
X352047D01*
Y133742D01*
X349508Y131202D01*
X372361Y133742D02*
X367282Y131202D01*
X362204Y126124D01*
Y121046D01*
X364743Y118506D01*
X369822D01*
X372361Y121046D01*
Y123585D01*
X369822Y126124D01*
X362204D01*
X320127Y692271D02*
Y679575D01*
X322666Y677036D01*
X327744D01*
X330284Y679575D01*
Y692271D01*
X335362Y689732D02*
X337901Y692271D01*
X342980D01*
X345519Y689732D01*
Y687192D01*
X342980Y684653D01*
X340440D01*
X342980D01*
X345519Y682114D01*
Y679575D01*
X342980Y677036D01*
X337901D01*
X335362Y679575D01*
X293511Y852915D02*
Y840219D01*
X296050Y837680D01*
X301128D01*
X303667Y840219D01*
Y852915D01*
X318902Y837680D02*
X308746D01*
X318902Y847837D01*
Y850376D01*
X316363Y852915D01*
X311285D01*
X308746Y850376D01*
X187580Y370966D02*
X185041Y373505D01*
X179963D01*
X177423Y370966D01*
Y368427D01*
X179963Y365888D01*
X185041D01*
X187580Y363348D01*
Y360809D01*
X185041Y358270D01*
X179963D01*
X177423Y360809D01*
X192659Y373505D02*
Y358270D01*
X197737Y363348D01*
X202815Y358270D01*
Y373505D01*
X207894Y358270D02*
X212972D01*
X210433D01*
Y373505D01*
X207894Y370966D01*
X494947Y562763D02*
Y577998D01*
X502564D01*
X505103Y575459D01*
Y570381D01*
X502564Y567841D01*
X494947D01*
X500025D02*
X505103Y562763D01*
X517799D02*
Y577998D01*
X510182Y570381D01*
X520338D01*
X230356Y388699D02*
Y403935D01*
X237973D01*
X240513Y401395D01*
Y396317D01*
X237973Y393778D01*
X230356D01*
X235434D02*
X240513Y388699D01*
X245591D02*
X250669D01*
X248130D01*
Y403935D01*
X245591Y401395D01*
X495176Y656396D02*
Y641161D01*
X502793D01*
X505333Y643700D01*
Y653857D01*
X502793Y656396D01*
X495176D01*
X520568D02*
X515489Y653857D01*
X510411Y648778D01*
Y643700D01*
X512950Y641161D01*
X518028D01*
X520568Y643700D01*
Y646239D01*
X518028Y648778D01*
X510411D01*
X386664Y775480D02*
Y760245D01*
X394282D01*
X396821Y762785D01*
Y772941D01*
X394282Y775480D01*
X386664D01*
X401899Y760245D02*
X406978D01*
X404439D01*
Y775480D01*
X401899Y772941D01*
X239398Y313302D02*
X236859Y315841D01*
X231781D01*
X229242Y313302D01*
Y303146D01*
X231781Y300606D01*
X236859D01*
X239398Y303146D01*
X244477Y313302D02*
X247016Y315841D01*
X252094D01*
X254633Y313302D01*
Y310763D01*
X252094Y308224D01*
X254633Y305685D01*
Y303146D01*
X252094Y300606D01*
X247016D01*
X244477Y303146D01*
Y305685D01*
X247016Y308224D01*
X244477Y310763D01*
Y313302D01*
X247016Y308224D02*
X252094D01*
X191584Y829069D02*
Y816373D01*
X194123Y813834D01*
X199202D01*
X201741Y816373D01*
Y829069D01*
X216976D02*
X211898Y826530D01*
X206819Y821451D01*
Y816373D01*
X209358Y813834D01*
X214437D01*
X216976Y816373D01*
Y818912D01*
X214437Y821451D01*
X206819D01*
X456025Y326218D02*
X466182Y310983D01*
Y326218D02*
X456025Y310983D01*
X471260D02*
X476339D01*
X473800D01*
Y326218D01*
X471260Y323679D01*
X269141Y509770D02*
Y497074D01*
X271680Y494534D01*
X276759D01*
X279298Y497074D01*
Y509770D01*
X284376Y494534D02*
X289455D01*
X286915D01*
Y509770D01*
X284376Y507230D01*
X514794Y96776D02*
Y112011D01*
X522412D01*
X524951Y109472D01*
Y104393D01*
X522412Y101854D01*
X514794D01*
X519873D02*
X524951Y96776D01*
X530029Y112011D02*
X540186D01*
Y109472D01*
X530029Y99315D01*
Y96776D01*
X514794Y119559D02*
Y134794D01*
X522412D01*
X524951Y132255D01*
Y127177D01*
X522412Y124638D01*
X514794D01*
X519873D02*
X524951Y119559D01*
X540186Y134794D02*
X535108Y132255D01*
X530029Y127177D01*
Y122099D01*
X532569Y119559D01*
X537647D01*
X540186Y122099D01*
Y124638D01*
X537647Y127177D01*
X530029D01*
X514794Y141631D02*
Y156866D01*
X522412D01*
X524951Y154327D01*
Y149249D01*
X522412Y146709D01*
X514794D01*
X519873D02*
X524951Y141631D01*
X540186Y156866D02*
X530029D01*
Y149249D01*
X535108Y151788D01*
X537647D01*
X540186Y149249D01*
Y144170D01*
X537647Y141631D01*
X532569D01*
X530029Y144170D01*
X401303Y172538D02*
Y157303D01*
X408920D01*
X411459Y159842D01*
Y169999D01*
X408920Y172538D01*
X401303D01*
X416538D02*
X426694D01*
Y169999D01*
X416538Y159842D01*
Y157303D01*
X373837Y575055D02*
X371298Y577594D01*
X366219D01*
X363680Y575055D01*
Y564898D01*
X366219Y562359D01*
X371298D01*
X373837Y564898D01*
X389072Y577594D02*
X378915D01*
Y569977D01*
X383994Y572516D01*
X386533D01*
X389072Y569977D01*
Y564898D01*
X386533Y562359D01*
X381454D01*
X378915Y564898D01*
X521233Y508817D02*
X518694Y511357D01*
X513615D01*
X511076Y508817D01*
Y498661D01*
X513615Y496121D01*
X518694D01*
X521233Y498661D01*
X533929Y496121D02*
Y511357D01*
X526311Y503739D01*
X536468D01*
X343998Y866868D02*
X341459Y869407D01*
X336380D01*
X333841Y866868D01*
Y856711D01*
X336380Y854172D01*
X341459D01*
X343998Y856711D01*
X349076D02*
X351615Y854172D01*
X356694D01*
X359233Y856711D01*
Y866868D01*
X356694Y869407D01*
X351615D01*
X349076Y866868D01*
Y864329D01*
X351615Y861789D01*
X359233D01*
X325807Y1031083D02*
Y1015848D01*
X333424D01*
X335963Y1018387D01*
Y1028544D01*
X333424Y1031083D01*
X325807D01*
X348659Y1015848D02*
Y1031083D01*
X341042Y1023465D01*
X351198D01*
X231982Y1033282D02*
Y1018047D01*
X239599D01*
X242139Y1020586D01*
Y1030743D01*
X239599Y1033282D01*
X231982D01*
X257374D02*
X247217D01*
Y1025665D01*
X252295Y1028204D01*
X254834D01*
X257374Y1025665D01*
Y1020586D01*
X254834Y1018047D01*
X249756D01*
X247217Y1020586D01*
X479767Y1068602D02*
Y1073681D01*
Y1071142D01*
X467071D01*
X464532Y1073681D01*
Y1076220D01*
X467071Y1078759D01*
X464532Y1063524D02*
Y1058446D01*
Y1060985D01*
X479767D01*
X477228Y1063524D01*
X479872Y1018319D02*
Y1033554D01*
X487490D01*
X490029Y1031015D01*
Y1025936D01*
X487490Y1023397D01*
X479872D01*
X495107Y1018319D02*
X500186D01*
X497646D01*
Y1033554D01*
X495107Y1031015D01*
X6769Y1018050D02*
Y1033285D01*
X14387D01*
X16926Y1030746D01*
Y1025667D01*
X14387Y1023128D01*
X6769D01*
X32161Y1018050D02*
X22004D01*
X32161Y1028207D01*
Y1030746D01*
X29622Y1033285D01*
X24544D01*
X22004Y1030746D01*
X6769Y852950D02*
Y868185D01*
X14387D01*
X16926Y865646D01*
Y860567D01*
X14387Y858028D01*
X6769D01*
X22004Y865646D02*
X24544Y868185D01*
X29622D01*
X32161Y865646D01*
Y863107D01*
X29622Y860567D01*
X27083D01*
X29622D01*
X32161Y858028D01*
Y855489D01*
X29622Y852950D01*
X24544D01*
X22004Y855489D01*
X6740Y685881D02*
Y701116D01*
X14357D01*
X16896Y698577D01*
Y693498D01*
X14357Y690959D01*
X6740D01*
X29592Y685881D02*
Y701116D01*
X21975Y693498D01*
X32131D01*
X6740Y489531D02*
Y504766D01*
X14357D01*
X16896Y502226D01*
Y497148D01*
X14357Y494609D01*
X6740D01*
X32131Y504766D02*
X21975D01*
Y497148D01*
X27053Y499687D01*
X29592D01*
X32131Y497148D01*
Y492070D01*
X29592Y489531D01*
X24514D01*
X21975Y492070D01*
X6740Y296141D02*
Y311376D01*
X14357D01*
X16896Y308837D01*
Y303758D01*
X14357Y301219D01*
X6740D01*
X32131Y311376D02*
X27053Y308837D01*
X21975Y303758D01*
Y298680D01*
X24514Y296141D01*
X29592D01*
X32131Y298680D01*
Y301219D01*
X29592Y303758D01*
X21975D01*
X6761Y101242D02*
Y116477D01*
X14378D01*
X16917Y113937D01*
Y108859D01*
X14378Y106320D01*
X6761D01*
X21996Y116477D02*
X32152D01*
Y113937D01*
X21996Y103781D01*
Y101242D01*
X322386Y1063982D02*
Y1079217D01*
X330003D01*
X332543Y1076678D01*
Y1071600D01*
X330003Y1069060D01*
X322386D01*
X327464D02*
X332543Y1063982D01*
X347778D02*
X337621D01*
X347778Y1074139D01*
Y1076678D01*
X345238Y1079217D01*
X340160D01*
X337621Y1076678D01*
X238144Y1059249D02*
Y1074484D01*
X245762D01*
X248301Y1071945D01*
Y1066866D01*
X245762Y1064327D01*
X238144D01*
X243222D02*
X248301Y1059249D01*
X253379Y1071945D02*
X255918Y1074484D01*
X260996D01*
X263536Y1071945D01*
Y1069406D01*
X260996Y1066866D01*
X258457D01*
X260996D01*
X263536Y1064327D01*
Y1061788D01*
X260996Y1059249D01*
X255918D01*
X253379Y1061788D01*
X349416Y1000355D02*
Y987660D01*
X351956Y985120D01*
X357034D01*
X359573Y987660D01*
Y1000355D01*
X372269Y985120D02*
Y1000355D01*
X364651Y992738D01*
X374808D01*
X191584Y995439D02*
Y982743D01*
X194123Y980204D01*
X199202D01*
X201741Y982743D01*
Y995439D01*
X216976D02*
X206819D01*
Y987822D01*
X211898Y990361D01*
X214437D01*
X216976Y987822D01*
Y982743D01*
X214437Y980204D01*
X209358D01*
X206819Y982743D01*
X265844Y600541D02*
X263305Y603080D01*
X258227D01*
X255688Y600541D01*
Y590385D01*
X258227Y587845D01*
X263305D01*
X265844Y590385D01*
X270923Y587845D02*
X276001D01*
X273462D01*
Y603080D01*
X270923Y600541D01*
X283619Y587845D02*
X288697D01*
X286158D01*
Y603080D01*
X283619Y600541D01*
X288096Y549610D02*
X285557Y552149D01*
X280478D01*
X277939Y549610D01*
Y539454D01*
X280478Y536914D01*
X285557D01*
X288096Y539454D01*
X293174Y536914D02*
X298252D01*
X295713D01*
Y552149D01*
X293174Y549610D01*
X305870D02*
X308409Y552149D01*
X313487D01*
X316027Y549610D01*
Y547071D01*
X313487Y544532D01*
X310948D01*
X313487D01*
X316027Y541993D01*
Y539454D01*
X313487Y536914D01*
X308409D01*
X305870Y539454D01*
X173684Y659515D02*
Y644280D01*
X181301D01*
X183841Y646819D01*
Y656975D01*
X181301Y659515D01*
X173684D01*
X188919Y644280D02*
X193997D01*
X191458D01*
Y659515D01*
X188919Y656975D01*
X201615D02*
X204154Y659515D01*
X209232D01*
X211772Y656975D01*
Y654436D01*
X209232Y651897D01*
X206693D01*
X209232D01*
X211772Y649358D01*
Y646819D01*
X209232Y644280D01*
X204154D01*
X201615Y646819D01*
X194170Y595282D02*
Y580047D01*
X201787D01*
X204326Y582587D01*
Y592743D01*
X201787Y595282D01*
X194170D01*
X209405Y580047D02*
X214483D01*
X211944D01*
Y595282D01*
X209405Y592743D01*
X232257Y595282D02*
X222101D01*
Y587665D01*
X227179Y590204D01*
X229718D01*
X232257Y587665D01*
Y582587D01*
X229718Y580047D01*
X224640D01*
X222101Y582587D01*
X149012Y544540D02*
Y559775D01*
X156630D01*
X159169Y557236D01*
Y552157D01*
X156630Y549618D01*
X149012D01*
X154090D02*
X159169Y544540D01*
X164247D02*
X169326D01*
X166786D01*
Y559775D01*
X164247Y557236D01*
X187100Y559775D02*
X182021Y557236D01*
X176943Y552157D01*
Y547079D01*
X179482Y544540D01*
X184561D01*
X187100Y547079D01*
Y549618D01*
X184561Y552157D01*
X176943D01*
X200777Y624997D02*
Y640232D01*
X208395D01*
X210934Y637693D01*
Y632615D01*
X208395Y630076D01*
X200777D01*
X205856D02*
X210934Y624997D01*
X216012D02*
X221091D01*
X218552D01*
Y640232D01*
X216012Y637693D01*
X228708Y640232D02*
X238865D01*
Y637693D01*
X228708Y627537D01*
Y624997D01*
X194870Y483655D02*
Y498890D01*
X202487D01*
X205026Y496351D01*
Y491272D01*
X202487Y488733D01*
X194870D01*
X199948D02*
X205026Y483655D01*
X220262D02*
X210105D01*
X220262Y493812D01*
Y496351D01*
X217722Y498890D01*
X212644D01*
X210105Y496351D01*
X225340D02*
X227879Y498890D01*
X232957D01*
X235497Y496351D01*
Y486194D01*
X232957Y483655D01*
X227879D01*
X225340Y486194D01*
Y496351D01*
X215831Y522429D02*
Y537663D01*
X223449D01*
X225988Y535124D01*
Y530046D01*
X223449Y527507D01*
X215831D01*
X220909D02*
X225988Y522429D01*
X241223D02*
X231066D01*
X241223Y532585D01*
Y535124D01*
X238684Y537663D01*
X233605D01*
X231066Y535124D01*
X246301Y522429D02*
X251380D01*
X248840D01*
Y537663D01*
X246301Y535124D01*
D40*
X316929Y358282D02*
G03*
X316929Y358282I-1250J0D01*
G01*
X454016Y963890D02*
G03*
X454016Y963890I-1250J0D01*
G01*
D41*
X334179Y382782D02*
G03*
X334179Y382782I-3000J0D01*
G01*
X448766Y939390D02*
G03*
X448766Y939390I-3000J0D01*
G01*
D42*
X503685Y621476D02*
Y630366D01*
X508765Y621476D02*
Y630366D01*
X504320D02*
X508765Y625921D01*
X504320Y621476D02*
X508765Y625921D01*
X298256Y1026342D02*
X302701Y1021897D01*
X307146Y1026342D01*
X298256Y1021897D02*
X307146D01*
X298256Y1026977D02*
X307146D01*
X273570Y1026305D02*
X278015Y1021860D01*
X282460Y1026305D01*
X273570Y1021860D02*
X282460D01*
X273570Y1026940D02*
X282460D01*
D43*
X321179Y372782D02*
X444179D01*
X321179Y495782D02*
X444179D01*
X321179Y372782D02*
Y495782D01*
X444179Y372782D02*
Y495782D01*
X349766Y949390D02*
X455766D01*
X349766Y909390D02*
X455766D01*
Y949390D01*
X349766Y909390D02*
Y949390D01*
D44*
X171813Y633423D02*
X173083D01*
X184767Y607769D02*
X186037D01*
X184767Y633169D02*
X186037D01*
X171813Y608023D02*
X173083D01*
X186037Y607769D02*
Y633169D01*
X171813Y608023D02*
Y633423D01*
X191523Y574107D02*
X192793D01*
X204477Y548453D02*
X205747D01*
X204477Y573853D02*
X205747D01*
X191523Y548707D02*
X192793D01*
X205747Y548453D02*
Y573853D01*
X191523Y548707D02*
Y574107D01*
D45*
X271475Y170642D02*
D03*
Y126363D02*
D03*
D46*
X405069Y697984D02*
D03*
M02*
