G04 Layer_Color=16711935*
%FSLAX44Y44*%
%MOMM*%
G71*
G01*
G75*
%ADD47R,1.0032X0.7032*%
%ADD50R,0.7032X1.0032*%
%ADD51R,1.4732X0.9652*%
%ADD52R,2.7432X2.8702*%
%ADD58R,1.0032X1.0032*%
%ADD60C,2.2032*%
%ADD61O,1.7272X1.2192*%
%ADD62C,4.0132*%
%ADD63C,2.7432*%
%ADD64C,1.9032*%
%ADD65C,3.7032*%
%ADD66C,1.8542*%
%ADD67O,1.2032X1.8532*%
%ADD68O,1.5032X1.2032*%
%ADD69C,0.8382*%
%ADD70C,1.4732*%
%ADD71R,1.4532X0.8532*%
D47*
X301560Y536501D02*
D03*
Y521501D02*
D03*
X343152Y403996D02*
D03*
Y388996D02*
D03*
X429463Y300219D02*
D03*
Y315219D02*
D03*
X333693Y300420D02*
D03*
Y315420D02*
D03*
X178193Y920425D02*
D03*
Y935425D02*
D03*
Y754158D02*
D03*
Y769158D02*
D03*
X242433Y640252D02*
D03*
Y625252D02*
D03*
X178922Y616106D02*
D03*
Y601106D02*
D03*
X198631Y550779D02*
D03*
Y535779D02*
D03*
X262021Y580505D02*
D03*
Y565505D02*
D03*
D50*
X396977Y439318D02*
D03*
X411977D02*
D03*
X219158Y640166D02*
D03*
X204158D02*
D03*
X300579Y259075D02*
D03*
X285579D02*
D03*
X300579Y199612D02*
D03*
X285579D02*
D03*
X300579Y169880D02*
D03*
X285579D02*
D03*
X300579Y229343D02*
D03*
X285579D02*
D03*
X238806Y580452D02*
D03*
X223806D02*
D03*
D51*
X232294Y1012893D02*
D03*
X428674Y842264D02*
D03*
D52*
X232294Y989398D02*
D03*
X428674Y818769D02*
D03*
D58*
X149350Y897878D02*
D03*
Y919877D02*
D03*
Y957431D02*
D03*
Y935431D02*
D03*
Y791281D02*
D03*
Y769281D02*
D03*
Y731862D02*
D03*
Y753862D02*
D03*
X179028Y662153D02*
D03*
Y640153D02*
D03*
X198573Y602444D02*
D03*
Y580444D02*
D03*
D60*
X353147Y746159D02*
D03*
Y771559D02*
D03*
Y796959D02*
D03*
X344231Y653024D02*
D03*
X369631D02*
D03*
X420431D02*
D03*
X395031D02*
D03*
X356867Y315350D02*
D03*
X405667D02*
D03*
D61*
X197680Y799864D02*
D03*
Y723664D02*
D03*
X276420Y799864D02*
D03*
Y723664D02*
D03*
Y774464D02*
D03*
Y749064D02*
D03*
X197680Y774464D02*
D03*
Y749064D02*
D03*
Y966234D02*
D03*
Y890034D02*
D03*
X276420Y966234D02*
D03*
Y890034D02*
D03*
Y940834D02*
D03*
Y915434D02*
D03*
X197680Y940834D02*
D03*
Y915434D02*
D03*
D62*
X74156Y54240D02*
D03*
X67112Y1051755D02*
D03*
X545047D02*
D03*
X305828Y35371D02*
D03*
X545047D02*
D03*
D63*
X147054Y54240D02*
D03*
X202172D02*
D03*
D64*
X126705Y747004D02*
D03*
Y777004D02*
D03*
Y807004D02*
D03*
X96705D02*
D03*
Y747004D02*
D03*
Y777004D02*
D03*
X93755Y353413D02*
D03*
Y383413D02*
D03*
Y413413D02*
D03*
Y443413D02*
D03*
X123755Y353413D02*
D03*
Y383413D02*
D03*
Y413413D02*
D03*
Y443413D02*
D03*
X126705Y912104D02*
D03*
Y942104D02*
D03*
Y972104D02*
D03*
X96705D02*
D03*
Y912104D02*
D03*
Y942104D02*
D03*
X93755Y549763D02*
D03*
Y579763D02*
D03*
Y609763D02*
D03*
Y639763D02*
D03*
X123755Y549763D02*
D03*
Y579763D02*
D03*
Y609763D02*
D03*
Y639763D02*
D03*
X93755Y160023D02*
D03*
Y190023D02*
D03*
Y220023D02*
D03*
Y250023D02*
D03*
X123755Y160023D02*
D03*
Y190023D02*
D03*
Y220023D02*
D03*
Y250023D02*
D03*
D65*
X53505Y777004D02*
D03*
X50555Y421813D02*
D03*
Y375013D02*
D03*
X53505Y942104D02*
D03*
X50555Y618163D02*
D03*
Y571363D02*
D03*
Y228423D02*
D03*
Y181623D02*
D03*
D66*
X541139Y955764D02*
D03*
X515740D02*
D03*
Y930364D02*
D03*
X541139D02*
D03*
Y879564D02*
D03*
X515740D02*
D03*
Y904964D02*
D03*
X541139D02*
D03*
Y803364D02*
D03*
X515740D02*
D03*
Y777964D02*
D03*
X541139D02*
D03*
Y828764D02*
D03*
X515740D02*
D03*
Y854164D02*
D03*
X541139D02*
D03*
Y727164D02*
D03*
X515740D02*
D03*
Y752564D02*
D03*
X541139D02*
D03*
D67*
X377140Y1065125D02*
D03*
X447140D02*
D03*
D68*
X387140Y1038125D02*
D03*
X437140D02*
D03*
D69*
X446184Y533084D02*
D03*
X351487Y590671D02*
D03*
X335523D02*
D03*
X538210Y290329D02*
D03*
Y304366D02*
D03*
Y318404D02*
D03*
X498211Y290508D02*
D03*
Y304546D02*
D03*
Y318584D02*
D03*
X545574Y562556D02*
D03*
X534686Y552318D02*
D03*
X523798Y542081D02*
D03*
X406614Y941383D02*
D03*
X358721Y1016608D02*
D03*
X393954D02*
D03*
X376357D02*
D03*
X110498Y565079D02*
D03*
X231541Y1057659D02*
D03*
X343032Y374278D02*
D03*
X322753Y529142D02*
D03*
X498755Y611117D02*
D03*
X445415Y916152D02*
D03*
X492862Y516675D02*
D03*
X488792Y525528D02*
D03*
X235707Y466599D02*
D03*
X326389Y483731D02*
D03*
X337892Y477840D02*
D03*
X337679Y491206D02*
D03*
X451655Y524783D02*
D03*
X436360Y932095D02*
D03*
X273598Y580505D02*
D03*
X254707Y640217D02*
D03*
X425065Y939749D02*
D03*
X373487Y918112D02*
D03*
X463384Y790017D02*
D03*
X454664Y818837D02*
D03*
X532077Y568731D02*
D03*
X395897Y336363D02*
D03*
X427446Y439416D02*
D03*
X259238Y374717D02*
D03*
X339281Y890931D02*
D03*
X389513Y878476D02*
D03*
X363772Y442771D02*
D03*
Y424197D02*
D03*
Y405085D02*
D03*
X381000D02*
D03*
Y424197D02*
D03*
Y442771D02*
D03*
X486201Y466473D02*
D03*
X491566Y458597D02*
D03*
X497992Y450101D02*
D03*
X504896Y439486D02*
D03*
D70*
X300325Y577706D02*
D03*
X277687Y291630D02*
D03*
D71*
X205867Y199496D02*
D03*
Y180496D02*
D03*
X192367Y189996D02*
D03*
X206076Y259468D02*
D03*
Y240468D02*
D03*
X192576Y249968D02*
D03*
X256709Y169457D02*
D03*
Y150457D02*
D03*
X243209Y159957D02*
D03*
X258248Y229531D02*
D03*
Y210531D02*
D03*
X244748Y220031D02*
D03*
M02*
