M48
;Layer_Color=9474304
;FILE_FORMAT=4:4
METRIC,LZ
;TYPE=PLATED
T1F00S00C0.3810
T2F00S00C0.5000
T3F00S00C0.5080
T6F00S00C0.6350
T7F00S00C1.0160
T8F00S00C1.0200
T9F00S00C1.1500
T10F00S00C1.8542
T11F00S00C2.9972
T12F00S00C3.0000
T13F00S00C3.1750
%
T01
X00110498Y00565079
X00273598Y00580505
X00335523Y00590671
X00351487
X00322753Y00529142
X00326389Y00483731
X00337892Y0047784
X00337679Y00491206
X00363772Y00442771
X00381
Y00424197
X00363772
Y00405085
X00381
X00343032Y00374278
X00259238Y00374717
X00235707Y00466599
X00427446Y00439416
X00504896Y00439486
X00497992Y00450101
X00491566Y00458597
X00486201Y00466473
X00492862Y00516675
X00488792Y00525528
X00451655Y00524783
X00446184Y00533084
X00523798Y00542081
X00534686Y00552318
X00532077Y00568731
X00498755Y00611117
X00498211Y00318584
Y00304546
Y00290508
X0053821Y00290329
Y00304366
Y00318404
X00395897Y00336363
X00545574Y00562556
X00463384Y00790017
X00454664Y00818837
X00445415Y00916152
X0043636Y00932095
X00425065Y00939749
X00406614Y00941383
X00373487Y00918112
X00389513Y00878476
X00339281Y00890931
X00358721Y01016608
X00376357
X00393954
X00254707Y00640217
X00231541Y01057659
T02
X00356867Y0031535
X00405667
T03
X00277687Y0029163
X00300325Y00577706
T06
X0019768Y00723664
Y00749064
Y00774464
Y00799864
X0027642
Y00774464
Y00749064
Y00723664
Y00890034
Y00915434
Y00940834
Y00966234
X0019768
Y00940834
Y00915434
Y00890034
T07
X00541139Y00727164
Y00752564
Y00777964
Y00803364
Y00828764
Y00854164
Y00879564
Y00904964
Y00930364
Y00955764
X0051574
Y00930364
Y00904964
Y00879564
Y00854164
Y00828764
Y00803364
Y00777964
Y00752564
Y00727164
T08
X00093755Y00160023
X00123755
Y00190023
X00093755
Y00220023
X00123755
Y00250023
X00093755
Y00353413
X00123755
Y00383413
X00093755
Y00413413
X00123755
Y00443413
X00093755
Y00549763
X00123755
Y00579763
X00093755
Y00609763
X00123755
Y00639763
X00093755
X00096705Y00747004
Y00777004
Y00807004
X00126705
Y00777004
Y00747004
Y00912104
Y00942104
Y00972104
X00096705
Y00942104
Y00912104
T09
X00344231Y00653024
X00369631
X00395031
X00420431
X00353147Y00746159
Y00771559
Y00796959
T10
X00147054Y0005424
X00202172
T11
X00074156Y0005424
T12
X00050555Y00181623
Y00228423
Y00375013
Y00421813
Y00571363
Y00618163
X00053505Y00777004
Y00942104
T13
X00545047Y00035371
X00305828
X00067112Y01051755
X00545047
M30
