G04 Layer_Physical_Order=2*
G04 Layer_Color=16711680*
%FSLAX44Y44*%
%MOMM*%
G71*
G01*
G75*
%ADD10R,0.8000X0.5000*%
%ADD13R,0.5000X0.8000*%
%ADD14R,1.2700X0.7620*%
%ADD15R,2.5400X2.6670*%
%ADD21R,0.8000X0.8000*%
%ADD23C,0.2540*%
%ADD24C,0.6350*%
%ADD25C,0.3810*%
%ADD26C,0.7620*%
%ADD27C,0.5080*%
%ADD28C,2.0000*%
%ADD29O,1.5240X1.0160*%
%ADD30C,3.8100*%
%ADD31C,2.5400*%
%ADD32C,1.7000*%
%ADD33C,3.5000*%
%ADD34C,1.6510*%
%ADD35O,1.0000X1.6500*%
%ADD36O,1.3000X1.0000*%
%ADD37C,0.6350*%
%ADD38C,1.2700*%
%ADD39R,1.2500X0.6500*%
G36*
X584995Y3273D02*
X3352D01*
Y1082057D01*
X584995D01*
Y3273D01*
D02*
G37*
%LPC*%
G36*
X402017Y438048D02*
X398247D01*
Y432778D01*
X402017D01*
Y438048D01*
D02*
G37*
G36*
X123755Y453524D02*
X121139Y453179D01*
X118700Y452169D01*
X116606Y450562D01*
X115000Y448468D01*
X113989Y446030D01*
X113645Y443413D01*
X113989Y440796D01*
X115000Y438358D01*
X116606Y436264D01*
X118700Y434657D01*
X121139Y433647D01*
X123755Y433303D01*
X126372Y433647D01*
X128811Y434657D01*
X130905Y436264D01*
X132511Y438358D01*
X133521Y440796D01*
X133866Y443413D01*
X133521Y446030D01*
X132511Y448468D01*
X130905Y450562D01*
X128811Y452169D01*
X126372Y453179D01*
X123755Y453524D01*
D02*
G37*
G36*
X395707Y445858D02*
X391937D01*
Y440588D01*
X395707D01*
Y445858D01*
D02*
G37*
G36*
X92485Y442143D02*
X82787D01*
X83000Y440531D01*
X84112Y437846D01*
X85882Y435539D01*
X88188Y433770D01*
X90873Y432657D01*
X92485Y432445D01*
Y442143D01*
D02*
G37*
G36*
X104723D02*
X95025D01*
Y432445D01*
X96637Y432657D01*
X99323Y433770D01*
X101629Y435539D01*
X103399Y437846D01*
X104511Y440531D01*
X104723Y442143D01*
D02*
G37*
G36*
X395707Y438048D02*
X391937D01*
Y432778D01*
X395707D01*
Y438048D01*
D02*
G37*
G36*
X95025Y454381D02*
Y444683D01*
X104723D01*
X104511Y446295D01*
X103399Y448981D01*
X101629Y451287D01*
X99323Y453057D01*
X96637Y454169D01*
X95025Y454381D01*
D02*
G37*
G36*
X322753Y533933D02*
X320920Y533569D01*
X319366Y532530D01*
X318327Y530976D01*
X317962Y529142D01*
X318089Y528507D01*
X313932Y524350D01*
X307084D01*
Y525525D01*
X296036D01*
Y517477D01*
X307084D01*
Y518652D01*
X315112D01*
X315112Y518652D01*
X316202Y518869D01*
X317127Y519487D01*
X322118Y524478D01*
X322753Y524351D01*
X324587Y524716D01*
X326141Y525755D01*
X327180Y527309D01*
X327545Y529142D01*
X327180Y530976D01*
X326141Y532530D01*
X324587Y533569D01*
X322753Y533933D01*
D02*
G37*
G36*
X300290Y535231D02*
X295020D01*
Y531461D01*
X300290D01*
Y535231D01*
D02*
G37*
G36*
X402017Y445858D02*
X398247D01*
Y440588D01*
X402017D01*
Y445858D01*
D02*
G37*
G36*
X486201Y471264D02*
X484367Y470900D01*
X482813Y469861D01*
X481775Y468307D01*
X481410Y466473D01*
X481775Y464640D01*
X482813Y463086D01*
X484367Y462047D01*
X486201Y461682D01*
X486486Y461739D01*
X487249Y460596D01*
X487139Y460431D01*
X486774Y458597D01*
X487139Y456764D01*
X488178Y455210D01*
X489732Y454171D01*
X491566Y453806D01*
X493399Y454171D01*
X493850Y454473D01*
X494604Y453489D01*
X493565Y451935D01*
X493201Y450101D01*
X493565Y448268D01*
X494604Y446713D01*
X496158Y445675D01*
X497992Y445310D01*
X499825Y445675D01*
X501380Y446713D01*
X501740Y447253D01*
X504015D01*
X505895Y445373D01*
X505269Y444202D01*
X504896Y444277D01*
X503063Y443912D01*
X501509Y442873D01*
X500470Y441319D01*
X500105Y439486D01*
X500470Y437652D01*
X501509Y436098D01*
X503063Y435059D01*
X504896Y434695D01*
X506730Y435059D01*
X508284Y436098D01*
X509571Y435738D01*
X511684Y433625D01*
Y276103D01*
X447368Y211787D01*
X336896D01*
X297322Y251362D01*
X297808Y252535D01*
X299310D01*
Y257805D01*
X295539D01*
Y254803D01*
X294366Y254317D01*
X289604Y259080D01*
Y264599D01*
X281556D01*
Y262316D01*
X213850D01*
Y264242D01*
X198302D01*
Y254742D01*
X192885D01*
X192520Y254814D01*
X132621D01*
X132511Y255079D01*
X130905Y257172D01*
X128811Y258779D01*
X126372Y259789D01*
X123755Y260134D01*
X121139Y259789D01*
X118700Y258779D01*
X116606Y257172D01*
X115000Y255079D01*
X113989Y252640D01*
X113645Y250023D01*
X113989Y247407D01*
X115000Y244968D01*
X116606Y242874D01*
X118700Y241267D01*
X121139Y240257D01*
X123755Y239913D01*
X126372Y240257D01*
X128811Y241267D01*
X130905Y242874D01*
X132511Y244968D01*
X132621Y245232D01*
X184802D01*
Y245194D01*
X197286D01*
Y241738D01*
X204806D01*
Y246258D01*
X200350D01*
Y254694D01*
X213850D01*
Y256619D01*
X281556D01*
Y253551D01*
X287075D01*
X303569Y237057D01*
X303083Y235883D01*
X301849D01*
Y230613D01*
X305620D01*
Y233347D01*
X306793Y233833D01*
X331729Y208897D01*
X331243Y207723D01*
X311228D01*
X297322Y221630D01*
X297808Y222803D01*
X299310D01*
Y228073D01*
X295539D01*
Y225071D01*
X294366Y224585D01*
X289604Y229348D01*
Y234867D01*
X281556D01*
Y232380D01*
X266022D01*
Y234305D01*
X250474D01*
Y224805D01*
X246529D01*
X245924Y225209D01*
X244091Y225574D01*
X132131D01*
X130905Y227172D01*
X128811Y228779D01*
X126372Y229789D01*
X123755Y230134D01*
X121139Y229789D01*
X118700Y228779D01*
X116606Y227172D01*
X115000Y225079D01*
X113989Y222640D01*
X113645Y220023D01*
X113989Y217406D01*
X115000Y214968D01*
X116606Y212874D01*
X118700Y211267D01*
X121139Y210257D01*
X123755Y209913D01*
X126372Y210257D01*
X128811Y211267D01*
X130905Y212874D01*
X132511Y214968D01*
X132935Y215992D01*
X236974D01*
Y215257D01*
X249458D01*
Y211801D01*
X256978D01*
Y216321D01*
X252522D01*
Y224757D01*
X266022D01*
Y226683D01*
X281556D01*
Y223819D01*
X287075D01*
X303569Y207325D01*
X303083Y206152D01*
X301849D01*
Y199612D01*
X300579D01*
Y198342D01*
X295539D01*
Y195340D01*
X294366Y194854D01*
X289604Y199617D01*
Y205136D01*
X281556D01*
Y202345D01*
X213641D01*
Y204270D01*
X198093D01*
Y194770D01*
X192562D01*
X192340Y194814D01*
X132621D01*
X132511Y195079D01*
X130905Y197172D01*
X128811Y198779D01*
X126372Y199789D01*
X123755Y200134D01*
X121139Y199789D01*
X118700Y198779D01*
X116606Y197172D01*
X115000Y195079D01*
X113989Y192640D01*
X113645Y190023D01*
X113989Y187407D01*
X115000Y184968D01*
X116606Y182874D01*
X118700Y181267D01*
X121139Y180257D01*
X123755Y179913D01*
X126372Y180257D01*
X128811Y181267D01*
X130905Y182874D01*
X132511Y184968D01*
X132621Y185232D01*
X184593D01*
Y185222D01*
X197077D01*
Y181766D01*
X204597D01*
Y186286D01*
X200141D01*
Y194722D01*
X213641D01*
Y196647D01*
X281556D01*
Y194088D01*
X287075D01*
X294765Y186398D01*
X294765Y186398D01*
X295689Y185780D01*
X296779Y185563D01*
X296779Y185563D01*
X310287D01*
X310287Y185563D01*
X310977Y185700D01*
X311602Y184530D01*
X309259Y182186D01*
X295037D01*
X293947Y181969D01*
X293022Y181352D01*
X293022Y181352D01*
X287075Y175404D01*
X281556D01*
Y172306D01*
X264483D01*
Y174231D01*
X248935D01*
Y164731D01*
X243562D01*
X243143Y164814D01*
X132621D01*
X132511Y165079D01*
X130905Y167172D01*
X128811Y168779D01*
X126372Y169789D01*
X123755Y170134D01*
X121139Y169789D01*
X118700Y168779D01*
X116606Y167172D01*
X115000Y165079D01*
X113989Y162640D01*
X113645Y160023D01*
X113989Y157406D01*
X115000Y154968D01*
X116606Y152874D01*
X118700Y151267D01*
X121139Y150257D01*
X123755Y149913D01*
X126372Y150257D01*
X128811Y151267D01*
X130905Y152874D01*
X132511Y154968D01*
X132621Y155232D01*
X235435D01*
Y155183D01*
X247919D01*
Y151727D01*
X255439D01*
Y156247D01*
X250983D01*
Y164683D01*
X264483D01*
Y166608D01*
X281556D01*
Y164356D01*
X289604D01*
Y169875D01*
X294366Y174638D01*
X295539Y174152D01*
Y171150D01*
X305620D01*
Y176420D01*
X306861Y176489D01*
X310439D01*
X310439Y176489D01*
X311529Y176705D01*
X312453Y177323D01*
X329028Y193898D01*
X454363D01*
X454363Y193898D01*
X455453Y194115D01*
X456377Y194732D01*
X528739Y267094D01*
X528739Y267094D01*
X529356Y268018D01*
X529573Y269108D01*
X529573Y269108D01*
Y440067D01*
X529573Y440067D01*
X529356Y441157D01*
X528739Y442081D01*
X528739Y442081D01*
X502332Y468488D01*
X501408Y469105D01*
X500318Y469322D01*
X500318Y469322D01*
X489949D01*
X489589Y469861D01*
X488034Y470900D01*
X486201Y471264D01*
D02*
G37*
G36*
X92485Y454381D02*
X90873Y454169D01*
X88188Y453057D01*
X85882Y451287D01*
X84112Y448981D01*
X83000Y446295D01*
X82787Y444683D01*
X92485D01*
Y454381D01*
D02*
G37*
G36*
X95025Y424381D02*
Y414683D01*
X104724D01*
X104511Y416295D01*
X103399Y418981D01*
X101629Y421287D01*
X99323Y423057D01*
X96637Y424169D01*
X95025Y424381D01*
D02*
G37*
G36*
X341881Y402725D02*
X336612D01*
Y398955D01*
X341881D01*
Y402725D01*
D02*
G37*
G36*
X349692D02*
X344422D01*
Y398955D01*
X349692D01*
Y402725D01*
D02*
G37*
G36*
X92485Y412143D02*
X82787D01*
X83000Y410531D01*
X84112Y407845D01*
X85882Y405539D01*
X88188Y403770D01*
X90873Y402657D01*
X92485Y402445D01*
Y412143D01*
D02*
G37*
G36*
X123755Y393524D02*
X121139Y393179D01*
X118700Y392169D01*
X116606Y390562D01*
X115000Y388468D01*
X113989Y386030D01*
X113645Y383413D01*
X113989Y380796D01*
X115000Y378358D01*
X116606Y376264D01*
X118700Y374657D01*
X121139Y373647D01*
X123755Y373303D01*
X126372Y373647D01*
X128811Y374657D01*
X130905Y376264D01*
X132511Y378358D01*
X133521Y380796D01*
X133866Y383413D01*
X133521Y386030D01*
X132511Y388468D01*
X130905Y390562D01*
X128811Y392169D01*
X126372Y393179D01*
X123755Y393524D01*
D02*
G37*
G36*
X92485Y394381D02*
X90873Y394169D01*
X88188Y393057D01*
X85882Y391287D01*
X84112Y388981D01*
X83000Y386295D01*
X82787Y384683D01*
X92485D01*
Y394381D01*
D02*
G37*
G36*
X95025D02*
Y384683D01*
X104723D01*
X104511Y386295D01*
X103399Y388981D01*
X101629Y391287D01*
X99323Y393057D01*
X96637Y394169D01*
X95025Y394381D01*
D02*
G37*
G36*
X341881Y409035D02*
X336612D01*
Y405266D01*
X341881D01*
Y409035D01*
D02*
G37*
G36*
X349692D02*
X344422D01*
Y405266D01*
X349692D01*
Y409035D01*
D02*
G37*
G36*
X92485Y424381D02*
X90873Y424169D01*
X88188Y423057D01*
X85882Y421287D01*
X84112Y418981D01*
X83000Y416295D01*
X82787Y414683D01*
X92485D01*
Y424381D01*
D02*
G37*
G36*
X104723Y412143D02*
X95025D01*
Y402445D01*
X96637Y402657D01*
X99323Y403770D01*
X101629Y405539D01*
X103399Y407845D01*
X104511Y410531D01*
X104723Y412143D01*
D02*
G37*
G36*
X50555Y440929D02*
X46826Y440562D01*
X43240Y439474D01*
X39935Y437708D01*
X37038Y435330D01*
X34661Y432434D01*
X32894Y429129D01*
X31807Y425542D01*
X31439Y421813D01*
X31807Y418084D01*
X32894Y414498D01*
X34661Y411193D01*
X37038Y408296D01*
X39935Y405919D01*
X43240Y404152D01*
X46826Y403064D01*
X50555Y402697D01*
X54285Y403064D01*
X57871Y404152D01*
X61176Y405919D01*
X64072Y408296D01*
X66450Y411193D01*
X68216Y414498D01*
X69304Y418084D01*
X69671Y421813D01*
X69304Y425542D01*
X68216Y429129D01*
X66450Y432434D01*
X64072Y435330D01*
X61176Y437708D01*
X57871Y439474D01*
X54285Y440562D01*
X50555Y440929D01*
D02*
G37*
G36*
X123755Y423524D02*
X121139Y423179D01*
X118700Y422169D01*
X116606Y420562D01*
X115000Y418468D01*
X113989Y416030D01*
X113645Y413413D01*
X113989Y410796D01*
X115000Y408358D01*
X116606Y406264D01*
X118700Y404657D01*
X121139Y403647D01*
X123755Y403303D01*
X126372Y403647D01*
X128811Y404657D01*
X130905Y406264D01*
X132511Y408358D01*
X133521Y410796D01*
X133866Y413413D01*
X133521Y416030D01*
X132511Y418468D01*
X130905Y420562D01*
X128811Y422169D01*
X126372Y423179D01*
X123755Y423524D01*
D02*
G37*
G36*
X308100Y535231D02*
X302830D01*
Y531461D01*
X308100D01*
Y535231D01*
D02*
G37*
G36*
X95025Y590731D02*
Y581033D01*
X104723D01*
X104511Y582645D01*
X103399Y585331D01*
X101629Y587637D01*
X99323Y589407D01*
X96637Y590519D01*
X95025Y590731D01*
D02*
G37*
G36*
X197302Y601174D02*
X192033D01*
Y595904D01*
X197302D01*
Y601174D01*
D02*
G37*
G36*
X205112D02*
X199842D01*
Y595904D01*
X205112D01*
Y601174D01*
D02*
G37*
G36*
X104723Y578493D02*
X95025D01*
Y568795D01*
X96637Y569007D01*
X99323Y570120D01*
X101629Y571889D01*
X103399Y574196D01*
X104511Y576881D01*
X104723Y578493D01*
D02*
G37*
G36*
X242830Y585976D02*
X234782D01*
Y574928D01*
X242830D01*
Y577604D01*
X256497D01*
Y576481D01*
X267545D01*
Y577656D01*
X269850D01*
X270210Y577117D01*
X271765Y576079D01*
X273598Y575714D01*
X275432Y576079D01*
X276986Y577117D01*
X278025Y578672D01*
X278389Y580505D01*
X278025Y582339D01*
X276986Y583893D01*
X275432Y584931D01*
X273598Y585296D01*
X271765Y584931D01*
X270210Y583893D01*
X269850Y583354D01*
X267545D01*
Y584529D01*
X256497D01*
Y583301D01*
X242830D01*
Y585976D01*
D02*
G37*
G36*
X92485Y590731D02*
X90873Y590519D01*
X88188Y589407D01*
X85882Y587637D01*
X84112Y585331D01*
X83000Y582645D01*
X82787Y581033D01*
X92485D01*
Y590731D01*
D02*
G37*
G36*
X197302Y608984D02*
X192033D01*
Y603714D01*
X197302D01*
Y608984D01*
D02*
G37*
G36*
X205112D02*
X199842D01*
Y603714D01*
X205112D01*
Y608984D01*
D02*
G37*
G36*
X92485Y620731D02*
X90873Y620519D01*
X88188Y619407D01*
X85882Y617637D01*
X84112Y615331D01*
X83000Y612645D01*
X82787Y611033D01*
X92485D01*
Y620731D01*
D02*
G37*
G36*
X104724Y608493D02*
X95025D01*
Y598795D01*
X96637Y599007D01*
X99323Y600120D01*
X101629Y601889D01*
X103399Y604196D01*
X104511Y606881D01*
X104724Y608493D01*
D02*
G37*
G36*
X92485D02*
X82787D01*
X83000Y606881D01*
X84112Y604196D01*
X85882Y601889D01*
X88188Y600120D01*
X90873Y599007D01*
X92485Y598795D01*
Y608493D01*
D02*
G37*
G36*
X50555Y637279D02*
X46826Y636912D01*
X43240Y635824D01*
X39935Y634058D01*
X37038Y631680D01*
X34661Y628783D01*
X32894Y625479D01*
X31807Y621893D01*
X31439Y618163D01*
X31807Y614434D01*
X32894Y610848D01*
X34661Y607543D01*
X37038Y604646D01*
X39935Y602269D01*
X43240Y600502D01*
X46826Y599414D01*
X50555Y599047D01*
X54285Y599414D01*
X57871Y600502D01*
X61176Y602269D01*
X64072Y604646D01*
X66450Y607543D01*
X68216Y610848D01*
X69304Y614434D01*
X69671Y618163D01*
X69304Y621893D01*
X68216Y625479D01*
X66450Y628783D01*
X64072Y631680D01*
X61176Y634058D01*
X57871Y635824D01*
X54285Y636912D01*
X50555Y637279D01*
D02*
G37*
G36*
X92485Y578493D02*
X82787D01*
X83000Y576881D01*
X84112Y574196D01*
X85882Y571889D01*
X88188Y570120D01*
X90873Y569007D01*
X92485Y568795D01*
Y578493D01*
D02*
G37*
G36*
X104723Y548493D02*
X95025D01*
Y538795D01*
X96637Y539007D01*
X99323Y540120D01*
X101629Y541889D01*
X103399Y544196D01*
X104511Y546881D01*
X104723Y548493D01*
D02*
G37*
G36*
X123755Y559874D02*
X121139Y559529D01*
X118700Y558519D01*
X116606Y556912D01*
X115000Y554818D01*
X113989Y552380D01*
X113645Y549763D01*
X113989Y547146D01*
X115000Y544708D01*
X116606Y542614D01*
X118700Y541007D01*
X121139Y539997D01*
X123755Y539653D01*
X126372Y539997D01*
X128811Y541007D01*
X130905Y542614D01*
X132511Y544708D01*
X133521Y547146D01*
X133866Y549763D01*
X133521Y552380D01*
X132511Y554818D01*
X130905Y556912D01*
X128811Y558519D01*
X126372Y559529D01*
X123755Y559874D01*
D02*
G37*
G36*
X92485Y560731D02*
X90873Y560519D01*
X88188Y559407D01*
X85882Y557637D01*
X84112Y555331D01*
X83000Y552645D01*
X82787Y551033D01*
X92485D01*
Y560731D01*
D02*
G37*
G36*
X300290Y541541D02*
X295020D01*
Y537771D01*
X300290D01*
Y541541D01*
D02*
G37*
G36*
X308100D02*
X302830D01*
Y537771D01*
X308100D01*
Y541541D01*
D02*
G37*
G36*
X92485Y548493D02*
X82787D01*
X83000Y546881D01*
X84112Y544196D01*
X85882Y541889D01*
X88188Y540120D01*
X90873Y539007D01*
X92485Y538795D01*
Y548493D01*
D02*
G37*
G36*
X268561Y564235D02*
X263291D01*
Y560465D01*
X268561D01*
Y564235D01*
D02*
G37*
G36*
X260751Y570545D02*
X255481D01*
Y566775D01*
X260751D01*
Y570545D01*
D02*
G37*
G36*
X268561D02*
X263291D01*
Y566775D01*
X268561D01*
Y570545D01*
D02*
G37*
G36*
X95025Y560731D02*
Y551033D01*
X104723D01*
X104511Y552645D01*
X103399Y555331D01*
X101629Y557637D01*
X99323Y559407D01*
X96637Y560519D01*
X95025Y560731D01*
D02*
G37*
G36*
X50555Y590479D02*
X46826Y590112D01*
X43240Y589024D01*
X39935Y587258D01*
X37038Y584880D01*
X34661Y581983D01*
X32894Y578679D01*
X31807Y575093D01*
X31439Y571363D01*
X31807Y567634D01*
X32894Y564048D01*
X34661Y560743D01*
X37038Y557846D01*
X39935Y555469D01*
X43240Y553702D01*
X46826Y552615D01*
X50555Y552247D01*
X54285Y552615D01*
X57871Y553702D01*
X61176Y555469D01*
X64072Y557846D01*
X66450Y560743D01*
X68216Y564048D01*
X69304Y567634D01*
X69671Y571363D01*
X69304Y575093D01*
X68216Y578679D01*
X66450Y581983D01*
X64072Y584880D01*
X61176Y587258D01*
X57871Y589024D01*
X54285Y590112D01*
X50555Y590479D01*
D02*
G37*
G36*
X260751Y564235D02*
X255481D01*
Y560465D01*
X260751D01*
Y564235D01*
D02*
G37*
G36*
X104723Y382143D02*
X95025D01*
Y372445D01*
X96637Y372657D01*
X99323Y373770D01*
X101629Y375539D01*
X103399Y377845D01*
X104511Y380531D01*
X104723Y382143D01*
D02*
G37*
G36*
X214657Y179226D02*
X207137D01*
Y174706D01*
X214657D01*
Y179226D01*
D02*
G37*
G36*
Y186286D02*
X207137D01*
Y181766D01*
X214657D01*
Y186286D01*
D02*
G37*
G36*
X299310Y206152D02*
X295539D01*
Y200882D01*
X299310D01*
Y206152D01*
D02*
G37*
G36*
Y168610D02*
X295539D01*
Y163340D01*
X299310D01*
Y168610D01*
D02*
G37*
G36*
X305620D02*
X301849D01*
Y163340D01*
X305620D01*
Y168610D01*
D02*
G37*
G36*
X204597Y179226D02*
X197077D01*
Y174706D01*
X204597D01*
Y179226D01*
D02*
G37*
G36*
X267038Y216321D02*
X259518D01*
Y211801D01*
X267038D01*
Y216321D01*
D02*
G37*
G36*
X305620Y228073D02*
X301849D01*
Y222803D01*
X305620D01*
Y228073D01*
D02*
G37*
G36*
X299310Y235883D02*
X295539D01*
Y230613D01*
X299310D01*
Y235883D01*
D02*
G37*
G36*
X256978Y209261D02*
X249458D01*
Y204741D01*
X256978D01*
Y209261D01*
D02*
G37*
G36*
X267038D02*
X259518D01*
Y204741D01*
X267038D01*
Y209261D01*
D02*
G37*
G36*
X50555Y247539D02*
X46826Y247172D01*
X43240Y246084D01*
X39935Y244318D01*
X37038Y241940D01*
X34661Y239044D01*
X32894Y235739D01*
X31807Y232153D01*
X31439Y228423D01*
X31807Y224694D01*
X32894Y221108D01*
X34661Y217803D01*
X37038Y214906D01*
X39935Y212529D01*
X43240Y210762D01*
X46826Y209674D01*
X50555Y209307D01*
X54285Y209674D01*
X57871Y210762D01*
X61176Y212529D01*
X64072Y214906D01*
X66450Y217803D01*
X68216Y221108D01*
X69304Y224694D01*
X69671Y228423D01*
X69304Y232153D01*
X68216Y235739D01*
X66450Y239044D01*
X64072Y241940D01*
X61176Y244318D01*
X57871Y246084D01*
X54285Y247172D01*
X50555Y247539D01*
D02*
G37*
G36*
Y200739D02*
X46826Y200372D01*
X43240Y199284D01*
X39935Y197518D01*
X37038Y195140D01*
X34661Y192243D01*
X32894Y188939D01*
X31807Y185353D01*
X31439Y181623D01*
X31807Y177894D01*
X32894Y174308D01*
X34661Y171003D01*
X37038Y168106D01*
X39935Y165729D01*
X43240Y163962D01*
X46826Y162875D01*
X50555Y162507D01*
X54285Y162875D01*
X57871Y163962D01*
X61176Y165729D01*
X64072Y168106D01*
X66450Y171003D01*
X68216Y174308D01*
X69304Y177894D01*
X69671Y181623D01*
X69304Y185353D01*
X68216Y188939D01*
X66450Y192243D01*
X64072Y195140D01*
X61176Y197518D01*
X57871Y199284D01*
X54285Y200372D01*
X50555Y200739D01*
D02*
G37*
G36*
X162243Y52969D02*
X148324D01*
Y39051D01*
X150042Y39220D01*
X152914Y40092D01*
X155562Y41507D01*
X157882Y43411D01*
X159787Y45732D01*
X161202Y48379D01*
X162073Y51252D01*
X162243Y52969D01*
D02*
G37*
G36*
X145784D02*
X131865D01*
X132035Y51252D01*
X132906Y48379D01*
X134321Y45732D01*
X136226Y43411D01*
X138546Y41507D01*
X141194Y40092D01*
X144066Y39220D01*
X145784Y39051D01*
Y52969D01*
D02*
G37*
G36*
X202172Y68586D02*
X198459Y68097D01*
X194999Y66664D01*
X192027Y64384D01*
X189747Y61413D01*
X188314Y57953D01*
X187825Y54240D01*
X188314Y50526D01*
X189747Y47066D01*
X192027Y44095D01*
X194999Y41815D01*
X198459Y40382D01*
X202172Y39893D01*
X205885Y40382D01*
X209345Y41815D01*
X212317Y44095D01*
X214597Y47066D01*
X216030Y50526D01*
X216519Y54240D01*
X216030Y57953D01*
X214597Y61413D01*
X212317Y64384D01*
X209345Y66664D01*
X205885Y68097D01*
X202172Y68586D01*
D02*
G37*
G36*
X305828Y63652D02*
X301404Y63304D01*
X297089Y62268D01*
X292989Y60569D01*
X289205Y58251D01*
X285830Y55368D01*
X282948Y51994D01*
X280630Y48210D01*
X278931Y44110D01*
X277895Y39795D01*
X277547Y35371D01*
X277895Y30947D01*
X278931Y26631D01*
X280630Y22531D01*
X282948Y18748D01*
X285830Y15373D01*
X289205Y12491D01*
X292989Y10172D01*
X297089Y8474D01*
X301404Y7438D01*
X305828Y7089D01*
X310252Y7438D01*
X314568Y8474D01*
X318668Y10172D01*
X322452Y12491D01*
X325826Y15373D01*
X328708Y18748D01*
X331027Y22531D01*
X332725Y26631D01*
X333761Y30947D01*
X334109Y35371D01*
X333761Y39795D01*
X332725Y44110D01*
X331027Y48210D01*
X328708Y51994D01*
X325826Y55368D01*
X322452Y58251D01*
X318668Y60569D01*
X314568Y62268D01*
X310252Y63304D01*
X305828Y63652D01*
D02*
G37*
G36*
X545047D02*
X540622Y63304D01*
X536307Y62268D01*
X532207Y60569D01*
X528423Y58251D01*
X525049Y55368D01*
X522167Y51994D01*
X519848Y48210D01*
X518150Y44110D01*
X517114Y39795D01*
X516765Y35371D01*
X517114Y30947D01*
X518150Y26631D01*
X519848Y22531D01*
X522167Y18748D01*
X525049Y15373D01*
X528423Y12491D01*
X532207Y10172D01*
X536307Y8474D01*
X540622Y7438D01*
X545047Y7089D01*
X549471Y7438D01*
X553786Y8474D01*
X557886Y10172D01*
X561670Y12491D01*
X565044Y15373D01*
X567927Y18748D01*
X570245Y22531D01*
X571944Y26631D01*
X572980Y30947D01*
X573328Y35371D01*
X572980Y39795D01*
X571944Y44110D01*
X570245Y48210D01*
X567927Y51994D01*
X565044Y55368D01*
X561670Y58251D01*
X557886Y60569D01*
X553786Y62268D01*
X549471Y63304D01*
X545047Y63652D01*
D02*
G37*
G36*
X74156Y74913D02*
X70123Y74516D01*
X66245Y73339D01*
X62670Y71429D01*
X59538Y68858D01*
X56967Y65725D01*
X55056Y62151D01*
X53880Y58273D01*
X53482Y54240D01*
X53880Y50206D01*
X55056Y46328D01*
X56967Y42754D01*
X59538Y39621D01*
X62670Y37050D01*
X66245Y35140D01*
X70123Y33963D01*
X74156Y33566D01*
X78189Y33963D01*
X82067Y35140D01*
X85642Y37050D01*
X88774Y39621D01*
X91345Y42754D01*
X93256Y46328D01*
X94432Y50206D01*
X94830Y54240D01*
X94432Y58273D01*
X93256Y62151D01*
X91345Y65725D01*
X88774Y68858D01*
X85642Y71429D01*
X82067Y73339D01*
X78189Y74516D01*
X74156Y74913D01*
D02*
G37*
G36*
X265499Y149187D02*
X257979D01*
Y144667D01*
X265499D01*
Y149187D01*
D02*
G37*
G36*
X93755Y260134D02*
X91139Y259789D01*
X88700Y258779D01*
X86606Y257172D01*
X85000Y255079D01*
X83989Y252640D01*
X83645Y250023D01*
X83989Y247407D01*
X85000Y244968D01*
X86606Y242874D01*
X88317Y241561D01*
Y228485D01*
X86606Y227172D01*
X85000Y225079D01*
X83989Y222640D01*
X83645Y220023D01*
X83989Y217406D01*
X85000Y214968D01*
X86606Y212874D01*
X88700Y211267D01*
X88964Y211158D01*
Y198889D01*
X88700Y198779D01*
X86606Y197172D01*
X85000Y195079D01*
X83989Y192640D01*
X83645Y190023D01*
X83989Y187407D01*
X85000Y184968D01*
X86606Y182874D01*
X88317Y181561D01*
Y168485D01*
X86606Y167172D01*
X85000Y165079D01*
X83989Y162640D01*
X83645Y160023D01*
X83989Y157406D01*
X85000Y154968D01*
X86606Y152874D01*
X88700Y151267D01*
X91139Y150257D01*
X93755Y149913D01*
X96372Y150257D01*
X98811Y151267D01*
X100905Y152874D01*
X102511Y154968D01*
X103521Y157406D01*
X103866Y160023D01*
X103521Y162640D01*
X102511Y165079D01*
X100905Y167172D01*
X99194Y168485D01*
Y181561D01*
X100905Y182874D01*
X102511Y184968D01*
X103521Y187407D01*
X103866Y190023D01*
X103521Y192640D01*
X102511Y195079D01*
X100905Y197172D01*
X98811Y198779D01*
X98546Y198889D01*
Y211158D01*
X98811Y211267D01*
X100905Y212874D01*
X102511Y214968D01*
X103521Y217406D01*
X103866Y220023D01*
X103521Y222640D01*
X102511Y225079D01*
X100905Y227172D01*
X99194Y228485D01*
Y241561D01*
X100905Y242874D01*
X102511Y244968D01*
X103521Y247407D01*
X103866Y250023D01*
X103521Y252640D01*
X102511Y255079D01*
X100905Y257172D01*
X98811Y258779D01*
X96372Y259789D01*
X93755Y260134D01*
D02*
G37*
G36*
X265499Y156247D02*
X257979D01*
Y151727D01*
X265499D01*
Y156247D01*
D02*
G37*
G36*
X145784Y69428D02*
X144066Y69259D01*
X141194Y68388D01*
X138546Y66972D01*
X136226Y65068D01*
X134321Y62747D01*
X132906Y60100D01*
X132035Y57227D01*
X131865Y55510D01*
X145784D01*
Y69428D01*
D02*
G37*
G36*
X148324D02*
Y55510D01*
X162243D01*
X162073Y57227D01*
X161202Y60100D01*
X159787Y62747D01*
X157882Y65068D01*
X155562Y66972D01*
X152914Y68388D01*
X150042Y69259D01*
X148324Y69428D01*
D02*
G37*
G36*
X255439Y149187D02*
X247919D01*
Y144667D01*
X255439D01*
Y149187D01*
D02*
G37*
G36*
X204806Y239198D02*
X197286D01*
Y234678D01*
X204806D01*
Y239198D01*
D02*
G37*
G36*
X92485Y352143D02*
X82787D01*
X83000Y350531D01*
X84112Y347845D01*
X85882Y345539D01*
X88188Y343770D01*
X90873Y342657D01*
X92485Y342445D01*
Y352143D01*
D02*
G37*
G36*
X104723D02*
X95025D01*
Y342445D01*
X96637Y342657D01*
X99323Y343770D01*
X101629Y345539D01*
X103399Y347845D01*
X104511Y350531D01*
X104723Y352143D01*
D02*
G37*
G36*
X123755Y363524D02*
X121139Y363179D01*
X118700Y362169D01*
X116606Y360562D01*
X115000Y358468D01*
X113989Y356030D01*
X113645Y353413D01*
X113989Y350796D01*
X115000Y348358D01*
X116606Y346264D01*
X118700Y344657D01*
X121139Y343647D01*
X123755Y343303D01*
X126372Y343647D01*
X128811Y344657D01*
X130905Y346264D01*
X132511Y348358D01*
X133521Y350796D01*
X133866Y353413D01*
X133521Y356030D01*
X132511Y358468D01*
X130905Y360562D01*
X128811Y362169D01*
X126372Y363179D01*
X123755Y363524D01*
D02*
G37*
G36*
X340233Y305460D02*
X334963D01*
Y301690D01*
X340233D01*
Y305460D01*
D02*
G37*
G36*
X405667Y326973D02*
X402659Y326577D01*
X399855Y325416D01*
X397448Y323569D01*
X395601Y321161D01*
X394439Y318358D01*
X394043Y315350D01*
X394439Y312341D01*
X395601Y309538D01*
X397448Y307131D01*
X399855Y305284D01*
X402659Y304122D01*
X405667Y303726D01*
X408675Y304122D01*
X411479Y305284D01*
X413886Y307131D01*
X415733Y309538D01*
X416894Y312341D01*
X416920Y312538D01*
X423938D01*
Y311195D01*
X434986D01*
Y319243D01*
X423938D01*
Y318235D01*
X416910D01*
X416894Y318358D01*
X415733Y321161D01*
X413886Y323569D01*
X411479Y325416D01*
X408675Y326577D01*
X405667Y326973D01*
D02*
G37*
G36*
X356867D02*
X353858Y326577D01*
X351055Y325416D01*
X348648Y323569D01*
X346801Y321161D01*
X345639Y318358D01*
X345623Y318235D01*
X339217D01*
Y319444D01*
X328169D01*
Y311396D01*
X339217D01*
Y312538D01*
X345614D01*
X345639Y312341D01*
X346801Y309538D01*
X348648Y307131D01*
X351055Y305284D01*
X353858Y304122D01*
X356867Y303726D01*
X359875Y304122D01*
X362678Y305284D01*
X365086Y307131D01*
X366933Y309538D01*
X368094Y312341D01*
X368490Y315350D01*
X368094Y318358D01*
X366933Y321161D01*
X365086Y323569D01*
X362678Y325416D01*
X359875Y326577D01*
X356867Y326973D01*
D02*
G37*
G36*
X348675Y393019D02*
X337627D01*
Y384972D01*
X340303D01*
Y378106D01*
X339644Y377666D01*
X338605Y376112D01*
X338241Y374278D01*
X338605Y372445D01*
X339644Y370890D01*
X341198Y369852D01*
X343032Y369487D01*
X344865Y369852D01*
X346419Y370890D01*
X347458Y372445D01*
X347823Y374278D01*
X347458Y376112D01*
X346419Y377666D01*
X346000Y377946D01*
Y384972D01*
X348675D01*
Y393019D01*
D02*
G37*
G36*
X235707Y471390D02*
X233874Y471026D01*
X232319Y469987D01*
X231281Y468433D01*
X230916Y466599D01*
X231281Y464766D01*
X232319Y463211D01*
X232858Y462851D01*
Y398248D01*
X232858Y398248D01*
X233075Y397158D01*
X233693Y396233D01*
X254573Y375352D01*
X254447Y374717D01*
X254812Y372883D01*
X255850Y371329D01*
X257405Y370290D01*
X259238Y369925D01*
X261071Y370290D01*
X262626Y371329D01*
X263664Y372883D01*
X264029Y374717D01*
X263664Y376550D01*
X262626Y378104D01*
X261071Y379143D01*
X259238Y379508D01*
X258602Y379381D01*
X238556Y399428D01*
Y462851D01*
X239095Y463211D01*
X240133Y464766D01*
X240498Y466599D01*
X240133Y468433D01*
X239095Y469987D01*
X237540Y471026D01*
X235707Y471390D01*
D02*
G37*
G36*
X92485Y382143D02*
X82787D01*
X83000Y380531D01*
X84112Y377845D01*
X85882Y375539D01*
X88188Y373770D01*
X90873Y372657D01*
X92485Y372445D01*
Y382143D01*
D02*
G37*
G36*
X92485Y364381D02*
X90873Y364169D01*
X88188Y363057D01*
X85882Y361287D01*
X84112Y358981D01*
X83000Y356295D01*
X82787Y354683D01*
X92485D01*
Y364381D01*
D02*
G37*
G36*
X95025D02*
Y354683D01*
X104723D01*
X104511Y356295D01*
X103399Y358981D01*
X101629Y361287D01*
X99323Y363057D01*
X96637Y364169D01*
X95025Y364381D01*
D02*
G37*
G36*
X50555Y394129D02*
X46826Y393762D01*
X43240Y392674D01*
X39935Y390908D01*
X37038Y388530D01*
X34661Y385634D01*
X32894Y382329D01*
X31807Y378742D01*
X31439Y375013D01*
X31807Y371284D01*
X32894Y367698D01*
X34661Y364393D01*
X37038Y361496D01*
X39935Y359119D01*
X43240Y357352D01*
X46826Y356264D01*
X50555Y355897D01*
X54285Y356264D01*
X57871Y357352D01*
X61176Y359119D01*
X64072Y361496D01*
X66450Y364393D01*
X68216Y367698D01*
X69304Y371284D01*
X69671Y375013D01*
X69304Y378742D01*
X68216Y382329D01*
X66450Y385634D01*
X64072Y388530D01*
X61176Y390908D01*
X57871Y392674D01*
X54285Y393762D01*
X50555Y394129D01*
D02*
G37*
G36*
X332423Y305460D02*
X327153D01*
Y301690D01*
X332423D01*
Y305460D01*
D02*
G37*
G36*
X299310Y265615D02*
X295539D01*
Y260345D01*
X299310D01*
Y265615D01*
D02*
G37*
G36*
X305620D02*
X301849D01*
Y260345D01*
X305620D01*
Y265615D01*
D02*
G37*
G36*
X300325Y585648D02*
X298269Y585377D01*
X296354Y584584D01*
X294709Y583322D01*
X293447Y581677D01*
X292653Y579761D01*
X292383Y577706D01*
X292653Y575650D01*
X293447Y573735D01*
X294709Y572090D01*
X295534Y571457D01*
Y567806D01*
X274300Y546572D01*
X273261Y545018D01*
X272896Y543184D01*
Y297878D01*
X272072Y297246D01*
X270810Y295601D01*
X270016Y293685D01*
X269746Y291630D01*
X270016Y289574D01*
X270810Y287659D01*
X272072Y286014D01*
X273717Y284752D01*
X275632Y283958D01*
X277687Y283688D01*
X279743Y283958D01*
X281658Y284752D01*
X283303Y286014D01*
X284565Y287659D01*
X285359Y289574D01*
X285629Y291630D01*
X285359Y293685D01*
X284565Y295601D01*
X283303Y297246D01*
X282479Y297878D01*
Y541200D01*
X303712Y562434D01*
X304751Y563988D01*
X305116Y565821D01*
Y571457D01*
X305940Y572090D01*
X307202Y573735D01*
X307996Y575650D01*
X308267Y577706D01*
X307996Y579761D01*
X307202Y581677D01*
X305940Y583322D01*
X304296Y584584D01*
X302380Y585377D01*
X300325Y585648D01*
D02*
G37*
G36*
X214866Y239198D02*
X207346D01*
Y234678D01*
X214866D01*
Y239198D01*
D02*
G37*
G36*
Y246258D02*
X207346D01*
Y241738D01*
X214866D01*
Y246258D01*
D02*
G37*
G36*
X305620Y257805D02*
X301849D01*
Y252535D01*
X305620D01*
Y257805D01*
D02*
G37*
G36*
X340233Y299150D02*
X334963D01*
Y295380D01*
X340233D01*
Y299150D01*
D02*
G37*
G36*
X428193Y305259D02*
X422923D01*
Y301489D01*
X428193D01*
Y305259D01*
D02*
G37*
G36*
X436003D02*
X430733D01*
Y301489D01*
X436003D01*
Y305259D01*
D02*
G37*
G36*
X428193Y298949D02*
X422923D01*
Y295179D01*
X428193D01*
Y298949D01*
D02*
G37*
G36*
X436003D02*
X430733D01*
Y295179D01*
X436003D01*
Y298949D01*
D02*
G37*
G36*
X332423Y299150D02*
X327153D01*
Y295380D01*
X332423D01*
Y299150D01*
D02*
G37*
G36*
X95025Y620731D02*
Y611033D01*
X104723D01*
X104511Y612645D01*
X103399Y615331D01*
X101629Y617637D01*
X99323Y619407D01*
X96637Y620519D01*
X95025Y620731D01*
D02*
G37*
G36*
X148080Y896608D02*
X142810D01*
Y891338D01*
X148080D01*
Y896608D01*
D02*
G37*
G36*
X155890D02*
X150620D01*
Y891338D01*
X155890D01*
Y896608D01*
D02*
G37*
G36*
X148080Y904417D02*
X142810D01*
Y899147D01*
X148080D01*
Y904417D01*
D02*
G37*
G36*
X278960Y896695D02*
X273880D01*
X272156Y896468D01*
X270550Y895803D01*
X269170Y894744D01*
X268111Y893364D01*
X267446Y891758D01*
X267219Y890034D01*
X267446Y888310D01*
X268111Y886703D01*
X269170Y885324D01*
X270550Y884265D01*
X272156Y883600D01*
X273880Y883373D01*
X278960D01*
X280684Y883600D01*
X282291Y884265D01*
X283670Y885324D01*
X284729Y886703D01*
X285394Y888310D01*
X285621Y890034D01*
X285394Y891758D01*
X284729Y893364D01*
X283670Y894744D01*
X282291Y895803D01*
X280684Y896468D01*
X278960Y896695D01*
D02*
G37*
G36*
X196410Y897720D02*
X195140D01*
X193151Y897458D01*
X191297Y896690D01*
X189705Y895469D01*
X188484Y893877D01*
X187716Y892023D01*
X187621Y891304D01*
X196410D01*
Y897720D01*
D02*
G37*
G36*
X200220D02*
X198950D01*
Y891304D01*
X207739D01*
X207644Y892023D01*
X206876Y893877D01*
X205655Y895469D01*
X204063Y896690D01*
X202209Y897458D01*
X200220Y897720D01*
D02*
G37*
G36*
X155890Y904417D02*
X150620D01*
Y899147D01*
X155890D01*
Y904417D01*
D02*
G37*
G36*
X436360Y936886D02*
X434526Y936521D01*
X432972Y935483D01*
X431933Y933928D01*
X431569Y932095D01*
X431933Y930261D01*
X432972Y928707D01*
X433511Y928347D01*
Y925208D01*
X433511Y925208D01*
X433728Y924117D01*
X434345Y923193D01*
X440751Y916788D01*
X440624Y916152D01*
X440989Y914319D01*
X442027Y912764D01*
X443582Y911726D01*
X445415Y911361D01*
X447249Y911726D01*
X448803Y912764D01*
X449841Y914319D01*
X450206Y916152D01*
X449841Y917986D01*
X448803Y919540D01*
X447249Y920578D01*
X445415Y920943D01*
X444779Y920817D01*
X439208Y926388D01*
Y928347D01*
X439747Y928707D01*
X440786Y930261D01*
X441151Y932095D01*
X440786Y933928D01*
X439747Y935483D01*
X438193Y936521D01*
X436360Y936886D01*
D02*
G37*
G36*
X275150Y923120D02*
X273880D01*
X271891Y922858D01*
X270037Y922090D01*
X268445Y920869D01*
X267224Y919277D01*
X266456Y917423D01*
X266362Y916704D01*
X275150D01*
Y923120D01*
D02*
G37*
G36*
X278960D02*
X277690D01*
Y916704D01*
X286479D01*
X286384Y917423D01*
X285616Y919277D01*
X284395Y920869D01*
X282803Y922090D01*
X280949Y922858D01*
X278960Y923120D01*
D02*
G37*
G36*
X96705Y922215D02*
X94089Y921870D01*
X91650Y920860D01*
X89556Y919253D01*
X87949Y917159D01*
X86939Y914721D01*
X86595Y912104D01*
X86939Y909487D01*
X87949Y907049D01*
X89556Y904955D01*
X91650Y903348D01*
X94089Y902338D01*
X96705Y901993D01*
X99322Y902338D01*
X101761Y903348D01*
X103855Y904955D01*
X105461Y907049D01*
X106471Y909487D01*
X106816Y912104D01*
X106471Y914721D01*
X105461Y917159D01*
X103855Y919253D01*
X101761Y920860D01*
X99322Y921870D01*
X96705Y922215D01*
D02*
G37*
G36*
X275150Y914164D02*
X266362D01*
X266456Y913445D01*
X267224Y911591D01*
X268445Y909999D01*
X270037Y908778D01*
X271891Y908010D01*
X273880Y907748D01*
X275150D01*
Y914164D01*
D02*
G37*
G36*
X286479D02*
X277690D01*
Y907748D01*
X278960D01*
X280949Y908010D01*
X282803Y908778D01*
X284395Y909999D01*
X285616Y911591D01*
X286384Y913445D01*
X286479Y914164D01*
D02*
G37*
G36*
X514469Y839485D02*
X512921Y839281D01*
X510295Y838193D01*
X508040Y836463D01*
X506310Y834208D01*
X505222Y831582D01*
X505019Y830034D01*
X514469D01*
Y839485D01*
D02*
G37*
G36*
X517010Y839485D02*
Y830034D01*
X526460D01*
X526257Y831582D01*
X525169Y834208D01*
X523439Y836463D01*
X521184Y838193D01*
X518558Y839281D01*
X517010Y839485D01*
D02*
G37*
G36*
X514469Y852894D02*
X505019D01*
X505222Y851346D01*
X506310Y848720D01*
X508040Y846465D01*
X510295Y844735D01*
X512921Y843647D01*
X514469Y843443D01*
Y852894D01*
D02*
G37*
G36*
X200220Y972895D02*
X195140D01*
X193416Y972668D01*
X191810Y972003D01*
X190430Y970944D01*
X189371Y969565D01*
X188706Y967958D01*
X188479Y966234D01*
X188706Y964510D01*
X189371Y962904D01*
X190430Y961524D01*
X191810Y960465D01*
X193416Y959800D01*
X195140Y959573D01*
X200220D01*
X200302Y959584D01*
X212068Y947817D01*
Y818281D01*
X200302Y806514D01*
X200220Y806525D01*
X195140D01*
X193416Y806298D01*
X191810Y805633D01*
X190430Y804574D01*
X189371Y803195D01*
X188706Y801588D01*
X188479Y799864D01*
X188706Y798140D01*
X189371Y796534D01*
X190430Y795154D01*
X191810Y794095D01*
X193416Y793430D01*
X195140Y793203D01*
X200220D01*
X200302Y793214D01*
X211432Y782084D01*
Y711941D01*
X154604Y655113D01*
X116308D01*
X115218Y654896D01*
X114294Y654279D01*
X114294Y654279D01*
X108575Y648560D01*
X107957Y647635D01*
X107741Y646545D01*
X107741Y646545D01*
Y584984D01*
X107725Y584908D01*
X107726Y584908D01*
Y568879D01*
X107110Y568467D01*
X106071Y566913D01*
X105706Y565079D01*
X106071Y563246D01*
X107110Y561692D01*
X108664Y560653D01*
X110498Y560289D01*
X112331Y560653D01*
X113885Y561692D01*
X114309Y562326D01*
X132836D01*
X161397Y533764D01*
X162322Y533147D01*
X163412Y532930D01*
X163412Y532930D01*
X193106D01*
Y531755D01*
X204154D01*
Y539803D01*
X193106D01*
Y538628D01*
X164592D01*
X136030Y567189D01*
X135106Y567807D01*
X134016Y568024D01*
X134016Y568024D01*
X114182D01*
X113885Y568467D01*
X113423Y568776D01*
Y575195D01*
X114693Y575448D01*
X115000Y574708D01*
X116606Y572614D01*
X118700Y571007D01*
X121139Y569997D01*
X123755Y569653D01*
X126372Y569997D01*
X128811Y571007D01*
X130905Y572614D01*
X132511Y574708D01*
X133425Y576914D01*
X193048D01*
Y574920D01*
X195724D01*
Y554803D01*
X193106D01*
Y546755D01*
X204154D01*
Y554803D01*
X201421D01*
Y574920D01*
X204097D01*
Y577595D01*
X219782D01*
Y574928D01*
X227830D01*
Y585976D01*
X219782D01*
Y583293D01*
X204097D01*
Y585968D01*
X193048D01*
Y582612D01*
X133425D01*
X132511Y584818D01*
X130905Y586912D01*
X128811Y588519D01*
X126372Y589529D01*
X123755Y589874D01*
X121139Y589529D01*
X118700Y588519D01*
X116606Y586912D01*
X115201Y585080D01*
X114201Y584796D01*
X113609Y584780D01*
X113438Y584923D01*
X113438Y584923D01*
Y592060D01*
X172724D01*
X172724Y592060D01*
X173814Y592277D01*
X174739Y592894D01*
X178927Y597082D01*
X184446D01*
Y605131D01*
X173398D01*
Y599611D01*
X171544Y597757D01*
X113438D01*
Y605159D01*
X114708Y605411D01*
X115000Y604708D01*
X116606Y602614D01*
X118700Y601007D01*
X121139Y599997D01*
X123755Y599653D01*
X126372Y599997D01*
X128811Y601007D01*
X130905Y602614D01*
X132511Y604708D01*
X133521Y607146D01*
X133866Y609763D01*
X133521Y612380D01*
X132511Y614818D01*
X130905Y616912D01*
X128811Y618519D01*
X126372Y619529D01*
X123755Y619874D01*
X121139Y619529D01*
X118700Y618519D01*
X116606Y616912D01*
X115000Y614818D01*
X114708Y614115D01*
X113438Y614368D01*
Y635159D01*
X114708Y635411D01*
X115000Y634708D01*
X116606Y632614D01*
X118700Y631007D01*
X121139Y629997D01*
X123755Y629653D01*
X126372Y629997D01*
X128811Y631007D01*
X130905Y632614D01*
X132511Y634708D01*
X133425Y636914D01*
X173504D01*
Y634629D01*
X176179D01*
Y620131D01*
X173398D01*
Y612082D01*
X184446D01*
Y620131D01*
X181877D01*
Y634629D01*
X184552D01*
Y637304D01*
X200134D01*
Y634642D01*
X208182D01*
Y645690D01*
X200134D01*
Y643002D01*
X184552D01*
Y645677D01*
X173504D01*
Y642612D01*
X133425D01*
X132511Y644818D01*
X130905Y646912D01*
X129298Y648146D01*
X129729Y649416D01*
X155784D01*
X155784Y649416D01*
X156874Y649632D01*
X157798Y650250D01*
X171315Y663767D01*
X172144Y663423D01*
X177758D01*
Y669037D01*
X177415Y669866D01*
X216295Y708747D01*
X216295Y708747D01*
X216912Y709671D01*
X217129Y710761D01*
X217129Y710761D01*
Y783263D01*
X216912Y784354D01*
X216295Y785278D01*
X216295Y785278D01*
X205576Y795996D01*
X205989Y796534D01*
X206654Y798140D01*
X206881Y799864D01*
X206654Y801588D01*
X205989Y803195D01*
X205576Y803732D01*
X216931Y815087D01*
X216931Y815087D01*
X217549Y816011D01*
X217766Y817101D01*
X217766Y817101D01*
Y948997D01*
X217766Y948997D01*
X217549Y950087D01*
X216931Y951011D01*
X216931Y951011D01*
X205576Y962366D01*
X205989Y962904D01*
X206654Y964510D01*
X206881Y966234D01*
X206654Y967958D01*
X205989Y969565D01*
X204930Y970944D01*
X203551Y972003D01*
X201944Y972668D01*
X200220Y972895D01*
D02*
G37*
G36*
X514469Y827494D02*
X505019D01*
X505222Y825946D01*
X506310Y823320D01*
X508040Y821065D01*
X510295Y819335D01*
X512921Y818247D01*
X514469Y818043D01*
Y827494D01*
D02*
G37*
G36*
X526460D02*
X517010D01*
Y818043D01*
X518558Y818247D01*
X521184Y819335D01*
X523439Y821065D01*
X525169Y823320D01*
X526257Y825946D01*
X526460Y827494D01*
D02*
G37*
G36*
Y852894D02*
X517010D01*
Y843443D01*
X518558Y843647D01*
X521184Y844735D01*
X523439Y846465D01*
X525169Y848720D01*
X526257Y851346D01*
X526460Y852894D01*
D02*
G37*
G36*
X541139Y914827D02*
X538587Y914491D01*
X536208Y913506D01*
X534165Y911938D01*
X532598Y909896D01*
X531612Y907517D01*
X531276Y904964D01*
X531612Y902411D01*
X532598Y900032D01*
X534165Y897990D01*
X536208Y896422D01*
X538587Y895437D01*
X541139Y895101D01*
X543692Y895437D01*
X545775Y896300D01*
X568743Y873332D01*
Y856562D01*
X567473Y856437D01*
X567345Y857081D01*
X566727Y858005D01*
X566727Y858005D01*
X549804Y874928D01*
X550667Y877011D01*
X551003Y879564D01*
X550667Y882117D01*
X549681Y884496D01*
X548114Y886538D01*
X546071Y888106D01*
X543692Y889091D01*
X541139Y889427D01*
X538587Y889091D01*
X536208Y888106D01*
X534165Y886538D01*
X532598Y884496D01*
X531612Y882117D01*
X531276Y879564D01*
X531612Y877011D01*
X532598Y874632D01*
X534165Y872589D01*
X536208Y871022D01*
X538587Y870037D01*
X541139Y869701D01*
X543692Y870037D01*
X545775Y870900D01*
X561864Y854811D01*
Y813728D01*
X560690Y813242D01*
X549804Y824128D01*
X550667Y826211D01*
X551003Y828764D01*
X550667Y831317D01*
X549681Y833696D01*
X548114Y835739D01*
X546071Y837306D01*
X543692Y838291D01*
X541139Y838627D01*
X538587Y838291D01*
X536208Y837306D01*
X534165Y835739D01*
X532598Y833696D01*
X531612Y831317D01*
X531276Y828764D01*
X531612Y826211D01*
X532598Y823832D01*
X534165Y821789D01*
X536208Y820222D01*
X538587Y819237D01*
X541139Y818901D01*
X543692Y819237D01*
X545775Y820099D01*
X557800Y808075D01*
Y792392D01*
X556627Y791906D01*
X549804Y798728D01*
X550667Y800811D01*
X551003Y803364D01*
X550667Y805917D01*
X549681Y808296D01*
X548114Y810339D01*
X546071Y811906D01*
X543692Y812891D01*
X541139Y813227D01*
X538587Y812891D01*
X536208Y811906D01*
X534165Y810339D01*
X532598Y808296D01*
X531612Y805917D01*
X531276Y803364D01*
X531612Y800811D01*
X532598Y798432D01*
X534165Y796389D01*
X536208Y794822D01*
X538587Y793837D01*
X541139Y793501D01*
X543692Y793837D01*
X545775Y794699D01*
X553736Y786739D01*
Y620051D01*
X457560Y523876D01*
X456390Y524501D01*
X456446Y524783D01*
X456081Y526616D01*
X455043Y528170D01*
X455002Y528198D01*
Y540336D01*
X454785Y541426D01*
X454168Y542351D01*
X454168Y542351D01*
X452629Y543889D01*
X451705Y544507D01*
X450615Y544724D01*
X450615Y544723D01*
X442380D01*
X441290Y544507D01*
X440366Y543889D01*
X440366Y543889D01*
X437671Y541194D01*
X427580D01*
X290151Y678624D01*
Y732519D01*
X290151Y732520D01*
X289934Y733610D01*
X289317Y734534D01*
X289317Y734534D01*
X284531Y739319D01*
X283607Y739937D01*
X282517Y740153D01*
X282517Y740153D01*
X279386D01*
X279303Y741423D01*
X280949Y741640D01*
X282803Y742408D01*
X284395Y743629D01*
X285616Y745221D01*
X286384Y747075D01*
X286479Y747794D01*
X276420D01*
Y749064D01*
X275150D01*
Y756750D01*
X273880D01*
X271891Y756488D01*
X270037Y755720D01*
X268445Y754499D01*
X268277Y754279D01*
X267007Y754710D01*
Y770579D01*
X267418Y770785D01*
X268277Y770918D01*
X269170Y769754D01*
X270550Y768695D01*
X272156Y768030D01*
X273880Y767803D01*
X277221D01*
X385496Y659528D01*
X384965Y658836D01*
X383804Y656033D01*
X383498Y653709D01*
X383484Y653604D01*
X382203D01*
X382189Y653709D01*
X381848Y656298D01*
X380585Y659349D01*
X378575Y661968D01*
X375955Y663978D01*
X372905Y665242D01*
X370901Y665505D01*
Y653024D01*
Y640543D01*
X372905Y640807D01*
X375955Y642071D01*
X378575Y644081D01*
X380585Y646700D01*
X381848Y649751D01*
X382189Y652340D01*
X382203Y652445D01*
X383484D01*
X383498Y652340D01*
X383804Y650016D01*
X384965Y647213D01*
X386812Y644805D01*
X389219Y642958D01*
X392023Y641797D01*
X395031Y641401D01*
X398039Y641797D01*
X400843Y642958D01*
X400970Y643056D01*
X434930Y609097D01*
X434930Y609097D01*
X435854Y608479D01*
X436944Y608263D01*
X436971Y608268D01*
X495007D01*
X495367Y607729D01*
X496921Y606690D01*
X498755Y606326D01*
X500588Y606690D01*
X502143Y607729D01*
X503181Y609283D01*
X503546Y611117D01*
X503181Y612950D01*
X502143Y614505D01*
X500588Y615543D01*
X498755Y615908D01*
X496921Y615543D01*
X495367Y614505D01*
X495007Y613965D01*
X438119D01*
X404999Y647085D01*
X405097Y647213D01*
X406258Y650016D01*
X406564Y652340D01*
X406578Y652445D01*
X407859D01*
X407873Y652340D01*
X408214Y649751D01*
X409477Y646700D01*
X411487Y644081D01*
X414107Y642071D01*
X417158Y640807D01*
X419161Y640543D01*
Y653024D01*
Y665505D01*
X417158Y665242D01*
X414107Y663978D01*
X412103Y662441D01*
X411264Y663398D01*
X431604Y683738D01*
X432503Y685082D01*
X432818Y686668D01*
Y803910D01*
X442898D01*
Y833628D01*
X414450D01*
Y803910D01*
X424531D01*
Y688384D01*
X399707Y663561D01*
X398039Y664252D01*
X395031Y664648D01*
X392438Y664306D01*
X284987Y771757D01*
X285394Y772740D01*
X285621Y774464D01*
X285394Y776188D01*
X284729Y777794D01*
X283670Y779174D01*
X282291Y780233D01*
X280684Y780898D01*
X278960Y781125D01*
X273880D01*
X272156Y780898D01*
X270550Y780233D01*
X269170Y779174D01*
X268277Y778010D01*
X267418Y778143D01*
X267007Y778350D01*
Y786422D01*
X273799Y793214D01*
X273880Y793203D01*
X278960D01*
X280684Y793430D01*
X282291Y794095D01*
X283670Y795154D01*
X284729Y796534D01*
X285394Y798140D01*
X285621Y799864D01*
X285394Y801588D01*
X284729Y803195D01*
X283670Y804574D01*
X282291Y805633D01*
X280684Y806298D01*
X278960Y806525D01*
X273880D01*
X272156Y806298D01*
X270550Y805633D01*
X269170Y804574D01*
X268111Y803195D01*
X267446Y801588D01*
X267219Y799864D01*
X267446Y798140D01*
X268111Y796534D01*
X268524Y795996D01*
X262144Y789617D01*
X261527Y788692D01*
X261310Y787602D01*
X261310Y787602D01*
Y741923D01*
X261310Y741923D01*
X261527Y740833D01*
X262144Y739909D01*
X266762Y735290D01*
X266762Y735290D01*
X267686Y734673D01*
X268776Y734456D01*
X281337D01*
X284454Y731339D01*
Y729364D01*
X283183Y728747D01*
X282291Y729433D01*
X280684Y730098D01*
X278960Y730325D01*
X273880D01*
X272156Y730098D01*
X270550Y729433D01*
X269170Y728374D01*
X268111Y726994D01*
X267446Y725388D01*
X267219Y723664D01*
X267446Y721940D01*
X268111Y720333D01*
X269170Y718954D01*
X270550Y717895D01*
X272156Y717230D01*
X273571Y717044D01*
Y682579D01*
X273571Y682579D01*
X273788Y681488D01*
X274406Y680564D01*
X423900Y531070D01*
X423900Y531070D01*
X424824Y530452D01*
X425914Y530236D01*
X425914Y530236D01*
X442436D01*
X442797Y529697D01*
X444351Y528658D01*
X446184Y528293D01*
X446920Y528439D01*
X447683Y527297D01*
X447229Y526616D01*
X446864Y524783D01*
X447229Y522949D01*
X448267Y521395D01*
X449821Y520356D01*
X451655Y519992D01*
X451936Y520048D01*
X452562Y518877D01*
X427740Y494055D01*
X341427D01*
X341067Y494594D01*
X339513Y495633D01*
X337679Y495997D01*
X335846Y495633D01*
X334292Y494594D01*
X333253Y493040D01*
X332888Y491206D01*
X333253Y489373D01*
X334218Y487928D01*
X334092Y487397D01*
X333742Y486658D01*
X330084D01*
X329777Y487119D01*
X328222Y488157D01*
X326389Y488522D01*
X324555Y488157D01*
X323001Y487119D01*
X321963Y485564D01*
X321598Y483731D01*
X321963Y481898D01*
X323001Y480343D01*
X324555Y479305D01*
X326389Y478940D01*
X328222Y479305D01*
X329777Y480343D01*
X330189Y480961D01*
X332979D01*
X333577Y479841D01*
X333466Y479674D01*
X333101Y477840D01*
X333466Y476007D01*
X334504Y474453D01*
X336059Y473414D01*
X337892Y473049D01*
X339726Y473414D01*
X341280Y474453D01*
X341640Y474992D01*
X429148D01*
X429148Y474992D01*
X430238Y475209D01*
X431162Y475826D01*
X482793Y527457D01*
X483083Y527420D01*
X484097Y526010D01*
X484001Y525528D01*
X484366Y523694D01*
X485404Y522140D01*
X486959Y521102D01*
X488792Y520737D01*
X490626Y521102D01*
X492180Y522140D01*
X493218Y523694D01*
X493583Y525528D01*
X493457Y526164D01*
X531373Y564080D01*
X532077Y563940D01*
X533910Y564305D01*
X535465Y565343D01*
X536503Y566898D01*
X536868Y568731D01*
X536503Y570564D01*
X535465Y572119D01*
X533910Y573157D01*
X532077Y573522D01*
X530301Y573169D01*
X530220Y573223D01*
X529601Y574265D01*
X566727Y611391D01*
X566727Y611391D01*
X567345Y612315D01*
X567473Y612959D01*
X568743Y612834D01*
Y574835D01*
X433460Y439553D01*
X432119Y440008D01*
X431872Y441250D01*
X430833Y442804D01*
X429279Y443843D01*
X427446Y444207D01*
X425612Y443843D01*
X424058Y442804D01*
X423698Y442265D01*
X416001D01*
Y444842D01*
X407953D01*
Y433794D01*
X416001D01*
Y436568D01*
X423698D01*
X424058Y436029D01*
X425612Y434990D01*
X426854Y434743D01*
X427309Y433402D01*
X393857Y399950D01*
X393240Y399026D01*
X393023Y397936D01*
X393048Y397810D01*
Y340111D01*
X392509Y339751D01*
X391470Y338197D01*
X391106Y336363D01*
X391470Y334530D01*
X392509Y332976D01*
X394063Y331937D01*
X395897Y331572D01*
X397730Y331937D01*
X399284Y332976D01*
X400323Y334530D01*
X400688Y336363D01*
X400323Y338197D01*
X399284Y339751D01*
X398745Y340111D01*
Y396781D01*
X573606Y571641D01*
X573606Y571641D01*
X574223Y572565D01*
X574440Y573655D01*
X574440Y573656D01*
Y874512D01*
X574440Y874512D01*
X574223Y875602D01*
X573606Y876526D01*
X573606Y876526D01*
X549804Y900328D01*
X550667Y902411D01*
X551003Y904964D01*
X550667Y907517D01*
X549681Y909896D01*
X548114Y911938D01*
X546071Y913506D01*
X543692Y914491D01*
X541139Y914827D01*
D02*
G37*
G36*
X196410Y888764D02*
X187621D01*
X187716Y888045D01*
X188484Y886191D01*
X189705Y884599D01*
X191297Y883378D01*
X193151Y882610D01*
X195140Y882348D01*
X196410D01*
Y888764D01*
D02*
G37*
G36*
X207739D02*
X198950D01*
Y882348D01*
X200220D01*
X202209Y882610D01*
X204063Y883378D01*
X205655Y884599D01*
X206876Y886191D01*
X207644Y888045D01*
X207739Y888764D01*
D02*
G37*
G36*
X541139Y864027D02*
X538587Y863691D01*
X536208Y862706D01*
X534165Y861139D01*
X532598Y859096D01*
X531612Y856717D01*
X531276Y854164D01*
X531612Y851611D01*
X532598Y849232D01*
X534165Y847189D01*
X536208Y845622D01*
X538587Y844637D01*
X541139Y844301D01*
X543692Y844637D01*
X546071Y845622D01*
X548114Y847189D01*
X549681Y849232D01*
X550667Y851611D01*
X551003Y854164D01*
X550667Y856717D01*
X549681Y859096D01*
X548114Y861139D01*
X546071Y862706D01*
X543692Y863691D01*
X541139Y864027D01*
D02*
G37*
G36*
X514469Y864885D02*
X512921Y864681D01*
X510295Y863593D01*
X508040Y861863D01*
X506310Y859608D01*
X505222Y856982D01*
X505019Y855434D01*
X514469D01*
Y864885D01*
D02*
G37*
G36*
X517010Y864885D02*
Y855434D01*
X526460D01*
X526257Y856982D01*
X525169Y859608D01*
X523439Y861863D01*
X521184Y863593D01*
X518558Y864681D01*
X517010Y864885D01*
D02*
G37*
G36*
X278960Y972895D02*
X273880D01*
X272156Y972668D01*
X270550Y972003D01*
X269170Y970944D01*
X268111Y969565D01*
X267446Y967958D01*
X267219Y966234D01*
X267446Y964510D01*
X268111Y962904D01*
X269170Y961524D01*
X270550Y960465D01*
X272156Y959800D01*
X273880Y959573D01*
X278960D01*
X280684Y959800D01*
X282291Y960465D01*
X283670Y961524D01*
X284729Y962904D01*
X285394Y964510D01*
X285621Y966234D01*
X285394Y967958D01*
X284729Y969565D01*
X283670Y970944D01*
X282291Y972003D01*
X280684Y972668D01*
X278960Y972895D01*
D02*
G37*
G36*
X96705Y982215D02*
X94089Y981870D01*
X91650Y980860D01*
X89556Y979253D01*
X87949Y977159D01*
X86939Y974721D01*
X86595Y972104D01*
X86939Y969487D01*
X87949Y967049D01*
X89556Y964955D01*
X91650Y963348D01*
X94089Y962338D01*
X96705Y961993D01*
X99322Y962338D01*
X101761Y963348D01*
X103855Y964955D01*
X105461Y967049D01*
X106471Y969487D01*
X106816Y972104D01*
X106471Y974721D01*
X105461Y977159D01*
X103855Y979253D01*
X101761Y980860D01*
X99322Y981870D01*
X96705Y982215D01*
D02*
G37*
G36*
X126705D02*
X124089Y981870D01*
X121650Y980860D01*
X119556Y979253D01*
X117949Y977159D01*
X116939Y974721D01*
X116595Y972104D01*
X116939Y969487D01*
X117949Y967049D01*
X119556Y964955D01*
X121650Y963348D01*
X124089Y962338D01*
X126705Y961993D01*
X129322Y962338D01*
X131761Y963348D01*
X133855Y964955D01*
X135461Y967049D01*
X136471Y969487D01*
X136816Y972104D01*
X136471Y974721D01*
X135461Y977159D01*
X133855Y979253D01*
X131761Y980860D01*
X129322Y981870D01*
X126705Y982215D01*
D02*
G37*
G36*
X155890Y956161D02*
X150620D01*
Y950891D01*
X155890D01*
Y956161D01*
D02*
G37*
G36*
X148080Y963971D02*
X142810D01*
Y958701D01*
X148080D01*
Y963971D01*
D02*
G37*
G36*
X155890D02*
X150620D01*
Y958701D01*
X155890D01*
Y963971D01*
D02*
G37*
G36*
X231541Y1062450D02*
X229708Y1062086D01*
X228153Y1061047D01*
X227115Y1059493D01*
X226750Y1057659D01*
X227115Y1055826D01*
X228148Y1054280D01*
Y1018227D01*
X224420D01*
Y1007559D01*
X240168D01*
Y1018227D01*
X235140D01*
Y1054587D01*
X235968Y1055826D01*
X236332Y1057659D01*
X235968Y1059493D01*
X234929Y1061047D01*
X233375Y1062086D01*
X231541Y1062450D01*
D02*
G37*
G36*
X438640Y1044705D02*
X435640D01*
X433937Y1044481D01*
X432350Y1043823D01*
X430987Y1042778D01*
X429941Y1041415D01*
X429284Y1039828D01*
X429059Y1038125D01*
X429284Y1036422D01*
X429941Y1034835D01*
X430987Y1033472D01*
X432350Y1032426D01*
X433937Y1031769D01*
X435640Y1031544D01*
X438640D01*
X440343Y1031769D01*
X441930Y1032426D01*
X443293Y1033472D01*
X444338Y1034835D01*
X444996Y1036422D01*
X445220Y1038125D01*
X444996Y1039828D01*
X444338Y1041415D01*
X443293Y1042778D01*
X441930Y1043823D01*
X440343Y1044481D01*
X438640Y1044705D01*
D02*
G37*
G36*
X377140Y1074955D02*
X375437Y1074731D01*
X373850Y1074073D01*
X372487Y1073028D01*
X371441Y1071665D01*
X370784Y1070078D01*
X370560Y1068375D01*
Y1061875D01*
X370784Y1060172D01*
X371441Y1058585D01*
X372487Y1057222D01*
X373850Y1056176D01*
X375437Y1055519D01*
X377140Y1055294D01*
X378843Y1055519D01*
X380430Y1056176D01*
X381793Y1057222D01*
X382838Y1058585D01*
X383496Y1060172D01*
X383720Y1061875D01*
Y1068375D01*
X383496Y1070078D01*
X382838Y1071665D01*
X381793Y1073028D01*
X380430Y1074073D01*
X378843Y1074731D01*
X377140Y1074955D01*
D02*
G37*
G36*
X447140D02*
X445437Y1074731D01*
X443850Y1074073D01*
X442487Y1073028D01*
X441441Y1071665D01*
X440784Y1070078D01*
X440560Y1068375D01*
Y1061875D01*
X440784Y1060172D01*
X441441Y1058585D01*
X442487Y1057222D01*
X443850Y1056176D01*
X445437Y1055519D01*
X447140Y1055294D01*
X448843Y1055519D01*
X450430Y1056176D01*
X451793Y1057222D01*
X452838Y1058585D01*
X453496Y1060172D01*
X453720Y1061875D01*
Y1068375D01*
X453496Y1070078D01*
X452838Y1071665D01*
X451793Y1073028D01*
X450430Y1074073D01*
X448843Y1074731D01*
X447140Y1074955D01*
D02*
G37*
G36*
X67112Y1080036D02*
X62687Y1079688D01*
X58372Y1078652D01*
X54272Y1076954D01*
X50488Y1074635D01*
X47114Y1071753D01*
X44232Y1068378D01*
X41913Y1064595D01*
X40215Y1060495D01*
X39179Y1056179D01*
X38830Y1051755D01*
X39179Y1047331D01*
X40215Y1043016D01*
X41913Y1038916D01*
X44232Y1035132D01*
X47114Y1031757D01*
X50488Y1028875D01*
X54272Y1026556D01*
X58372Y1024858D01*
X62687Y1023822D01*
X67112Y1023474D01*
X71536Y1023822D01*
X75851Y1024858D01*
X79951Y1026556D01*
X83735Y1028875D01*
X87109Y1031757D01*
X89991Y1035132D01*
X92310Y1038916D01*
X94009Y1043016D01*
X95044Y1047331D01*
X95393Y1051755D01*
X95044Y1056179D01*
X94009Y1060495D01*
X92310Y1064595D01*
X89991Y1068378D01*
X87109Y1071753D01*
X83735Y1074635D01*
X79951Y1076954D01*
X75851Y1078652D01*
X71536Y1079688D01*
X67112Y1080036D01*
D02*
G37*
G36*
X545047D02*
X540622Y1079688D01*
X536307Y1078652D01*
X532207Y1076954D01*
X528423Y1074635D01*
X525049Y1071753D01*
X522167Y1068378D01*
X519848Y1064595D01*
X518150Y1060495D01*
X517114Y1056179D01*
X516765Y1051755D01*
X517114Y1047331D01*
X518150Y1043016D01*
X519848Y1038916D01*
X522167Y1035132D01*
X525049Y1031757D01*
X528423Y1028875D01*
X532207Y1026556D01*
X536307Y1024858D01*
X540622Y1023822D01*
X545047Y1023474D01*
X549471Y1023822D01*
X553786Y1024858D01*
X557886Y1026556D01*
X561670Y1028875D01*
X565044Y1031757D01*
X567927Y1035132D01*
X570245Y1038916D01*
X571944Y1043016D01*
X572980Y1047331D01*
X573328Y1051755D01*
X572980Y1056179D01*
X571944Y1060495D01*
X570245Y1064595D01*
X567927Y1068378D01*
X565044Y1071753D01*
X561670Y1074635D01*
X557886Y1076954D01*
X553786Y1078652D01*
X549471Y1079688D01*
X545047Y1080036D01*
D02*
G37*
G36*
X388640Y1044705D02*
X385640D01*
X383937Y1044481D01*
X382350Y1043823D01*
X380987Y1042778D01*
X379941Y1041415D01*
X379284Y1039828D01*
X379059Y1038125D01*
X379284Y1036422D01*
X379941Y1034835D01*
X380987Y1033472D01*
X382350Y1032426D01*
X383937Y1031769D01*
X385640Y1031544D01*
X388640D01*
X390343Y1031769D01*
X391930Y1032426D01*
X393293Y1033472D01*
X394338Y1034835D01*
X394996Y1036422D01*
X395220Y1038125D01*
X394996Y1039828D01*
X394338Y1041415D01*
X393293Y1042778D01*
X391930Y1043823D01*
X390343Y1044481D01*
X388640Y1044705D01*
D02*
G37*
G36*
X95435Y940834D02*
X85737D01*
X85950Y939222D01*
X87062Y936536D01*
X88832Y934230D01*
X91138Y932461D01*
X93823Y931348D01*
X95435Y931136D01*
Y940834D01*
D02*
G37*
G36*
X107673D02*
X97975D01*
Y931136D01*
X99587Y931348D01*
X102273Y932461D01*
X104579Y934230D01*
X106349Y936536D01*
X107461Y939222D01*
X107673Y940834D01*
D02*
G37*
G36*
X126705Y952215D02*
X124089Y951870D01*
X121650Y950860D01*
X119556Y949253D01*
X117949Y947159D01*
X116939Y944721D01*
X116595Y942104D01*
X116939Y939487D01*
X117949Y937049D01*
X119556Y934955D01*
X121650Y933348D01*
X124089Y932338D01*
X126705Y931993D01*
X129322Y932338D01*
X131351Y933178D01*
X131762Y932768D01*
X132896Y932010D01*
X134234Y931744D01*
X143826D01*
Y929907D01*
X154874D01*
Y931744D01*
X172669D01*
Y931401D01*
X183717D01*
Y931744D01*
X192086D01*
X193424Y932010D01*
X194559Y932768D01*
X195963Y934173D01*
X200220D01*
X201944Y934400D01*
X203551Y935065D01*
X204930Y936124D01*
X205989Y937504D01*
X206654Y939110D01*
X206881Y940834D01*
X206654Y942558D01*
X205989Y944165D01*
X204930Y945544D01*
X203551Y946603D01*
X201944Y947268D01*
X200220Y947495D01*
X195140D01*
X193416Y947268D01*
X191810Y946603D01*
X190430Y945544D01*
X189371Y944165D01*
X188706Y942558D01*
X188479Y940834D01*
X188588Y940006D01*
X187567Y938736D01*
X183717D01*
Y939449D01*
X172669D01*
Y938736D01*
X154874D01*
Y940955D01*
X143826D01*
Y938736D01*
X137393D01*
X136540Y940006D01*
X136816Y942104D01*
X136471Y944721D01*
X135461Y947159D01*
X133855Y949253D01*
X131761Y950860D01*
X129322Y951870D01*
X126705Y952215D01*
D02*
G37*
G36*
X541139Y940227D02*
X538587Y939891D01*
X536208Y938906D01*
X534165Y937338D01*
X532598Y935296D01*
X531612Y932917D01*
X531276Y930364D01*
X531612Y927811D01*
X532475Y925728D01*
X526621Y919874D01*
X519287D01*
X519035Y921144D01*
X520671Y921822D01*
X522714Y923390D01*
X524281Y925432D01*
X525267Y927811D01*
X525603Y930364D01*
X525267Y932917D01*
X524281Y935296D01*
X522714Y937338D01*
X520671Y938906D01*
X518292Y939891D01*
X515740Y940227D01*
X513187Y939891D01*
X510808Y938906D01*
X508765Y937338D01*
X507197Y935296D01*
X506212Y932917D01*
X505876Y930364D01*
X506212Y927811D01*
X507197Y925432D01*
X508765Y923390D01*
X510808Y921822D01*
X512444Y921144D01*
X512192Y919874D01*
X509556D01*
X508466Y919657D01*
X507542Y919040D01*
X507542Y919040D01*
X502323Y913821D01*
X501705Y912897D01*
X501488Y911807D01*
X501488Y911806D01*
Y869690D01*
X455300Y823502D01*
X454664Y823628D01*
X452831Y823263D01*
X451276Y822225D01*
X450238Y820670D01*
X449873Y818837D01*
X450238Y817004D01*
X451276Y815449D01*
X452831Y814411D01*
X454664Y814046D01*
X456497Y814411D01*
X458052Y815449D01*
X459090Y817004D01*
X459455Y818837D01*
X459328Y819473D01*
X506351Y866496D01*
X506352Y866496D01*
X506969Y867420D01*
X507186Y868510D01*
Y872561D01*
X508456Y872992D01*
X508765Y872589D01*
X510808Y871022D01*
X513187Y870037D01*
X515740Y869701D01*
X518292Y870037D01*
X520671Y871022D01*
X522714Y872589D01*
X524281Y874632D01*
X525267Y877011D01*
X525603Y879564D01*
X525267Y882117D01*
X524281Y884496D01*
X522714Y886538D01*
X520671Y888106D01*
X518292Y889091D01*
X515740Y889427D01*
X513187Y889091D01*
X510808Y888106D01*
X508765Y886538D01*
X508456Y886136D01*
X507186Y886567D01*
Y897961D01*
X508456Y898392D01*
X508765Y897990D01*
X510808Y896422D01*
X513187Y895437D01*
X515740Y895101D01*
X518292Y895437D01*
X520671Y896422D01*
X522714Y897990D01*
X524281Y900032D01*
X525267Y902411D01*
X525603Y904964D01*
X525267Y907517D01*
X524281Y909896D01*
X522714Y911938D01*
X521452Y912907D01*
X521883Y914177D01*
X527801D01*
X527801Y914177D01*
X528891Y914394D01*
X529815Y915011D01*
X536504Y921700D01*
X538587Y920837D01*
X541139Y920501D01*
X543692Y920837D01*
X546071Y921822D01*
X548114Y923390D01*
X549681Y925432D01*
X550667Y927811D01*
X551003Y930364D01*
X550667Y932917D01*
X549681Y935296D01*
X548114Y937338D01*
X546071Y938906D01*
X543692Y939891D01*
X541139Y940227D01*
D02*
G37*
G36*
X53505Y961220D02*
X49776Y960853D01*
X46190Y959765D01*
X42885Y957998D01*
X39988Y955621D01*
X37611Y952724D01*
X35845Y949419D01*
X34757Y945833D01*
X34389Y942104D01*
X34757Y938375D01*
X35845Y934789D01*
X37611Y931484D01*
X39988Y928587D01*
X42885Y926210D01*
X46190Y924443D01*
X49776Y923355D01*
X53505Y922988D01*
X57235Y923355D01*
X60821Y924443D01*
X64126Y926210D01*
X67023Y928587D01*
X69400Y931484D01*
X71166Y934789D01*
X72254Y938375D01*
X72621Y942104D01*
X72254Y945833D01*
X71166Y949419D01*
X69400Y952724D01*
X67023Y955621D01*
X64126Y957998D01*
X60821Y959765D01*
X57235Y960853D01*
X53505Y961220D01*
D02*
G37*
G36*
X154874Y925402D02*
X143826D01*
Y923736D01*
X135506D01*
X135506Y923736D01*
X134168Y923470D01*
X133034Y922712D01*
X131351Y921030D01*
X129322Y921870D01*
X126705Y922215D01*
X124089Y921870D01*
X121650Y920860D01*
X119556Y919253D01*
X117949Y917159D01*
X116939Y914721D01*
X116595Y912104D01*
X116939Y909487D01*
X117949Y907049D01*
X119556Y904955D01*
X121650Y903348D01*
X124089Y902338D01*
X126705Y901993D01*
X129322Y902338D01*
X131761Y903348D01*
X133855Y904955D01*
X135461Y907049D01*
X136471Y909487D01*
X136816Y912104D01*
X136471Y914721D01*
X136020Y915810D01*
X136954Y916744D01*
X143826D01*
Y914353D01*
X154874D01*
Y916744D01*
X172669D01*
Y916401D01*
X183717D01*
Y916744D01*
X187688D01*
X188526Y915789D01*
X188479Y915434D01*
X188706Y913710D01*
X189371Y912104D01*
X190430Y910724D01*
X191810Y909665D01*
X193416Y909000D01*
X195140Y908773D01*
X200220D01*
X201944Y909000D01*
X203551Y909665D01*
X204930Y910724D01*
X205989Y912104D01*
X206654Y913710D01*
X206881Y915434D01*
X206654Y917158D01*
X205989Y918764D01*
X204930Y920144D01*
X203551Y921203D01*
X201944Y921868D01*
X200220Y922095D01*
X195963D01*
X195346Y922712D01*
X194212Y923470D01*
X192874Y923736D01*
X183717D01*
Y924449D01*
X172669D01*
Y923736D01*
X154874D01*
Y925402D01*
D02*
G37*
G36*
X246518Y1004257D02*
X218070D01*
Y974539D01*
X236855D01*
X267853Y943541D01*
X267446Y942558D01*
X267219Y940834D01*
X267446Y939110D01*
X268111Y937504D01*
X269170Y936124D01*
X270550Y935065D01*
X272156Y934400D01*
X273880Y934173D01*
X278960D01*
X280684Y934400D01*
X282291Y935065D01*
X283670Y936124D01*
X284729Y937504D01*
X285394Y939110D01*
X285621Y940834D01*
X285394Y942558D01*
X284729Y944165D01*
X283670Y945544D01*
X282291Y946603D01*
X280684Y947268D01*
X278960Y947495D01*
X275619D01*
X246518Y976596D01*
Y1004257D01*
D02*
G37*
G36*
X515740Y965627D02*
X513187Y965291D01*
X510808Y964306D01*
X508765Y962738D01*
X507197Y960696D01*
X506212Y958317D01*
X505876Y955764D01*
X506212Y953211D01*
X507197Y950832D01*
X508765Y948790D01*
X510808Y947222D01*
X513187Y946237D01*
X515740Y945901D01*
X518292Y946237D01*
X520671Y947222D01*
X522714Y948790D01*
X524281Y950832D01*
X525267Y953211D01*
X525603Y955764D01*
X525267Y958317D01*
X524281Y960696D01*
X522714Y962738D01*
X520671Y964306D01*
X518292Y965291D01*
X515740Y965627D01*
D02*
G37*
G36*
X523208Y978486D02*
X501502D01*
X499669Y978122D01*
X498114Y977083D01*
X468396Y947365D01*
X467358Y945811D01*
X466993Y943977D01*
Y887358D01*
X427233Y847598D01*
X420800D01*
Y836930D01*
X436548D01*
Y843362D01*
X475172Y881986D01*
X476211Y883540D01*
X476575Y885374D01*
Y941993D01*
X503487Y968904D01*
X521223D01*
X531670Y958457D01*
X531612Y958317D01*
X531276Y955764D01*
X531612Y953211D01*
X532598Y950832D01*
X534165Y948790D01*
X536208Y947222D01*
X538587Y946237D01*
X541139Y945901D01*
X543692Y946237D01*
X546071Y947222D01*
X548114Y948790D01*
X549681Y950832D01*
X550667Y953211D01*
X551003Y955764D01*
X550667Y958317D01*
X549681Y960696D01*
X548114Y962738D01*
X546071Y964306D01*
X543692Y965291D01*
X541139Y965627D01*
X538587Y965291D01*
X538446Y965233D01*
X526596Y977083D01*
X525042Y978122D01*
X523208Y978486D01*
D02*
G37*
G36*
X148080Y956161D02*
X142810D01*
Y950891D01*
X148080D01*
Y956161D01*
D02*
G37*
G36*
X425065Y944540D02*
X423231Y944176D01*
X421677Y943137D01*
X420638Y941583D01*
X420273Y939749D01*
X420400Y939113D01*
X412543Y931257D01*
X373487D01*
X372397Y931040D01*
X371473Y930423D01*
X370855Y929498D01*
X370639Y928408D01*
Y921860D01*
X370100Y921499D01*
X369061Y919945D01*
X368696Y918112D01*
X369061Y916278D01*
X370100Y914724D01*
X371654Y913685D01*
X373487Y913321D01*
X375321Y913685D01*
X376875Y914724D01*
X377914Y916278D01*
X378278Y918112D01*
X377914Y919945D01*
X376875Y921499D01*
X376336Y921860D01*
Y925559D01*
X413723D01*
X413723Y925559D01*
X414813Y925776D01*
X415738Y926394D01*
X424429Y935085D01*
X425065Y934958D01*
X426898Y935323D01*
X428452Y936362D01*
X429491Y937916D01*
X429855Y939749D01*
X429491Y941583D01*
X428452Y943137D01*
X426898Y944176D01*
X425065Y944540D01*
D02*
G37*
G36*
X95435Y953072D02*
X93823Y952860D01*
X91138Y951747D01*
X88832Y949978D01*
X87062Y947672D01*
X85950Y944986D01*
X85737Y943374D01*
X95435D01*
Y953072D01*
D02*
G37*
G36*
X97975Y953072D02*
Y943374D01*
X107674D01*
X107461Y944986D01*
X106349Y947672D01*
X104579Y949978D01*
X102273Y951747D01*
X99587Y952860D01*
X97975Y953072D01*
D02*
G37*
G36*
X207739Y722394D02*
X198950D01*
Y715978D01*
X200220D01*
X202209Y716240D01*
X204063Y717008D01*
X205655Y718229D01*
X206876Y719821D01*
X207644Y721675D01*
X207739Y722394D01*
D02*
G37*
G36*
X515740Y737027D02*
X513187Y736691D01*
X510808Y735706D01*
X508765Y734138D01*
X507197Y732096D01*
X506212Y729717D01*
X505876Y727164D01*
X506212Y724611D01*
X507197Y722232D01*
X508765Y720190D01*
X510808Y718622D01*
X513187Y717637D01*
X515740Y717301D01*
X518292Y717637D01*
X520671Y718622D01*
X522714Y720190D01*
X524281Y722232D01*
X525267Y724611D01*
X525603Y727164D01*
X525267Y729717D01*
X524281Y732096D01*
X522714Y734138D01*
X520671Y735706D01*
X518292Y736691D01*
X515740Y737027D01*
D02*
G37*
G36*
X541139D02*
X538587Y736691D01*
X536208Y735706D01*
X534165Y734138D01*
X532598Y732096D01*
X531612Y729717D01*
X531276Y727164D01*
X531612Y724611D01*
X532598Y722232D01*
X534165Y720190D01*
X536208Y718622D01*
X538587Y717637D01*
X541139Y717301D01*
X543692Y717637D01*
X546071Y718622D01*
X548114Y720190D01*
X549681Y722232D01*
X550667Y724611D01*
X551003Y727164D01*
X550667Y729717D01*
X549681Y732096D01*
X548114Y734138D01*
X546071Y735706D01*
X543692Y736691D01*
X541139Y737027D01*
D02*
G37*
G36*
X185568Y660883D02*
X180298D01*
Y655613D01*
X185568D01*
Y660883D01*
D02*
G37*
G36*
Y668693D02*
X180298D01*
Y663423D01*
X185568D01*
Y668693D01*
D02*
G37*
G36*
X196410Y722394D02*
X187621D01*
X187716Y721675D01*
X188484Y719821D01*
X189705Y718229D01*
X191297Y717008D01*
X193151Y716240D01*
X195140Y715978D01*
X196410D01*
Y722394D01*
D02*
G37*
G36*
Y731350D02*
X195140D01*
X193151Y731088D01*
X191297Y730320D01*
X189705Y729099D01*
X188484Y727507D01*
X187716Y725653D01*
X187621Y724934D01*
X196410D01*
Y731350D01*
D02*
G37*
G36*
X148080Y738402D02*
X142810D01*
Y733132D01*
X148080D01*
Y738402D01*
D02*
G37*
G36*
X155890D02*
X150620D01*
Y733132D01*
X155890D01*
Y738402D01*
D02*
G37*
G36*
X365628Y770289D02*
X353147D01*
X340666D01*
X340930Y768285D01*
X342194Y765235D01*
X344204Y762615D01*
X346823Y760605D01*
X349874Y759342D01*
X352463Y759001D01*
X352568Y758987D01*
Y757706D01*
X352463Y757692D01*
X350139Y757386D01*
X347336Y756225D01*
X344928Y754378D01*
X343081Y751971D01*
X341920Y749167D01*
X341524Y746159D01*
X341920Y743151D01*
X343081Y740347D01*
X344928Y737940D01*
X347336Y736093D01*
X350139Y734932D01*
X353147Y734536D01*
X356156Y734932D01*
X358959Y736093D01*
X361366Y737940D01*
X363214Y740347D01*
X364375Y743151D01*
X364771Y746159D01*
X364375Y749167D01*
X363214Y751971D01*
X361366Y754378D01*
X358959Y756225D01*
X356156Y757386D01*
X353832Y757692D01*
X353727Y757706D01*
Y758987D01*
X353832Y759001D01*
X356421Y759342D01*
X359471Y760605D01*
X362091Y762615D01*
X364101Y765235D01*
X365364Y768285D01*
X365628Y770289D01*
D02*
G37*
G36*
X200220Y731350D02*
X198950D01*
Y724934D01*
X207739D01*
X207644Y725653D01*
X206876Y727507D01*
X205655Y729099D01*
X204063Y730320D01*
X202209Y731088D01*
X200220Y731350D01*
D02*
G37*
G36*
X148080Y730592D02*
X142810D01*
Y725322D01*
X148080D01*
Y730592D01*
D02*
G37*
G36*
X155890D02*
X150620D01*
Y725322D01*
X155890D01*
Y730592D01*
D02*
G37*
G36*
X248973Y630292D02*
X243703D01*
Y626522D01*
X248973D01*
Y630292D01*
D02*
G37*
G36*
X92485Y638493D02*
X82787D01*
X83000Y636881D01*
X84112Y634196D01*
X85882Y631889D01*
X88188Y630120D01*
X90873Y629007D01*
X92485Y628795D01*
Y638493D01*
D02*
G37*
G36*
X104723D02*
X95025D01*
Y628795D01*
X96637Y629007D01*
X99323Y630120D01*
X101629Y631889D01*
X103399Y634196D01*
X104511Y636881D01*
X104723Y638493D01*
D02*
G37*
G36*
X241163Y623982D02*
X235893D01*
Y620212D01*
X241163D01*
Y623982D01*
D02*
G37*
G36*
X248973D02*
X243703D01*
Y620212D01*
X248973D01*
Y623982D01*
D02*
G37*
G36*
X241163Y630292D02*
X235893D01*
Y626522D01*
X241163D01*
Y630292D01*
D02*
G37*
G36*
X223182Y645690D02*
X215134D01*
Y634642D01*
X223182D01*
Y637317D01*
X236909D01*
Y636228D01*
X247957D01*
Y637403D01*
X250936D01*
X251320Y636829D01*
X252874Y635790D01*
X254707Y635425D01*
X256541Y635790D01*
X258095Y636829D01*
X259134Y638383D01*
X259498Y640217D01*
X259134Y642050D01*
X258095Y643604D01*
X256541Y644643D01*
X254707Y645007D01*
X252874Y644643D01*
X251320Y643604D01*
X250983Y643101D01*
X247957D01*
Y644276D01*
X236909D01*
Y643015D01*
X223182D01*
Y645690D01*
D02*
G37*
G36*
X368361Y665505D02*
X366357Y665242D01*
X363307Y663978D01*
X360687Y661968D01*
X358677Y659349D01*
X357414Y656298D01*
X357073Y653709D01*
X357059Y653604D01*
X355778D01*
X355764Y653709D01*
X355458Y656033D01*
X354297Y658836D01*
X352450Y661243D01*
X350043Y663091D01*
X347239Y664252D01*
X344231Y664648D01*
X341223Y664252D01*
X338419Y663091D01*
X336012Y661243D01*
X334165Y658836D01*
X333004Y656033D01*
X332608Y653024D01*
X333004Y650016D01*
X334165Y647213D01*
X336012Y644805D01*
X338419Y642958D01*
X341223Y641797D01*
X344231Y641401D01*
X347239Y641797D01*
X350043Y642958D01*
X352450Y644805D01*
X354297Y647213D01*
X355458Y650016D01*
X355764Y652340D01*
X355778Y652445D01*
X357059D01*
X357073Y652340D01*
X357414Y649751D01*
X358677Y646700D01*
X360687Y644081D01*
X363307Y642071D01*
X366357Y640807D01*
X368361Y640543D01*
Y653024D01*
Y665505D01*
D02*
G37*
G36*
X421701D02*
Y654294D01*
X432912D01*
X432648Y656298D01*
X431385Y659349D01*
X429375Y661968D01*
X426755Y663978D01*
X423705Y665242D01*
X421701Y665505D01*
D02*
G37*
G36*
X177758Y660883D02*
X172488D01*
Y655613D01*
X177758D01*
Y660883D01*
D02*
G37*
G36*
X432912Y651754D02*
X421701D01*
Y640543D01*
X423705Y640807D01*
X426755Y642071D01*
X429375Y644081D01*
X431385Y646700D01*
X432648Y649751D01*
X432912Y651754D01*
D02*
G37*
G36*
X92485Y650731D02*
X90873Y650519D01*
X88188Y649407D01*
X85882Y647637D01*
X84112Y645331D01*
X83000Y642645D01*
X82787Y641033D01*
X92485D01*
Y650731D01*
D02*
G37*
G36*
X95025D02*
Y641033D01*
X104723D01*
X104511Y642645D01*
X103399Y645331D01*
X101629Y647637D01*
X99323Y649407D01*
X96637Y650519D01*
X95025Y650731D01*
D02*
G37*
G36*
X97975Y787972D02*
Y778274D01*
X107674D01*
X107461Y779886D01*
X106349Y782572D01*
X104579Y784878D01*
X102273Y786647D01*
X99587Y787760D01*
X97975Y787972D01*
D02*
G37*
G36*
X148080Y790011D02*
X142810D01*
Y784741D01*
X148080D01*
Y790011D01*
D02*
G37*
G36*
X155890D02*
X150620D01*
Y784741D01*
X155890D01*
Y790011D01*
D02*
G37*
G36*
X526460Y776694D02*
X517010D01*
Y767243D01*
X518558Y767447D01*
X521184Y768535D01*
X523439Y770265D01*
X525169Y772520D01*
X526257Y775146D01*
X526460Y776694D01*
D02*
G37*
G36*
X353147Y808582D02*
X350139Y808186D01*
X347336Y807025D01*
X344928Y805178D01*
X343081Y802771D01*
X341920Y799967D01*
X341524Y796959D01*
X341920Y793951D01*
X343081Y791147D01*
X344928Y788740D01*
X347336Y786893D01*
X350139Y785732D01*
X352463Y785426D01*
X352568Y785412D01*
Y784131D01*
X352463Y784117D01*
X349874Y783776D01*
X346823Y782513D01*
X344204Y780503D01*
X342194Y777883D01*
X340930Y774833D01*
X340666Y772829D01*
X353147D01*
X365628D01*
X365364Y774833D01*
X364101Y777883D01*
X362091Y780503D01*
X359471Y782513D01*
X356421Y783776D01*
X353832Y784117D01*
X353727Y784131D01*
Y785412D01*
X353832Y785426D01*
X356156Y785732D01*
X358959Y786893D01*
X361366Y788740D01*
X363214Y791147D01*
X364375Y793951D01*
X364771Y796959D01*
X364375Y799967D01*
X363214Y802771D01*
X361366Y805178D01*
X358959Y807025D01*
X356156Y808186D01*
X353147Y808582D01*
D02*
G37*
G36*
X95435Y787972D02*
X93823Y787760D01*
X91138Y786647D01*
X88832Y784878D01*
X87062Y782572D01*
X85950Y779886D01*
X85737Y778274D01*
X95435D01*
Y787972D01*
D02*
G37*
G36*
X148080Y797821D02*
X142810D01*
Y792551D01*
X148080D01*
Y797821D01*
D02*
G37*
G36*
X126705Y817114D02*
X124089Y816770D01*
X121650Y815760D01*
X119556Y814153D01*
X117949Y812059D01*
X116939Y809621D01*
X116595Y807004D01*
X116939Y804387D01*
X117949Y801949D01*
X119556Y799855D01*
X121650Y798248D01*
X124089Y797238D01*
X126705Y796893D01*
X129322Y797238D01*
X131761Y798248D01*
X133855Y799855D01*
X135461Y801949D01*
X136471Y804387D01*
X136816Y807004D01*
X136471Y809621D01*
X135461Y812059D01*
X133855Y814153D01*
X131761Y815760D01*
X129322Y816770D01*
X126705Y817114D01*
D02*
G37*
G36*
X514469Y814085D02*
X512921Y813881D01*
X510295Y812793D01*
X508040Y811063D01*
X506310Y808808D01*
X505222Y806182D01*
X505019Y804634D01*
X514469D01*
Y814085D01*
D02*
G37*
G36*
X517010Y814085D02*
Y804634D01*
X526460D01*
X526257Y806182D01*
X525169Y808808D01*
X523439Y811063D01*
X521184Y812793D01*
X518558Y813881D01*
X517010Y814085D01*
D02*
G37*
G36*
X155890Y797821D02*
X150620D01*
Y792551D01*
X155890D01*
Y797821D01*
D02*
G37*
G36*
X526460Y802094D02*
X515740D01*
X505019D01*
X505222Y800546D01*
X506310Y797920D01*
X508040Y795665D01*
X510033Y794136D01*
X509750Y792866D01*
X467132D01*
X466772Y793405D01*
X465217Y794444D01*
X463384Y794808D01*
X461550Y794444D01*
X459996Y793405D01*
X458958Y791851D01*
X458593Y790017D01*
X458958Y788184D01*
X459996Y786630D01*
X461550Y785591D01*
X463384Y785226D01*
X465217Y785591D01*
X466772Y786630D01*
X467132Y787169D01*
X508027D01*
X508435Y785966D01*
X508040Y785663D01*
X506310Y783408D01*
X505222Y780782D01*
X505019Y779234D01*
X515740D01*
X526460D01*
X526257Y780782D01*
X525169Y783408D01*
X523439Y785663D01*
X523044Y785966D01*
X523452Y787169D01*
X527906D01*
X532475Y782600D01*
X531612Y780517D01*
X531276Y777964D01*
X531612Y775411D01*
X532598Y773032D01*
X534165Y770990D01*
X536208Y769422D01*
X538587Y768437D01*
X541139Y768101D01*
X543692Y768437D01*
X546071Y769422D01*
X548114Y770990D01*
X549681Y773032D01*
X550667Y775411D01*
X551003Y777964D01*
X550667Y780517D01*
X549681Y782896D01*
X548114Y784939D01*
X546071Y786506D01*
X543692Y787491D01*
X541139Y787827D01*
X538587Y787491D01*
X536504Y786628D01*
X530936Y792196D01*
X530012Y792814D01*
X528921Y793031D01*
X528093Y792866D01*
X521729D01*
X521446Y794136D01*
X523439Y795665D01*
X525169Y797920D01*
X526257Y800546D01*
X526460Y802094D01*
D02*
G37*
G36*
X96705Y817114D02*
X94089Y816770D01*
X91650Y815760D01*
X89556Y814153D01*
X87949Y812059D01*
X86939Y809621D01*
X86595Y807004D01*
X86939Y804387D01*
X87949Y801949D01*
X89556Y799855D01*
X91650Y798248D01*
X94089Y797238D01*
X96705Y796893D01*
X99322Y797238D01*
X101761Y798248D01*
X103855Y799855D01*
X105461Y801949D01*
X106471Y804387D01*
X106816Y807004D01*
X106471Y809621D01*
X105461Y812059D01*
X103855Y814153D01*
X101761Y815760D01*
X99322Y816770D01*
X96705Y817114D01*
D02*
G37*
G36*
X541139Y762427D02*
X538587Y762091D01*
X536208Y761106D01*
X534165Y759538D01*
X532598Y757496D01*
X531612Y755117D01*
X531276Y752564D01*
X531612Y750011D01*
X532598Y747632D01*
X534165Y745590D01*
X536208Y744022D01*
X538587Y743037D01*
X541139Y742701D01*
X543692Y743037D01*
X546071Y744022D01*
X548114Y745590D01*
X549681Y747632D01*
X550667Y750011D01*
X551003Y752564D01*
X550667Y755117D01*
X549681Y757496D01*
X548114Y759538D01*
X546071Y761106D01*
X543692Y762091D01*
X541139Y762427D01*
D02*
G37*
G36*
X278960Y756750D02*
X277690D01*
Y750334D01*
X286479D01*
X286384Y751053D01*
X285616Y752907D01*
X284395Y754499D01*
X282803Y755720D01*
X280949Y756488D01*
X278960Y756750D01*
D02*
G37*
G36*
X514469Y763285D02*
X512921Y763081D01*
X510295Y761993D01*
X508040Y760263D01*
X506310Y758008D01*
X505222Y755382D01*
X505019Y753834D01*
X514469D01*
Y763285D01*
D02*
G37*
G36*
X96705Y757114D02*
X94089Y756770D01*
X91650Y755760D01*
X89556Y754153D01*
X87949Y752059D01*
X86939Y749621D01*
X86595Y747004D01*
X86939Y744387D01*
X87949Y741949D01*
X89556Y739855D01*
X91650Y738248D01*
X94089Y737238D01*
X96705Y736893D01*
X99322Y737238D01*
X101761Y738248D01*
X103855Y739855D01*
X105461Y741949D01*
X106471Y744387D01*
X106816Y747004D01*
X106471Y749621D01*
X105461Y752059D01*
X103855Y754153D01*
X101761Y755760D01*
X99322Y756770D01*
X96705Y757114D01*
D02*
G37*
G36*
X514469Y751294D02*
X505019D01*
X505222Y749746D01*
X506310Y747120D01*
X508040Y744865D01*
X510295Y743135D01*
X512921Y742047D01*
X514469Y741843D01*
Y751294D01*
D02*
G37*
G36*
X526460D02*
X517010D01*
Y741843D01*
X518558Y742047D01*
X521184Y743135D01*
X523439Y744865D01*
X525169Y747120D01*
X526257Y749746D01*
X526460Y751294D01*
D02*
G37*
G36*
X517010Y763285D02*
Y753834D01*
X526460D01*
X526257Y755382D01*
X525169Y758008D01*
X523439Y760263D01*
X521184Y761993D01*
X518558Y763081D01*
X517010Y763285D01*
D02*
G37*
G36*
X95435Y775734D02*
X85737D01*
X85950Y774122D01*
X87062Y771436D01*
X88832Y769130D01*
X91138Y767361D01*
X93823Y766248D01*
X95435Y766036D01*
Y775734D01*
D02*
G37*
G36*
X107673D02*
X97975D01*
Y766036D01*
X99587Y766248D01*
X102273Y767361D01*
X104579Y769130D01*
X106349Y771436D01*
X107461Y774122D01*
X107673Y775734D01*
D02*
G37*
G36*
X514469Y776694D02*
X505019D01*
X505222Y775146D01*
X506310Y772520D01*
X508040Y770265D01*
X510295Y768535D01*
X512921Y767447D01*
X514469Y767243D01*
Y776694D01*
D02*
G37*
G36*
X154874Y759386D02*
X143826D01*
Y757760D01*
X134630D01*
X133292Y757494D01*
X132158Y756736D01*
X131351Y755929D01*
X129322Y756770D01*
X126705Y757114D01*
X124089Y756770D01*
X121650Y755760D01*
X119556Y754153D01*
X117949Y752059D01*
X116939Y749621D01*
X116595Y747004D01*
X116939Y744387D01*
X117949Y741949D01*
X119556Y739855D01*
X121650Y738248D01*
X124089Y737238D01*
X126705Y736893D01*
X129322Y737238D01*
X131761Y738248D01*
X133855Y739855D01*
X135461Y741949D01*
X136471Y744387D01*
X136816Y747004D01*
X136488Y749498D01*
X136523Y749686D01*
X137371Y750768D01*
X143826D01*
Y748338D01*
X154874D01*
Y750768D01*
X172669D01*
Y750134D01*
X183717D01*
Y750768D01*
X187740D01*
X188578Y749813D01*
X188479Y749064D01*
X188706Y747340D01*
X189371Y745733D01*
X190430Y744354D01*
X191810Y743295D01*
X193416Y742630D01*
X195140Y742403D01*
X200220D01*
X201944Y742630D01*
X203551Y743295D01*
X204930Y744354D01*
X205989Y745733D01*
X206654Y747340D01*
X206881Y749064D01*
X206654Y750788D01*
X205989Y752394D01*
X204930Y753774D01*
X203551Y754833D01*
X201944Y755498D01*
X200220Y755725D01*
X195963D01*
X194952Y756736D01*
X193818Y757494D01*
X192480Y757760D01*
X183717D01*
Y758182D01*
X172669D01*
Y757760D01*
X154874D01*
Y759386D01*
D02*
G37*
G36*
X53505Y796120D02*
X49776Y795753D01*
X46190Y794665D01*
X42885Y792898D01*
X39988Y790521D01*
X37611Y787624D01*
X35845Y784319D01*
X34757Y780733D01*
X34389Y777004D01*
X34757Y773275D01*
X35845Y769689D01*
X37611Y766384D01*
X39988Y763487D01*
X42885Y761110D01*
X46190Y759343D01*
X49776Y758255D01*
X53505Y757888D01*
X57235Y758255D01*
X60821Y759343D01*
X64126Y761110D01*
X67023Y763487D01*
X69400Y766384D01*
X71166Y769689D01*
X72254Y773275D01*
X72621Y777004D01*
X72254Y780733D01*
X71166Y784319D01*
X69400Y787624D01*
X67023Y790521D01*
X64126Y792898D01*
X60821Y794665D01*
X57235Y795753D01*
X53505Y796120D01*
D02*
G37*
G36*
X126705Y787114D02*
X124089Y786770D01*
X121650Y785760D01*
X119556Y784153D01*
X117949Y782059D01*
X116939Y779621D01*
X116595Y777004D01*
X116939Y774387D01*
X117949Y771949D01*
X119556Y769855D01*
X121650Y768248D01*
X124089Y767238D01*
X126705Y766893D01*
X129322Y767238D01*
X131351Y768079D01*
X132638Y766792D01*
X133772Y766034D01*
X135110Y765768D01*
X135110Y765768D01*
X143826D01*
Y763757D01*
X154874D01*
Y765768D01*
X172669D01*
Y765134D01*
X183717D01*
Y765768D01*
X192480D01*
X193818Y766034D01*
X194952Y766792D01*
X195963Y767803D01*
X200220D01*
X201944Y768030D01*
X203551Y768695D01*
X204930Y769754D01*
X205989Y771133D01*
X206654Y772740D01*
X206881Y774464D01*
X206654Y776188D01*
X205989Y777794D01*
X204930Y779174D01*
X203551Y780233D01*
X201944Y780898D01*
X200220Y781125D01*
X195140D01*
X193416Y780898D01*
X191810Y780233D01*
X190430Y779174D01*
X189371Y777794D01*
X188706Y776188D01*
X188479Y774464D01*
X188578Y773715D01*
X187740Y772760D01*
X183717D01*
Y773182D01*
X172669D01*
Y772760D01*
X154874D01*
Y774805D01*
X143826D01*
Y772760D01*
X137142D01*
X136275Y773913D01*
X136471Y774387D01*
X136816Y777004D01*
X136471Y779621D01*
X135461Y782059D01*
X133855Y784153D01*
X131761Y785760D01*
X129322Y786770D01*
X126705Y787114D01*
D02*
G37*
%LPD*%
D10*
X301560Y536501D02*
D03*
Y521501D02*
D03*
X343152Y403996D02*
D03*
Y388996D02*
D03*
X429463Y300219D02*
D03*
Y315219D02*
D03*
X333693Y300420D02*
D03*
Y315420D02*
D03*
X178193Y920425D02*
D03*
Y935425D02*
D03*
Y754158D02*
D03*
Y769158D02*
D03*
X242433Y640252D02*
D03*
Y625252D02*
D03*
X178922Y616106D02*
D03*
Y601106D02*
D03*
X198631Y550779D02*
D03*
Y535779D02*
D03*
X262021Y580505D02*
D03*
Y565505D02*
D03*
D13*
X396977Y439318D02*
D03*
X411977D02*
D03*
X219158Y640166D02*
D03*
X204158D02*
D03*
X300579Y259075D02*
D03*
X285579D02*
D03*
X300579Y199612D02*
D03*
X285579D02*
D03*
X300579Y169880D02*
D03*
X285579D02*
D03*
X300579Y229343D02*
D03*
X285579D02*
D03*
X238806Y580452D02*
D03*
X223806D02*
D03*
D14*
X232294Y1012893D02*
D03*
X428674Y842264D02*
D03*
D15*
X232294Y989398D02*
D03*
X428674Y818769D02*
D03*
D21*
X149350Y897878D02*
D03*
Y919877D02*
D03*
Y957431D02*
D03*
Y935431D02*
D03*
Y791281D02*
D03*
Y769281D02*
D03*
Y731862D02*
D03*
Y753862D02*
D03*
X179028Y662153D02*
D03*
Y640153D02*
D03*
X198573Y602444D02*
D03*
Y580444D02*
D03*
D23*
X436949Y611117D02*
X498755D01*
X436944Y611111D02*
X436949Y611117D01*
X395031Y653024D02*
X436944Y611111D01*
X425914Y533084D02*
X446184D01*
X442380Y541875D02*
X450615D01*
X438851Y538346D02*
X442380Y541875D01*
X450615D02*
X452153Y540336D01*
X426400Y538346D02*
X438851D01*
X287302Y677444D02*
X426400Y538346D01*
X276420Y682579D02*
X425914Y533084D01*
X276420Y682579D02*
Y723664D01*
X413723Y928408D02*
X425065Y939749D01*
X373487Y928408D02*
X413723D01*
X163412Y535779D02*
X198631D01*
X134016Y565175D02*
X163412Y535779D01*
X110498Y565175D02*
X134016D01*
X110619Y594908D02*
X172724D01*
X178922Y601106D01*
X110589Y584923D02*
Y646545D01*
X110574Y584908D02*
X110589Y584923D01*
X110574Y565906D02*
Y584908D01*
X285579Y259075D02*
X335716Y208939D01*
X343032Y374278D02*
X343152Y374398D01*
Y388996D01*
X315112Y521501D02*
X322753Y529142D01*
X301560Y521501D02*
X315112D01*
X436360Y925208D02*
X445415Y916152D01*
X509556Y917026D02*
X527801D01*
X541139Y930364D01*
X264158Y787602D02*
X276420Y799864D01*
X235707Y398248D02*
Y466599D01*
X571591Y573655D02*
Y874512D01*
X427270Y483809D02*
X560649Y617188D01*
X329739Y483809D02*
X427270D01*
X326389Y483731D02*
X329660D01*
X504337Y911807D02*
X509556Y917026D01*
X528921Y790182D02*
X541139Y777964D01*
Y879564D02*
X564713Y855991D01*
Y613405D02*
Y855991D01*
X429148Y477840D02*
X564713Y613405D01*
X337892Y477840D02*
X429148D01*
X541139Y828764D02*
X560649Y809255D01*
Y617188D02*
Y809255D01*
X541139Y803364D02*
X556585Y787919D01*
Y618871D02*
Y787919D01*
X428920Y491206D02*
X556585Y618871D01*
X337679Y491206D02*
X428920D01*
X541139Y904964D02*
X571591Y874512D01*
X452153Y525281D02*
Y540336D01*
X451655Y524783D02*
X452153Y525281D01*
X436360Y925208D02*
Y932095D01*
X242433Y640252D02*
X254672D01*
X262021Y580505D02*
X273598D01*
X310439Y179337D02*
X327848Y196747D01*
X454363D01*
X285579Y199612D02*
X296779Y188412D01*
X310287D01*
X322686Y200811D01*
X285579Y229343D02*
X310048Y204874D01*
X284851Y259803D02*
X285579Y259075D01*
X285492Y169792D02*
X285579Y169880D01*
X256709Y169457D02*
X285492D01*
X285360Y199832D02*
X285579Y199612D01*
X205867Y199496D02*
X285360D01*
X285392Y229531D02*
X285579D01*
X285056Y229867D02*
X285392Y229531D01*
X258248D02*
X285392D01*
X285579Y229343D01*
X206076Y259468D02*
X284851D01*
X322686Y200811D02*
X452584D01*
X310048Y204874D02*
X450231D01*
X335716Y208939D02*
X448548D01*
X333727Y315387D02*
X356980D01*
X333693Y315420D02*
X333727Y315387D01*
X429295D02*
X429463Y315219D01*
X405780Y315387D02*
X429295D01*
X373487Y918112D02*
Y928408D01*
X179028Y616213D02*
Y640153D01*
X123755Y639763D02*
X178638D01*
X179028Y640153D01*
X204145D01*
X219158Y640166D02*
X242347D01*
X242433Y640252D01*
X238806Y580452D02*
X261969D01*
X262021Y580505D01*
X198573Y580444D02*
X223798D01*
X223806Y580452D01*
X178922Y616106D02*
X179028Y616213D01*
X123755Y579763D02*
X197892D01*
X198573Y580444D01*
Y550837D02*
Y580444D01*
Y550837D02*
X198631Y550779D01*
X197680Y799864D02*
X214280Y783263D01*
Y710761D02*
Y783263D01*
X155784Y652264D02*
X214280Y710761D01*
X116308Y652264D02*
X155784D01*
X110589Y646545D02*
X116308Y652264D01*
X197680Y799864D02*
X214917Y817101D01*
Y948997D01*
X197680Y966234D02*
X214917Y948997D01*
X264158Y741923D02*
Y787602D01*
Y741923D02*
X268776Y737305D01*
X282517D01*
X287302Y732520D01*
Y677444D02*
Y732520D01*
X528757Y790017D02*
X528921Y790182D01*
X463384Y790017D02*
X528757D01*
X454664Y818837D02*
X504337Y868510D01*
Y911807D01*
X488792Y525528D02*
X531995Y568731D01*
X532077D01*
X395897Y336363D02*
Y397911D01*
X395872Y397936D02*
X395897Y397911D01*
X395872Y397936D02*
X571591Y573655D01*
X411977Y439318D02*
X412076Y439416D01*
X427446D01*
X235707Y398248D02*
X259238Y374717D01*
X285579Y169880D02*
X295037Y179337D01*
X310439D01*
X504896Y439486D02*
X509852D01*
X497992Y450101D02*
X505195D01*
X450231Y204874D02*
X518596Y273239D01*
Y436700D01*
X505195Y450101D02*
X518596Y436700D01*
X491566Y458597D02*
X502446D01*
X522660Y438383D01*
X452584Y200811D02*
X522660Y270887D01*
Y438383D01*
X486201Y466473D02*
X500318D01*
X526724Y440067D01*
X454363Y196747D02*
X526724Y269108D01*
Y440067D01*
X448548Y208939D02*
X514532Y274923D01*
Y434805D01*
X509852Y439486D02*
X514532Y434805D01*
D24*
X300325Y565821D02*
Y577706D01*
X277687Y543184D02*
X300325Y565821D01*
X277687Y291630D02*
Y543184D01*
X428674Y842264D02*
X471784Y885374D01*
Y943977D01*
X501502Y973695D01*
X523208D01*
X541139Y955764D01*
X93755Y190023D02*
Y220023D01*
X123755Y250023D02*
X192520D01*
X123755Y190023D02*
X192340D01*
X123755Y160023D02*
X243143D01*
X123376Y220783D02*
X244091D01*
D25*
X231644Y1014208D02*
Y1057557D01*
X231541Y1057659D02*
X231644Y1057557D01*
X192480Y754264D02*
X197680Y749064D01*
X134630Y754264D02*
X192480D01*
Y769264D02*
X197680Y774464D01*
X135110Y769264D02*
X192480D01*
X127370Y777004D02*
X135110Y769264D01*
X127370Y747004D02*
X134630Y754264D01*
X192874Y920240D02*
X197680Y915434D01*
X135506Y920240D02*
X192874D01*
X192086Y935240D02*
X197680Y940834D01*
X134234Y935240D02*
X192086D01*
X127370Y942104D02*
X134234Y935240D01*
X127370Y912104D02*
X135506Y920240D01*
D26*
X93755Y160023D02*
Y190023D01*
Y220023D02*
Y250023D01*
D27*
X232294Y984960D02*
X276420Y940834D01*
X232294Y984960D02*
Y989398D01*
X395031Y653024D02*
X428674Y686668D01*
Y818769D01*
X395031Y653024D02*
Y655853D01*
X276420Y774464D02*
X395031Y655853D01*
D28*
X353147Y746159D02*
D03*
Y771559D02*
D03*
Y796959D02*
D03*
X344231Y653024D02*
D03*
X369631D02*
D03*
X420431D02*
D03*
X395031D02*
D03*
X356867Y315350D02*
D03*
X405667D02*
D03*
D29*
X197680Y799864D02*
D03*
Y723664D02*
D03*
X276420Y799864D02*
D03*
Y723664D02*
D03*
Y774464D02*
D03*
Y749064D02*
D03*
X197680Y774464D02*
D03*
Y749064D02*
D03*
Y966234D02*
D03*
Y890034D02*
D03*
X276420Y966234D02*
D03*
Y890034D02*
D03*
Y940834D02*
D03*
Y915434D02*
D03*
X197680Y940834D02*
D03*
Y915434D02*
D03*
D30*
X74156Y54240D02*
D03*
X67112Y1051755D02*
D03*
X545047D02*
D03*
X305828Y35371D02*
D03*
X545047D02*
D03*
D31*
X147054Y54240D02*
D03*
X202172D02*
D03*
D32*
X126705Y747004D02*
D03*
Y777004D02*
D03*
Y807004D02*
D03*
X96705D02*
D03*
Y747004D02*
D03*
Y777004D02*
D03*
X93755Y353413D02*
D03*
Y383413D02*
D03*
Y413413D02*
D03*
Y443413D02*
D03*
X123755Y353413D02*
D03*
Y383413D02*
D03*
Y413413D02*
D03*
Y443413D02*
D03*
X126705Y912104D02*
D03*
Y942104D02*
D03*
Y972104D02*
D03*
X96705D02*
D03*
Y912104D02*
D03*
Y942104D02*
D03*
X93755Y549763D02*
D03*
Y579763D02*
D03*
Y609763D02*
D03*
Y639763D02*
D03*
X123755Y549763D02*
D03*
Y579763D02*
D03*
Y609763D02*
D03*
Y639763D02*
D03*
X93755Y160023D02*
D03*
Y190023D02*
D03*
Y220023D02*
D03*
Y250023D02*
D03*
X123755Y160023D02*
D03*
Y190023D02*
D03*
Y220023D02*
D03*
Y250023D02*
D03*
D33*
X53505Y777004D02*
D03*
X50555Y421813D02*
D03*
Y375013D02*
D03*
X53505Y942104D02*
D03*
X50555Y618163D02*
D03*
Y571363D02*
D03*
Y228423D02*
D03*
Y181623D02*
D03*
D34*
X541139Y955764D02*
D03*
X515740D02*
D03*
Y930364D02*
D03*
X541139D02*
D03*
Y879564D02*
D03*
X515740D02*
D03*
Y904964D02*
D03*
X541139D02*
D03*
Y803364D02*
D03*
X515740D02*
D03*
Y777964D02*
D03*
X541139D02*
D03*
Y828764D02*
D03*
X515740D02*
D03*
Y854164D02*
D03*
X541139D02*
D03*
Y727164D02*
D03*
X515740D02*
D03*
Y752564D02*
D03*
X541139D02*
D03*
D35*
X377140Y1065125D02*
D03*
X447140D02*
D03*
D36*
X387140Y1038125D02*
D03*
X437140D02*
D03*
D37*
X446184Y533084D02*
D03*
X351487Y590671D02*
D03*
X335523D02*
D03*
X538210Y290329D02*
D03*
Y304366D02*
D03*
Y318404D02*
D03*
X498211Y290508D02*
D03*
Y304546D02*
D03*
Y318584D02*
D03*
X545574Y562556D02*
D03*
X534686Y552318D02*
D03*
X523798Y542081D02*
D03*
X406614Y941383D02*
D03*
X358721Y1016608D02*
D03*
X393954D02*
D03*
X376357D02*
D03*
X110498Y565079D02*
D03*
X231541Y1057659D02*
D03*
X343032Y374278D02*
D03*
X322753Y529142D02*
D03*
X498755Y611117D02*
D03*
X445415Y916152D02*
D03*
X492862Y516675D02*
D03*
X488792Y525528D02*
D03*
X235707Y466599D02*
D03*
X326389Y483731D02*
D03*
X337892Y477840D02*
D03*
X337679Y491206D02*
D03*
X451655Y524783D02*
D03*
X436360Y932095D02*
D03*
X273598Y580505D02*
D03*
X254707Y640217D02*
D03*
X425065Y939749D02*
D03*
X373487Y918112D02*
D03*
X463384Y790017D02*
D03*
X454664Y818837D02*
D03*
X532077Y568731D02*
D03*
X395897Y336363D02*
D03*
X427446Y439416D02*
D03*
X259238Y374717D02*
D03*
X339281Y890931D02*
D03*
X389513Y878476D02*
D03*
X363772Y442771D02*
D03*
Y424197D02*
D03*
Y405085D02*
D03*
X381000D02*
D03*
Y424197D02*
D03*
Y442771D02*
D03*
X486201Y466473D02*
D03*
X491566Y458597D02*
D03*
X497992Y450101D02*
D03*
X504896Y439486D02*
D03*
D38*
X300325Y577706D02*
D03*
X277687Y291630D02*
D03*
D39*
X205867Y199496D02*
D03*
Y180496D02*
D03*
X192367Y189996D02*
D03*
X206076Y259468D02*
D03*
Y240468D02*
D03*
X192576Y249968D02*
D03*
X256709Y169457D02*
D03*
Y150457D02*
D03*
X243209Y159957D02*
D03*
X258248Y229531D02*
D03*
Y210531D02*
D03*
X244748Y220031D02*
D03*
M02*
