G04*
G04 #@! TF.GenerationSoftware,Altium Limited,Altium Designer,18.1.6 (161)*
G04*
G04 Layer_Color=65535*
%FSLAX44Y44*%
%MOMM*%
G71*
G01*
G75*
%ADD10C,0.2500*%
%ADD11C,0.2540*%
%ADD12C,0.6000*%
%ADD13C,0.2000*%
%ADD14C,0.1524*%
%ADD15C,0.1270*%
%ADD16R,0.5080X3.6830*%
%ADD17R,3.6830X0.5080*%
D10*
X453840Y963124D02*
G03*
X453840Y963124I-1250J0D01*
G01*
X316929Y358282D02*
G03*
X316929Y358282I-1250J0D01*
G01*
D11*
X346127Y725839D02*
G03*
X346127Y725839I-5680J0D01*
G01*
X344463D02*
G03*
X344463Y725839I-4016J0D01*
G01*
X342987D02*
G03*
X342987Y725839I-2540J0D01*
G01*
X341717D02*
G03*
X341717Y725839I-1270J0D01*
G01*
X436941Y639054D02*
G03*
X435671Y640324I0J1270D01*
G01*
X434401D02*
G03*
X434669Y641460I2540J0D01*
G01*
X440751Y640324D02*
G03*
X440751Y640324I-3810J0D01*
G01*
X442021D02*
G03*
X442021Y640324I-5080J0D01*
G01*
X249698Y718464D02*
G03*
X224413Y718578I-12648J-1150D01*
G01*
X268800Y712234D02*
G03*
X268800Y712234I-1270J0D01*
G01*
X347767Y338600D02*
G03*
X347767Y292100I0J-23250D01*
G01*
X414767D02*
G03*
X414767Y338600I0J23250D01*
G01*
X249698Y884834D02*
G03*
X224413Y884948I-12648J-1150D01*
G01*
X268800Y878604D02*
G03*
X268800Y878604I-1270J0D01*
G01*
X579374Y1020826D02*
Y1184656D01*
X438513Y1020826D02*
X579374D01*
X438513D02*
Y1168255D01*
X454914Y1184656D01*
X579374D01*
X342087Y580958D02*
X354587D01*
X342087Y556458D02*
Y580958D01*
Y556458D02*
X354587D01*
Y580958D01*
X293255Y190794D02*
X350405D01*
Y152694D02*
Y190794D01*
X293255Y152694D02*
X350405D01*
X293255D02*
Y190794D01*
Y146515D02*
X350405D01*
Y108415D02*
Y146515D01*
X293255Y108415D02*
X350405D01*
X293255D02*
Y146515D01*
X518475Y587176D02*
Y599676D01*
X493975D02*
X518475D01*
X493975Y587176D02*
Y599676D01*
Y587176D02*
X518475D01*
X229733Y346983D02*
X242233D01*
X229733Y322483D02*
Y346983D01*
Y322483D02*
X242233D01*
Y346983D01*
X385383Y694174D02*
Y751324D01*
X423484D01*
Y694174D02*
Y751324D01*
X385383Y694174D02*
X423484D01*
X292187Y715679D02*
Y828709D01*
X378547D01*
Y715679D02*
Y828709D01*
X292187Y715679D02*
X378547D01*
X318831Y668264D02*
X445831D01*
X318831Y602224D02*
Y668264D01*
Y602224D02*
X445831D01*
Y668264D01*
X494005Y632336D02*
X518505D01*
Y619836D02*
Y632336D01*
X494005Y619836D02*
X518505D01*
X494005D02*
Y632336D01*
X229204Y355411D02*
X241704D01*
Y379911D01*
X229204D02*
X241704D01*
X229204Y355411D02*
Y379911D01*
X368729Y870416D02*
X393229D01*
Y857916D02*
Y870416D01*
X368729Y857916D02*
X393229D01*
X368729D02*
Y870416D01*
X207846Y718578D02*
X224413D01*
X249818Y718584D02*
X266260D01*
X209110Y804944D02*
X266260D01*
X207840Y718584D02*
Y804944D01*
X266260Y718584D02*
Y804944D01*
X238852Y1131783D02*
Y1156283D01*
X226352Y1131783D02*
X238852D01*
X226352D02*
Y1156283D01*
X238852D01*
X263068Y1132168D02*
Y1156668D01*
X250568Y1132168D02*
X263068D01*
X250568D02*
Y1156668D01*
X263068D01*
X250568Y1114998D02*
X263068D01*
X250568Y1090498D02*
Y1114998D01*
Y1090498D02*
X263068D01*
Y1114998D01*
X225882Y1114960D02*
X238382D01*
X225882Y1090461D02*
Y1114960D01*
Y1090461D02*
X238382D01*
Y1114960D01*
X502486Y98263D02*
Y110763D01*
X477985D02*
X502486D01*
X477985Y98263D02*
Y110763D01*
Y98263D02*
X502486D01*
Y121317D02*
Y133817D01*
X477985D02*
X502486D01*
X477985Y121317D02*
Y133817D01*
Y121317D02*
X502486D01*
Y144371D02*
Y156871D01*
X477985D02*
X502486D01*
X477985Y144371D02*
Y156871D01*
Y144371D02*
X502486D01*
X347767Y338600D02*
X414767D01*
X347767Y292100D02*
X414767D01*
X481599Y509311D02*
X494099D01*
X481599Y484811D02*
Y509311D01*
Y484811D02*
X494099D01*
Y509311D01*
X400122Y145232D02*
X403297D01*
X402662Y145867D02*
X404567Y147772D01*
Y148407D01*
X402662D02*
X404567D01*
X400122Y145867D02*
X402662Y148407D01*
X400122Y145867D02*
X402662Y148407D01*
X404567D01*
X402662D02*
X406472D01*
X400122Y145867D02*
X402662Y148407D01*
X400122Y145867D02*
Y148407D01*
Y142057D02*
Y148407D01*
Y142057D02*
X406472Y148407D01*
X450922Y110307D02*
Y119197D01*
X400122Y110307D02*
X450922D01*
X400122D02*
Y148407D01*
X450922D01*
Y114117D02*
Y148407D01*
X207846Y884948D02*
X224413D01*
X249818Y884954D02*
X266260D01*
X209110Y971314D02*
X266260D01*
X207840Y884954D02*
Y971314D01*
X266260Y884954D02*
Y971314D01*
X5576Y16140D02*
Y92339D01*
Y16140D02*
X226556D01*
Y92339D01*
X5576D02*
X226556D01*
X5505Y710004D02*
X138505D01*
Y844004D01*
X5505D02*
X138505D01*
X5505Y710004D02*
Y844004D01*
Y316413D02*
Y480663D01*
X136505D01*
X5505Y316413D02*
X136505D01*
Y480663D01*
X5505Y875104D02*
X138505D01*
Y1009104D01*
X5505D02*
X138505D01*
X5505Y875104D02*
Y1009104D01*
Y512763D02*
Y677013D01*
X136505D01*
X5505Y512763D02*
X136505D01*
Y677013D01*
X5505Y123023D02*
Y287273D01*
X136505D01*
X5505Y123023D02*
X136505D01*
Y287273D01*
X478909Y1009104D02*
X579240D01*
X478909Y673824D02*
Y1009104D01*
Y673824D02*
X579240D01*
Y1009104D01*
Y738594D02*
Y739864D01*
X566539Y727164D02*
X579240Y739864D01*
X566539Y727164D02*
X579240Y714464D01*
X199408Y616002D02*
X223908D01*
Y603502D02*
Y616002D01*
X199408Y603502D02*
X223908D01*
X199408D02*
Y616002D01*
X172448Y570274D02*
Y594774D01*
X184948D01*
Y570274D02*
Y594774D01*
X172448Y570274D02*
X184948D01*
X236183Y590289D02*
Y614789D01*
X248683D01*
Y590289D02*
Y614789D01*
X236183Y590289D02*
X248683D01*
X192354Y504943D02*
Y529443D01*
X204854D01*
Y504943D02*
Y529443D01*
X192354Y504943D02*
X204854D01*
X219056Y556513D02*
X243556D01*
Y544013D02*
Y556513D01*
X219056Y544013D02*
X243556D01*
X219056D02*
Y556513D01*
X255771Y530448D02*
Y554948D01*
X268271D01*
Y530448D02*
Y554948D01*
X255771Y530448D02*
X268271D01*
X277311Y278602D02*
X273079Y282834D01*
X264615D01*
X260383Y278602D01*
Y261675D01*
X264615Y257443D01*
X273079D01*
X277311Y261675D01*
X302703Y278602D02*
X298471Y282834D01*
X290007D01*
X285775Y278602D01*
Y261675D01*
X290007Y257443D01*
X298471D01*
X302703Y261675D01*
X328095Y278602D02*
X323863Y282834D01*
X315399D01*
X311167Y278602D01*
Y274370D01*
X315399Y270138D01*
X323863D01*
X328095Y265907D01*
Y261675D01*
X323863Y257443D01*
X315399D01*
X311167Y261675D01*
X361951Y274370D02*
X370415Y257443D01*
X378879Y274370D01*
X400038Y257443D02*
Y282834D01*
X387342Y270138D01*
X404270D01*
X412734Y257443D02*
Y261675D01*
X416966D01*
Y257443D01*
X412734D01*
X433894D02*
X442358D01*
X438126D01*
Y282834D01*
X433894Y278602D01*
X260383Y246268D02*
Y220876D01*
X277311D01*
X290007D02*
X298471D01*
X302703Y225108D01*
Y233572D01*
X298471Y237804D01*
X290007D01*
X285775Y233572D01*
Y225108D01*
X290007Y220876D01*
X319631Y212412D02*
X323863D01*
X328095Y216644D01*
Y237804D01*
X315399D01*
X311167Y233572D01*
Y225108D01*
X315399Y220876D01*
X328095D01*
X340791Y237804D02*
X349255D01*
X353487Y233572D01*
Y220876D01*
X340791D01*
X336559Y225108D01*
X340791Y229340D01*
X353487D01*
X361951Y220876D02*
Y237804D01*
X374647D01*
X378879Y233572D01*
Y220876D01*
X412734Y246268D02*
Y220876D01*
Y233572D01*
X429662D01*
Y246268D01*
Y220876D01*
X438126Y237804D02*
Y225108D01*
X442358Y220876D01*
X455054D01*
Y237804D01*
X463518Y220876D02*
Y237804D01*
X476214D01*
X480446Y233572D01*
Y220876D01*
X493142Y242036D02*
Y237804D01*
X488910D01*
X497374D01*
X493142D01*
Y225108D01*
X497374Y220876D01*
X522765D02*
X514301D01*
X510070Y225108D01*
Y233572D01*
X514301Y237804D01*
X522765D01*
X526997Y233572D01*
Y229340D01*
X510070D01*
X535461Y237804D02*
Y220876D01*
Y229340D01*
X539693Y233572D01*
X543925Y237804D01*
X548157D01*
X349022Y999591D02*
Y986895D01*
X351561Y984356D01*
X356639D01*
X359179Y986895D01*
Y999591D01*
X371874Y984356D02*
Y999591D01*
X364257Y991974D01*
X374413D01*
X257200Y194232D02*
X254660Y196771D01*
X249582D01*
X247043Y194232D01*
Y184075D01*
X249582Y181536D01*
X254660D01*
X257200Y184075D01*
X262278Y181536D02*
X267356D01*
X264817D01*
Y196771D01*
X262278Y194232D01*
X285131Y196771D02*
X280052Y194232D01*
X274974Y189153D01*
Y184075D01*
X277513Y181536D01*
X282591D01*
X285131Y184075D01*
Y186614D01*
X282591Y189153D01*
X274974D01*
X226103Y190220D02*
X223564Y187681D01*
Y182603D01*
X226103Y180064D01*
X236260D01*
X238799Y182603D01*
Y187681D01*
X236260Y190220D01*
X238799Y195299D02*
Y200377D01*
Y197838D01*
X223564D01*
X226103Y195299D01*
X223564Y207994D02*
Y218151D01*
X226103D01*
X236260Y207994D01*
X238799D01*
X191360Y190515D02*
X188821Y187976D01*
Y182897D01*
X191360Y180358D01*
X201517D01*
X204056Y182897D01*
Y187976D01*
X201517Y190515D01*
X204056Y195593D02*
Y200671D01*
Y198132D01*
X188821D01*
X191360Y195593D01*
X204056Y215907D02*
X188821D01*
X196438Y208289D01*
Y218446D01*
X151317Y191987D02*
X148778Y189448D01*
Y184369D01*
X151317Y181830D01*
X161474D01*
X164013Y184369D01*
Y189448D01*
X161474Y191987D01*
X164013Y197065D02*
Y202144D01*
Y199604D01*
X148778D01*
X151317Y197065D01*
X148778Y219918D02*
Y209761D01*
X156396D01*
X153857Y214839D01*
Y217379D01*
X156396Y219918D01*
X161474D01*
X164013Y217379D01*
Y212300D01*
X161474Y209761D01*
X147491Y334220D02*
Y349455D01*
X155108D01*
X157648Y346916D01*
Y341837D01*
X155108Y339298D01*
X147491D01*
X152569D02*
X157648Y334220D01*
X172883Y349455D02*
X162726D01*
Y334220D01*
X172883D01*
X162726Y341837D02*
X167804D01*
X188118Y346916D02*
X185578Y349455D01*
X180500D01*
X177961Y346916D01*
Y344377D01*
X180500Y341837D01*
X185578D01*
X188118Y339298D01*
Y336759D01*
X185578Y334220D01*
X180500D01*
X177961Y336759D01*
X203353Y349455D02*
X193196D01*
Y334220D01*
X203353D01*
X193196Y341837D02*
X198274D01*
X208431Y349455D02*
X218588D01*
X213510D01*
Y334220D01*
X414132Y1188674D02*
X409054D01*
X411593D01*
Y1175978D01*
X409054Y1173439D01*
X406515D01*
X403975Y1175978D01*
X419210Y1173439D02*
X424289D01*
X421749D01*
Y1188674D01*
X419210Y1186135D01*
X374456Y191841D02*
X359221D01*
Y184223D01*
X361760Y181684D01*
X371917D01*
X374456Y184223D01*
Y191841D01*
X359221Y176606D02*
Y171528D01*
Y174067D01*
X374456D01*
X371917Y176606D01*
X374456Y163910D02*
Y153753D01*
X371917D01*
X361760Y163910D01*
X359221D01*
X374162Y142082D02*
X358927D01*
Y134465D01*
X361466Y131925D01*
X371623D01*
X374162Y134465D01*
Y142082D01*
X358927Y126847D02*
Y121769D01*
Y124308D01*
X374162D01*
X371623Y126847D01*
X374162Y103994D02*
X371623Y109073D01*
X366544Y114151D01*
X361466D01*
X358927Y111612D01*
Y106533D01*
X361466Y103994D01*
X364005D01*
X366544Y106533D01*
Y114151D01*
X320127Y692271D02*
Y679575D01*
X322666Y677036D01*
X327744D01*
X330284Y679575D01*
Y692271D01*
X335362Y689732D02*
X337901Y692271D01*
X342980D01*
X345519Y689732D01*
Y687192D01*
X342980Y684653D01*
X340440D01*
X342980D01*
X345519Y682114D01*
Y679575D01*
X342980Y677036D01*
X337901D01*
X335362Y679575D01*
X293511Y852915D02*
Y840219D01*
X296050Y837680D01*
X301128D01*
X303667Y840219D01*
Y852915D01*
X318902Y837680D02*
X308746D01*
X318902Y847837D01*
Y850376D01*
X316363Y852915D01*
X311285D01*
X308746Y850376D01*
X494947Y562763D02*
Y577998D01*
X502564D01*
X505103Y575459D01*
Y570381D01*
X502564Y567841D01*
X494947D01*
X500025D02*
X505103Y562763D01*
X517799D02*
Y577998D01*
X510182Y570381D01*
X520338D01*
X230356Y388699D02*
Y403935D01*
X237973D01*
X240513Y401395D01*
Y396317D01*
X237973Y393778D01*
X230356D01*
X235434D02*
X240513Y388699D01*
X245591D02*
X250669D01*
X248130D01*
Y403935D01*
X245591Y401395D01*
X495176Y656396D02*
Y641161D01*
X502793D01*
X505333Y643700D01*
Y653857D01*
X502793Y656396D01*
X495176D01*
X520568D02*
X515489Y653857D01*
X510411Y648778D01*
Y643700D01*
X512950Y641161D01*
X518028D01*
X520568Y643700D01*
Y646239D01*
X518028Y648778D01*
X510411D01*
X386664Y775480D02*
Y760245D01*
X394282D01*
X396821Y762785D01*
Y772941D01*
X394282Y775480D01*
X386664D01*
X401899Y760245D02*
X406978D01*
X404439D01*
Y775480D01*
X401899Y772941D01*
X239398Y313302D02*
X236859Y315841D01*
X231781D01*
X229242Y313302D01*
Y303146D01*
X231781Y300606D01*
X236859D01*
X239398Y303146D01*
X244477Y313302D02*
X247016Y315841D01*
X252094D01*
X254633Y313302D01*
Y310763D01*
X252094Y308224D01*
X254633Y305685D01*
Y303146D01*
X252094Y300606D01*
X247016D01*
X244477Y303146D01*
Y305685D01*
X247016Y308224D01*
X244477Y310763D01*
Y313302D01*
X247016Y308224D02*
X252094D01*
X191584Y829069D02*
Y816373D01*
X194123Y813834D01*
X199202D01*
X201741Y816373D01*
Y829069D01*
X216976D02*
X211898Y826530D01*
X206819Y821451D01*
Y816373D01*
X209358Y813834D01*
X214437D01*
X216976Y816373D01*
Y818912D01*
X214437Y821451D01*
X206819D01*
X456025Y326218D02*
X466182Y310983D01*
Y326218D02*
X456025Y310983D01*
X471260D02*
X476339D01*
X473800D01*
Y326218D01*
X471260Y323679D01*
X269141Y509770D02*
Y497074D01*
X271680Y494534D01*
X276759D01*
X279298Y497074D01*
Y509770D01*
X284376Y494534D02*
X289455D01*
X286915D01*
Y509770D01*
X284376Y507230D01*
X514794Y96776D02*
Y112011D01*
X522412D01*
X524951Y109472D01*
Y104393D01*
X522412Y101854D01*
X514794D01*
X519873D02*
X524951Y96776D01*
X530029Y112011D02*
X540186D01*
Y109472D01*
X530029Y99315D01*
Y96776D01*
X514794Y119559D02*
Y134794D01*
X522412D01*
X524951Y132255D01*
Y127177D01*
X522412Y124638D01*
X514794D01*
X519873D02*
X524951Y119559D01*
X540186Y134794D02*
X535108Y132255D01*
X530029Y127177D01*
Y122099D01*
X532569Y119559D01*
X537647D01*
X540186Y122099D01*
Y124638D01*
X537647Y127177D01*
X530029D01*
X514794Y141631D02*
Y156866D01*
X522412D01*
X524951Y154327D01*
Y149249D01*
X522412Y146709D01*
X514794D01*
X519873D02*
X524951Y141631D01*
X540186Y156866D02*
X530029D01*
Y149249D01*
X535108Y151788D01*
X537647D01*
X540186Y149249D01*
Y144170D01*
X537647Y141631D01*
X532569D01*
X530029Y144170D01*
X401303Y172538D02*
Y157303D01*
X408920D01*
X411459Y159842D01*
Y169999D01*
X408920Y172538D01*
X401303D01*
X416538D02*
X426694D01*
Y169999D01*
X416538Y159842D01*
Y157303D01*
X373837Y575055D02*
X371298Y577594D01*
X366219D01*
X363680Y575055D01*
Y564898D01*
X366219Y562359D01*
X371298D01*
X373837Y564898D01*
X389072Y577594D02*
X378915D01*
Y569977D01*
X383994Y572516D01*
X386533D01*
X389072Y569977D01*
Y564898D01*
X386533Y562359D01*
X381454D01*
X378915Y564898D01*
X521233Y508817D02*
X518694Y511357D01*
X513615D01*
X511076Y508817D01*
Y498661D01*
X513615Y496121D01*
X518694D01*
X521233Y498661D01*
X533929Y496121D02*
Y511357D01*
X526311Y503739D01*
X536468D01*
X343998Y866868D02*
X341459Y869407D01*
X336380D01*
X333841Y866868D01*
Y856711D01*
X336380Y854172D01*
X341459D01*
X343998Y856711D01*
X349076D02*
X351615Y854172D01*
X356694D01*
X359233Y856711D01*
Y866868D01*
X356694Y869407D01*
X351615D01*
X349076Y866868D01*
Y864329D01*
X351615Y861789D01*
X359233D01*
X279759Y1109424D02*
Y1094189D01*
X287377D01*
X289916Y1096728D01*
Y1106885D01*
X287377Y1109424D01*
X279759D01*
X302612Y1094189D02*
Y1109424D01*
X294994Y1101806D01*
X305151D01*
X185934Y1111623D02*
Y1096388D01*
X193552D01*
X196091Y1098927D01*
Y1109084D01*
X193552Y1111623D01*
X185934D01*
X211326D02*
X201169D01*
Y1104005D01*
X206248Y1106544D01*
X208787D01*
X211326Y1104005D01*
Y1098927D01*
X208787Y1096388D01*
X203708D01*
X201169Y1098927D01*
X447438Y992809D02*
Y1008044D01*
X455056D01*
X457595Y1005504D01*
Y1000426D01*
X455056Y997887D01*
X447438D01*
X462673Y992809D02*
X467752D01*
X465213D01*
Y1008044D01*
X462673Y1005504D01*
X6769Y1018050D02*
Y1033285D01*
X14387D01*
X16926Y1030746D01*
Y1025667D01*
X14387Y1023128D01*
X6769D01*
X32161Y1018050D02*
X22004D01*
X32161Y1028207D01*
Y1030746D01*
X29622Y1033285D01*
X24544D01*
X22004Y1030746D01*
X6769Y852950D02*
Y868185D01*
X14387D01*
X16926Y865646D01*
Y860567D01*
X14387Y858028D01*
X6769D01*
X22004Y865646D02*
X24544Y868185D01*
X29622D01*
X32161Y865646D01*
Y863107D01*
X29622Y860567D01*
X27083D01*
X29622D01*
X32161Y858028D01*
Y855489D01*
X29622Y852950D01*
X24544D01*
X22004Y855489D01*
X6740Y685881D02*
Y701116D01*
X14357D01*
X16896Y698577D01*
Y693498D01*
X14357Y690959D01*
X6740D01*
X29592Y685881D02*
Y701116D01*
X21975Y693498D01*
X32131D01*
X6740Y489531D02*
Y504766D01*
X14357D01*
X16896Y502226D01*
Y497148D01*
X14357Y494609D01*
X6740D01*
X32131Y504766D02*
X21975D01*
Y497148D01*
X27053Y499687D01*
X29592D01*
X32131Y497148D01*
Y492070D01*
X29592Y489531D01*
X24514D01*
X21975Y492070D01*
X6740Y296141D02*
Y311376D01*
X14357D01*
X16896Y308837D01*
Y303758D01*
X14357Y301219D01*
X6740D01*
X32131Y311376D02*
X27053Y308837D01*
X21975Y303758D01*
Y298680D01*
X24514Y296141D01*
X29592D01*
X32131Y298680D01*
Y301219D01*
X29592Y303758D01*
X21975D01*
X6761Y101242D02*
Y116477D01*
X14378D01*
X16917Y113937D01*
Y108859D01*
X14378Y106320D01*
X6761D01*
X21996Y116477D02*
X32152D01*
Y113937D01*
X21996Y103781D01*
Y101242D01*
X276338Y1142323D02*
Y1157558D01*
X283956D01*
X286495Y1155019D01*
Y1149940D01*
X283956Y1147401D01*
X276338D01*
X281417D02*
X286495Y1142323D01*
X301730D02*
X291573D01*
X301730Y1152479D01*
Y1155019D01*
X299191Y1157558D01*
X294113D01*
X291573Y1155019D01*
X192096Y1137589D02*
Y1152824D01*
X199714D01*
X202253Y1150285D01*
Y1145207D01*
X199714Y1142668D01*
X192096D01*
X197175D02*
X202253Y1137589D01*
X207331Y1150285D02*
X209871Y1152824D01*
X214949D01*
X217488Y1150285D01*
Y1147746D01*
X214949Y1145207D01*
X212410D01*
X214949D01*
X217488Y1142668D01*
Y1140129D01*
X214949Y1137589D01*
X209871D01*
X207331Y1140129D01*
X191584Y995439D02*
Y982743D01*
X194123Y980204D01*
X199202D01*
X201741Y982743D01*
Y995439D01*
X216976D02*
X206819D01*
Y987822D01*
X211898Y990361D01*
X214437D01*
X216976Y987822D01*
Y982743D01*
X214437Y980204D01*
X209358D01*
X206819Y982743D01*
X265844Y600541D02*
X263305Y603080D01*
X258227D01*
X255688Y600541D01*
Y590385D01*
X258227Y587845D01*
X263305D01*
X265844Y590385D01*
X270923Y587845D02*
X276001D01*
X273462D01*
Y603080D01*
X270923Y600541D01*
X283619Y587845D02*
X288697D01*
X286158D01*
Y603080D01*
X283619Y600541D01*
X288096Y549610D02*
X285557Y552149D01*
X280478D01*
X277939Y549610D01*
Y539454D01*
X280478Y536914D01*
X285557D01*
X288096Y539454D01*
X293174Y536914D02*
X298252D01*
X295713D01*
Y552149D01*
X293174Y549610D01*
X305870D02*
X308409Y552149D01*
X313487D01*
X316027Y549610D01*
Y547071D01*
X313487Y544532D01*
X310948D01*
X313487D01*
X316027Y541993D01*
Y539454D01*
X313487Y536914D01*
X308409D01*
X305870Y539454D01*
X173684Y659515D02*
Y644280D01*
X181301D01*
X183841Y646819D01*
Y656975D01*
X181301Y659515D01*
X173684D01*
X188919Y644280D02*
X193997D01*
X191458D01*
Y659515D01*
X188919Y656975D01*
X201615D02*
X204154Y659515D01*
X209232D01*
X211772Y656975D01*
Y654436D01*
X209232Y651897D01*
X206693D01*
X209232D01*
X211772Y649358D01*
Y646819D01*
X209232Y644280D01*
X204154D01*
X201615Y646819D01*
X194170Y595282D02*
Y580047D01*
X201787D01*
X204326Y582587D01*
Y592743D01*
X201787Y595282D01*
X194170D01*
X209405Y580047D02*
X214483D01*
X211944D01*
Y595282D01*
X209405Y592743D01*
X232257Y595282D02*
X222101D01*
Y587665D01*
X227179Y590204D01*
X229718D01*
X232257Y587665D01*
Y582587D01*
X229718Y580047D01*
X224640D01*
X222101Y582587D01*
X149012Y544540D02*
Y559775D01*
X156630D01*
X159169Y557236D01*
Y552157D01*
X156630Y549618D01*
X149012D01*
X154090D02*
X159169Y544540D01*
X164247D02*
X169326D01*
X166786D01*
Y559775D01*
X164247Y557236D01*
X187100Y559775D02*
X182021Y557236D01*
X176943Y552157D01*
Y547079D01*
X179482Y544540D01*
X184561D01*
X187100Y547079D01*
Y549618D01*
X184561Y552157D01*
X176943D01*
X200777Y624997D02*
Y640232D01*
X208395D01*
X210934Y637693D01*
Y632615D01*
X208395Y630076D01*
X200777D01*
X205856D02*
X210934Y624997D01*
X216012D02*
X221091D01*
X218552D01*
Y640232D01*
X216012Y637693D01*
X228708Y640232D02*
X238865D01*
Y637693D01*
X228708Y627537D01*
Y624997D01*
X194870Y483655D02*
Y498890D01*
X202487D01*
X205026Y496351D01*
Y491272D01*
X202487Y488733D01*
X194870D01*
X199948D02*
X205026Y483655D01*
X220262D02*
X210105D01*
X220262Y493812D01*
Y496351D01*
X217722Y498890D01*
X212644D01*
X210105Y496351D01*
X225340D02*
X227879Y498890D01*
X232957D01*
X235497Y496351D01*
Y486194D01*
X232957Y483655D01*
X227879D01*
X225340Y486194D01*
Y496351D01*
X215831Y522429D02*
Y537663D01*
X223449D01*
X225988Y535124D01*
Y530046D01*
X223449Y527507D01*
X215831D01*
X220909D02*
X225988Y522429D01*
X241223D02*
X231066D01*
X241223Y532585D01*
Y535124D01*
X238684Y537663D01*
X233605D01*
X231066Y535124D01*
X246301Y522429D02*
X251380D01*
X248840D01*
Y537663D01*
X246301Y535124D01*
D12*
X334179Y382782D02*
G03*
X334179Y382782I-3000J0D01*
G01*
D13*
X349590Y908624D02*
Y948624D01*
X455590Y908624D02*
Y948624D01*
X349590Y908624D02*
X455590D01*
X349590Y948624D02*
X455590D01*
X257000Y143000D02*
Y157000D01*
X283000Y143000D02*
Y157000D01*
X219500Y143296D02*
Y157296D01*
X245500Y143296D02*
Y157296D01*
X182000Y143296D02*
Y157296D01*
X208000Y143296D02*
Y157296D01*
X144500Y143000D02*
Y157000D01*
X170500Y143000D02*
Y157000D01*
X321179Y372782D02*
X444179D01*
X321179Y495782D02*
X444179D01*
X321179Y372782D02*
Y495782D01*
X444179Y372782D02*
Y495782D01*
X381021Y197174D02*
Y209870D01*
Y204791D01*
X378481D01*
X383560D01*
X381021D01*
Y209870D01*
X383560Y212409D01*
X393717Y209870D02*
Y207330D01*
X391177D01*
X396256D01*
X393717D01*
Y199713D01*
X396256Y197174D01*
X403873D02*
Y199713D01*
X406412D01*
Y197174D01*
X403873D01*
X441961Y209870D02*
X439422Y212409D01*
X434343D01*
X431804Y209870D01*
Y207330D01*
X434343Y204791D01*
X439422D01*
X441961Y202252D01*
Y199713D01*
X439422Y197174D01*
X434343D01*
X431804Y199713D01*
X449578Y207330D02*
X454657D01*
X457196Y204791D01*
Y197174D01*
X449578D01*
X447039Y199713D01*
X449578Y202252D01*
X457196D01*
X462274Y197174D02*
Y207330D01*
X464813D01*
X467353Y204791D01*
Y197174D01*
Y204791D01*
X469892Y207330D01*
X472431Y204791D01*
Y197174D01*
X477509D02*
X482588D01*
X480048D01*
Y207330D01*
X477509D01*
X515597Y197174D02*
X513058Y199713D01*
X510519Y197174D01*
X507980D01*
X505440Y199713D01*
Y202252D01*
X507980Y204791D01*
X505440Y207330D01*
Y209870D01*
X507980Y212409D01*
X510519D01*
X513058Y209870D01*
Y207330D01*
X510519Y204791D01*
X513058Y202252D01*
Y199713D01*
X515597Y204791D02*
X513058Y202252D01*
X507980Y204791D02*
X510519D01*
X535910Y197174D02*
Y212409D01*
X543528D01*
X546067Y209870D01*
Y204791D01*
X543528Y202252D01*
X535910D01*
X540989D02*
X546067Y197174D01*
X553685D02*
X558763D01*
X561302Y199713D01*
Y204791D01*
X558763Y207330D01*
X553685D01*
X551146Y204791D01*
Y199713D01*
X553685Y197174D01*
X566381Y212409D02*
Y197174D01*
X573998D01*
X576537Y199713D01*
Y202252D01*
Y204791D01*
X573998Y207330D01*
X566381D01*
D14*
X503685Y621476D02*
Y630366D01*
X508765Y621476D02*
Y630366D01*
X504320D02*
X508765Y625921D01*
X504320Y621476D02*
X508765Y625921D01*
X252208Y1104683D02*
X256653Y1100238D01*
X261098Y1104683D01*
X252208Y1100238D02*
X261098D01*
X252208Y1105318D02*
X261098D01*
X227522Y1104645D02*
X231967Y1100200D01*
X236412Y1104645D01*
X227522Y1100200D02*
X236412D01*
X227522Y1105280D02*
X236412D01*
D15*
X171813Y633423D02*
X173083D01*
X184767Y607769D02*
X186037D01*
X184767Y633169D02*
X186037D01*
X171813Y608023D02*
X173083D01*
X186037Y607769D02*
Y633169D01*
X171813Y608023D02*
Y633423D01*
X191523Y574107D02*
X192793D01*
X204477Y548453D02*
X205747D01*
X204477Y573853D02*
X205747D01*
X191523Y548707D02*
X192793D01*
X205747Y548453D02*
Y573853D01*
X191523Y548707D02*
Y574107D01*
D16*
X297065Y171109D02*
D03*
Y126830D02*
D03*
D17*
X405069Y697984D02*
D03*
M02*
