G04*
G04 #@! TF.GenerationSoftware,Altium Limited,Altium Designer,18.1.6 (161)*
G04*
G04 Layer_Physical_Order=1*
G04 Layer_Color=255*
%FSLAX44Y44*%
%MOMM*%
G71*
G01*
G75*
%ADD11C,0.2540*%
%ADD43O,0.4000X2.1000*%
%ADD44R,2.8000X1.0500*%
%ADD45R,1.4000X1.5500*%
%ADD46R,0.8000X0.5000*%
%ADD47R,0.7620X1.2700*%
%ADD48R,2.6670X2.5400*%
%ADD49R,0.5000X0.8000*%
%ADD50R,1.2700X0.7620*%
%ADD51R,2.5400X2.6670*%
%ADD52O,0.3000X2.1000*%
%ADD53O,2.1000X0.3000*%
%ADD54R,1.2000X0.9000*%
%ADD55R,0.8000X0.8000*%
%ADD56C,0.3810*%
%ADD57C,0.6350*%
%ADD58C,2.5400*%
%ADD59C,0.7620*%
%ADD60C,0.5080*%
%ADD61C,3.2000*%
%ADD62C,1.5200*%
%ADD63C,2.0000*%
%ADD64O,1.5240X1.0160*%
%ADD65C,3.8100*%
%ADD66C,2.5400*%
%ADD67C,1.7000*%
%ADD68C,3.5000*%
%ADD69C,1.6510*%
%ADD70C,0.6350*%
%ADD71C,1.2700*%
G36*
X586630Y1558D02*
X1674D01*
Y1197004D01*
X586630D01*
Y1558D01*
D02*
G37*
%LPC*%
G36*
X505714Y1180425D02*
X502279Y1180086D01*
X498975Y1179084D01*
X495931Y1177457D01*
X493263Y1175267D01*
X491073Y1172599D01*
X489446Y1169555D01*
X488444Y1166251D01*
X488105Y1162816D01*
X488444Y1159381D01*
X489446Y1156077D01*
X491073Y1153033D01*
X493263Y1150365D01*
X495931Y1148175D01*
X498975Y1146548D01*
X502279Y1145546D01*
X505714Y1145207D01*
X509149Y1145546D01*
X512453Y1146548D01*
X515497Y1148175D01*
X518165Y1150365D01*
X520355Y1153033D01*
X521982Y1156077D01*
X522984Y1159381D01*
X523323Y1162816D01*
X522984Y1166251D01*
X521982Y1169555D01*
X520355Y1172599D01*
X518165Y1175267D01*
X515497Y1177457D01*
X512453Y1179084D01*
X509149Y1180086D01*
X505714Y1180425D01*
D02*
G37*
G36*
X369463Y1174455D02*
X365039Y1174107D01*
X360724Y1173071D01*
X356624Y1171372D01*
X352840Y1169053D01*
X349465Y1166171D01*
X346583Y1162797D01*
X344264Y1159013D01*
X342566Y1154913D01*
X341530Y1150598D01*
X341182Y1146174D01*
X341530Y1141749D01*
X342566Y1137434D01*
X344264Y1133334D01*
X346583Y1129550D01*
X349465Y1126176D01*
X352840Y1123294D01*
X356624Y1120975D01*
X359262Y1119882D01*
X359009Y1118612D01*
X310742D01*
X275349Y1154005D01*
X274214Y1154763D01*
X272877Y1155029D01*
X262342D01*
Y1155942D01*
X251294D01*
Y1155029D01*
X238126D01*
Y1155557D01*
X227078D01*
Y1155029D01*
X198328D01*
X196990Y1154763D01*
X195855Y1154005D01*
X183022Y1141171D01*
X182264Y1140037D01*
X182139Y1139410D01*
X182106Y1139388D01*
X181067Y1137833D01*
X180703Y1136000D01*
X181067Y1134166D01*
X182106Y1132612D01*
X183660Y1131574D01*
X185494Y1131209D01*
X187327Y1131574D01*
X188881Y1132612D01*
X189920Y1134166D01*
X190285Y1136000D01*
X189920Y1137833D01*
X189781Y1138042D01*
X199776Y1148037D01*
X227078D01*
Y1147509D01*
X238126D01*
Y1148037D01*
X251294D01*
Y1147894D01*
X262342D01*
Y1148037D01*
X271428D01*
X306821Y1112644D01*
X307956Y1111886D01*
X309294Y1111620D01*
X450186D01*
X450644Y1110515D01*
X452107Y1108609D01*
X453359Y1107648D01*
X452928Y1106378D01*
X438856D01*
X437518Y1106111D01*
X436384Y1105354D01*
X436384Y1105353D01*
X413475Y1082445D01*
X412718Y1081311D01*
X412451Y1079973D01*
Y1008848D01*
X405356Y1001753D01*
X339137D01*
X337799Y1001487D01*
X336664Y1000729D01*
X336664Y1000729D01*
X330328Y994393D01*
X329058Y994920D01*
Y1004526D01*
X328792Y1005864D01*
X328034Y1006998D01*
X328034Y1006998D01*
X261001Y1074032D01*
Y1091224D01*
X262342D01*
Y1099272D01*
X251294D01*
Y1091224D01*
X254009D01*
Y1072584D01*
X254275Y1071246D01*
X255033Y1070111D01*
X322066Y1003078D01*
Y992313D01*
X320893Y991827D01*
X235609Y1077111D01*
Y1091186D01*
X237656D01*
Y1099234D01*
X226608D01*
Y1091186D01*
X228616D01*
Y1075663D01*
X228883Y1074325D01*
X229640Y1073191D01*
X316691Y986141D01*
Y879265D01*
X316957Y877927D01*
X317715Y876792D01*
X352264Y842243D01*
X352264Y842243D01*
X353398Y841485D01*
X354736Y841219D01*
X394015D01*
X395353Y841485D01*
X396487Y842243D01*
X414988Y860744D01*
X414988Y860744D01*
X415746Y861878D01*
X416012Y863216D01*
Y881748D01*
X417282Y882427D01*
X417465Y882305D01*
X418840Y882031D01*
X420215Y882305D01*
X420461Y882469D01*
X422067Y882351D01*
X423569Y881347D01*
X424070Y881248D01*
Y894124D01*
Y907000D01*
X423569Y906901D01*
X422067Y905897D01*
X420461Y905779D01*
X420215Y905944D01*
X418840Y906217D01*
X417465Y905944D01*
X416375Y905215D01*
X416012Y905053D01*
X415168D01*
X414805Y905215D01*
X413715Y905944D01*
X412340Y906217D01*
X410965Y905944D01*
X409799Y905165D01*
X409725Y905053D01*
X408455D01*
X408381Y905165D01*
X407215Y905944D01*
X405840Y906217D01*
X404465Y905944D01*
X404219Y905779D01*
X402613Y905897D01*
X401111Y906901D01*
X400610Y907000D01*
Y894124D01*
Y881248D01*
X401111Y881347D01*
X401399Y881540D01*
X402520Y880941D01*
Y865707D01*
X394789Y857977D01*
X393519Y858503D01*
Y862896D01*
X389749D01*
Y857626D01*
X392643D01*
X393169Y856357D01*
X390479Y853666D01*
X360014D01*
X329058Y884622D01*
Y920347D01*
X330328Y920873D01*
X337357Y913845D01*
X338491Y913087D01*
X339829Y912821D01*
X357020D01*
Y903994D01*
X356747Y902624D01*
Y885624D01*
X357020Y884249D01*
X357799Y883083D01*
X358965Y882305D01*
X360340Y882031D01*
X361715Y882305D01*
X362805Y883033D01*
X363168Y883195D01*
X364012D01*
X364375Y883033D01*
X365465Y882305D01*
X366840Y882031D01*
X368215Y882305D01*
X369305Y883033D01*
X369442Y883094D01*
X370667Y882722D01*
Y869690D01*
X369455D01*
Y858643D01*
X377503D01*
Y869690D01*
X376365D01*
Y880959D01*
X377635Y881637D01*
X378069Y881347D01*
X378570Y881248D01*
Y894124D01*
X381110D01*
Y881248D01*
X381611Y881347D01*
X383113Y882351D01*
X384719Y882469D01*
X384965Y882305D01*
X386340Y882031D01*
X387715Y882305D01*
X388806Y883033D01*
X389168Y883195D01*
X390012D01*
X390374Y883033D01*
X391465Y882305D01*
X392840Y882031D01*
X394215Y882305D01*
X394461Y882469D01*
X396067Y882351D01*
X397569Y881347D01*
X398070Y881248D01*
Y894124D01*
Y907000D01*
X397782Y906943D01*
X396512Y907603D01*
Y909357D01*
X396512Y909357D01*
X396246Y910695D01*
X395488Y911829D01*
X388988Y918329D01*
X388988Y918329D01*
X376844Y930473D01*
X375710Y931231D01*
X374372Y931497D01*
X351419D01*
X347310Y935606D01*
Y980508D01*
X349879Y983077D01*
X419913D01*
X421251Y983343D01*
X422385Y984101D01*
X442263Y1003979D01*
X443021Y1005113D01*
X443287Y1006451D01*
Y1022393D01*
X499410Y1078515D01*
X500167Y1079649D01*
X500434Y1080987D01*
Y1122208D01*
X500167Y1123546D01*
X499410Y1124681D01*
X488840Y1135250D01*
X487706Y1136008D01*
X486368Y1136274D01*
X464669D01*
X463331Y1136008D01*
X462197Y1135250D01*
X462196Y1135250D01*
X456142Y1129195D01*
X455384Y1128061D01*
X455118Y1126723D01*
Y1123544D01*
X454013Y1123086D01*
X452107Y1121623D01*
X450644Y1119717D01*
X450186Y1118612D01*
X379917D01*
X379665Y1119882D01*
X382303Y1120975D01*
X386086Y1123294D01*
X389461Y1126176D01*
X392343Y1129550D01*
X394662Y1133334D01*
X396360Y1137434D01*
X397396Y1141749D01*
X397744Y1146174D01*
X397396Y1150598D01*
X396360Y1154913D01*
X394662Y1159013D01*
X392343Y1162797D01*
X389461Y1166171D01*
X386086Y1169053D01*
X382303Y1171372D01*
X378203Y1173071D01*
X373887Y1174107D01*
X369463Y1174455D01*
D02*
G37*
G36*
X52577D02*
X48153Y1174107D01*
X43838Y1173071D01*
X39738Y1171372D01*
X35954Y1169053D01*
X32579Y1166171D01*
X29697Y1162797D01*
X27378Y1159013D01*
X25680Y1154913D01*
X24644Y1150598D01*
X24296Y1146174D01*
X24644Y1141749D01*
X25680Y1137434D01*
X27378Y1133334D01*
X29697Y1129550D01*
X32579Y1126176D01*
X35954Y1123294D01*
X39738Y1120975D01*
X43838Y1119277D01*
X48153Y1118241D01*
X52577Y1117892D01*
X57001Y1118241D01*
X61316Y1119277D01*
X65416Y1120975D01*
X69200Y1123294D01*
X72575Y1126176D01*
X75457Y1129550D01*
X77776Y1133334D01*
X79474Y1137434D01*
X80510Y1141749D01*
X80858Y1146174D01*
X80510Y1150598D01*
X79474Y1154913D01*
X77776Y1159013D01*
X75457Y1162797D01*
X72575Y1166171D01*
X69200Y1169053D01*
X65416Y1171372D01*
X61316Y1173071D01*
X57001Y1174107D01*
X52577Y1174455D01*
D02*
G37*
G36*
X262342Y1140942D02*
X251294D01*
Y1132894D01*
X253322D01*
Y1114272D01*
X251294D01*
Y1106224D01*
X262342D01*
Y1114272D01*
X260315D01*
Y1132894D01*
X262342D01*
Y1140942D01*
D02*
G37*
G36*
X238126Y1140557D02*
X227078D01*
Y1132509D01*
X228636D01*
Y1114234D01*
X226608D01*
Y1106187D01*
X237656D01*
Y1114234D01*
X235629D01*
Y1132509D01*
X238126D01*
Y1140557D01*
D02*
G37*
G36*
X505714Y1060025D02*
X502279Y1059686D01*
X498975Y1058684D01*
X495931Y1057057D01*
X493263Y1054867D01*
X491073Y1052199D01*
X489446Y1049155D01*
X488444Y1045851D01*
X488105Y1042416D01*
X488444Y1038981D01*
X489446Y1035677D01*
X491073Y1032633D01*
X493263Y1029965D01*
X495931Y1027775D01*
X498975Y1026148D01*
X502279Y1025146D01*
X505714Y1024807D01*
X509149Y1025146D01*
X512453Y1026148D01*
X515497Y1027775D01*
X518165Y1029965D01*
X520355Y1032633D01*
X521982Y1035677D01*
X522984Y1038981D01*
X523323Y1042416D01*
X522984Y1045851D01*
X521982Y1049155D01*
X520355Y1052199D01*
X518165Y1054867D01*
X515497Y1057057D01*
X512453Y1058684D01*
X509149Y1059686D01*
X505714Y1060025D01*
D02*
G37*
G36*
X446836Y980198D02*
X446836Y980198D01*
X422941D01*
X421851Y979982D01*
X420927Y979364D01*
X420927Y979364D01*
X417001Y975439D01*
X416384Y974515D01*
X416336Y974273D01*
X415945Y974053D01*
X415168D01*
X414805Y974215D01*
X413715Y974943D01*
X412340Y975217D01*
X410965Y974943D01*
X410719Y974779D01*
X409113Y974897D01*
X407611Y975901D01*
X407110Y976000D01*
Y963124D01*
Y950248D01*
X407611Y950347D01*
X409113Y951351D01*
X410719Y951469D01*
X410965Y951304D01*
X412340Y951031D01*
X413715Y951304D01*
X414805Y952033D01*
X415168Y952195D01*
X416012D01*
X416375Y952033D01*
X417465Y951304D01*
X418840Y951031D01*
X420215Y951304D01*
X421306Y952033D01*
X421442Y952094D01*
X422667Y951722D01*
Y943799D01*
X421677Y943137D01*
X420638Y941583D01*
X420273Y939749D01*
X420638Y937916D01*
X421677Y936362D01*
X423231Y935323D01*
X425065Y934958D01*
X426898Y935323D01*
X428452Y936362D01*
X429110Y937346D01*
X430558Y937610D01*
X430675Y937577D01*
X432891Y935361D01*
X431933Y933928D01*
X431569Y932095D01*
X431933Y930261D01*
X432972Y928707D01*
X433954Y928051D01*
X433569Y926781D01*
X408745D01*
X385653Y949873D01*
X386278Y951043D01*
X386340Y951031D01*
X387715Y951304D01*
X388806Y952033D01*
X389168Y952195D01*
X390012D01*
X390374Y952033D01*
X391465Y951304D01*
X392840Y951031D01*
X394215Y951304D01*
X395381Y952083D01*
X395455Y952195D01*
X396725D01*
X396799Y952083D01*
X397965Y951304D01*
X399340Y951031D01*
X400715Y951304D01*
X400961Y951469D01*
X402567Y951351D01*
X404069Y950347D01*
X404570Y950248D01*
Y963124D01*
Y976000D01*
X404069Y975901D01*
X402567Y974897D01*
X400961Y974779D01*
X400715Y974943D01*
X399340Y975217D01*
X397965Y974943D01*
X396799Y974165D01*
X396725Y974053D01*
X395455D01*
X395381Y974165D01*
X394215Y974943D01*
X392840Y975217D01*
X391465Y974943D01*
X390374Y974215D01*
X390012Y974053D01*
X389168D01*
X388806Y974215D01*
X387715Y974943D01*
X386340Y975217D01*
X384965Y974943D01*
X383799Y974165D01*
X383725Y974053D01*
X382455D01*
X382381Y974165D01*
X381215Y974943D01*
X379840Y975217D01*
X378465Y974943D01*
X377374Y974215D01*
X377012Y974053D01*
X376168D01*
X375806Y974215D01*
X374715Y974943D01*
X373340Y975217D01*
X371965Y974943D01*
X370799Y974165D01*
X370725Y974053D01*
X369455D01*
X369381Y974165D01*
X368215Y974943D01*
X366840Y975217D01*
X365465Y974943D01*
X364375Y974215D01*
X364012Y974053D01*
X363168D01*
X362805Y974215D01*
X361715Y974943D01*
X360340Y975217D01*
X358965Y974943D01*
X357799Y974165D01*
X357020Y972999D01*
X356747Y971624D01*
Y954624D01*
X357020Y953249D01*
X357799Y952083D01*
X358965Y951304D01*
X360340Y951031D01*
X361715Y951304D01*
X362805Y952033D01*
X363168Y952195D01*
X364012D01*
X364375Y952033D01*
X365465Y951304D01*
X366840Y951031D01*
X368215Y951304D01*
X369381Y952083D01*
X369455Y952195D01*
X370725D01*
X370799Y952083D01*
X371965Y951304D01*
X373340Y951031D01*
X374715Y951304D01*
X375881Y952083D01*
X375897Y952108D01*
X377167Y951722D01*
Y951481D01*
X377167Y951481D01*
X377384Y950391D01*
X378001Y949466D01*
X405550Y921918D01*
X406474Y921300D01*
X407565Y921083D01*
X407565Y921083D01*
X442052D01*
X442437Y919813D01*
X442027Y919540D01*
X440989Y917986D01*
X440624Y916152D01*
X440989Y914319D01*
X442027Y912764D01*
X443582Y911726D01*
X445415Y911361D01*
X447249Y911726D01*
X448803Y912764D01*
X449163Y913303D01*
X465662D01*
X466857Y912108D01*
Y794875D01*
X465587Y794197D01*
X465217Y794444D01*
X463384Y794808D01*
X461550Y794444D01*
X459996Y793405D01*
X458958Y791851D01*
X458783Y790972D01*
X457513Y791097D01*
Y815089D01*
X458052Y815449D01*
X459090Y817004D01*
X459455Y818837D01*
X459090Y820670D01*
X458052Y822225D01*
X456497Y823263D01*
X454664Y823628D01*
X452831Y823263D01*
X451276Y822225D01*
X450238Y820670D01*
X449873Y818837D01*
X450238Y817004D01*
X451276Y815449D01*
X451815Y815089D01*
Y733715D01*
X450642Y733229D01*
X293208Y890663D01*
Y952294D01*
X293208Y952294D01*
X292992Y953385D01*
X292374Y954309D01*
X292374Y954309D01*
X284317Y962366D01*
X284729Y962904D01*
X285394Y964510D01*
X285621Y966234D01*
X285394Y967958D01*
X284729Y969565D01*
X283670Y970944D01*
X282291Y972003D01*
X280684Y972668D01*
X278960Y972895D01*
X273880D01*
X272156Y972668D01*
X270550Y972003D01*
X269170Y970944D01*
X268111Y969565D01*
X267446Y967958D01*
X267219Y966234D01*
X267446Y964510D01*
X268111Y962904D01*
X269170Y961524D01*
X270550Y960465D01*
X272156Y959800D01*
X273880Y959573D01*
X278960D01*
X279042Y959584D01*
X287511Y951114D01*
Y918021D01*
X286241Y917768D01*
X285616Y919277D01*
X284395Y920869D01*
X282803Y922090D01*
X281500Y922630D01*
Y915434D01*
Y908238D01*
X282803Y908778D01*
X284395Y909999D01*
X285616Y911591D01*
X286241Y913100D01*
X287511Y912847D01*
Y892272D01*
X286338Y891786D01*
X286075Y892048D01*
X285151Y892666D01*
X285006Y892695D01*
X284729Y893364D01*
X283670Y894744D01*
X282291Y895803D01*
X280684Y896468D01*
X278960Y896695D01*
X273880D01*
X272156Y896468D01*
X270550Y895803D01*
X269170Y894744D01*
X268111Y893364D01*
X267446Y891758D01*
X267219Y890034D01*
X267446Y888310D01*
X268111Y886703D01*
X269170Y885324D01*
X270550Y884265D01*
X272156Y883600D01*
X273880Y883373D01*
X278960D01*
X280684Y883600D01*
X282291Y884265D01*
X283670Y885324D01*
X284676Y885390D01*
X443175Y726891D01*
Y636749D01*
X340665Y534239D01*
X340047Y533315D01*
X339831Y532225D01*
X339831Y532224D01*
Y522893D01*
X338561Y522190D01*
X337679Y522365D01*
X336798Y522190D01*
X335528Y522893D01*
Y544370D01*
X348342Y557184D01*
X353861D01*
Y565232D01*
X342813D01*
Y559713D01*
X330665Y547564D01*
X330047Y546640D01*
X329831Y545550D01*
X329831Y545550D01*
Y524115D01*
X328949Y523498D01*
Y510282D01*
X326409D01*
Y523498D01*
X325528Y524115D01*
Y525345D01*
X326141Y525755D01*
X327180Y527309D01*
X327545Y529142D01*
X327180Y530976D01*
X326141Y532530D01*
X325528Y532940D01*
Y602557D01*
X346245Y623275D01*
X346245Y623275D01*
X346863Y624199D01*
X347080Y625289D01*
Y641776D01*
X347239Y641797D01*
X350043Y642958D01*
X352450Y644805D01*
X354297Y647213D01*
X355458Y650016D01*
X355764Y652340D01*
X355778Y652445D01*
X357059D01*
X357073Y652340D01*
X357414Y649751D01*
X358677Y646700D01*
X360687Y644081D01*
X363307Y642071D01*
X364551Y641555D01*
Y653024D01*
Y664493D01*
X363307Y663978D01*
X360687Y661968D01*
X358677Y659349D01*
X357414Y656298D01*
X357073Y653709D01*
X357059Y653604D01*
X355778D01*
X355764Y653709D01*
X355458Y656033D01*
X354297Y658836D01*
X352450Y661243D01*
X350043Y663091D01*
X347239Y664252D01*
X344231Y664648D01*
X341223Y664252D01*
X338419Y663091D01*
X336012Y661243D01*
X334165Y658836D01*
X333742Y657815D01*
X321880D01*
X320047Y657451D01*
X318492Y656412D01*
X296937Y634857D01*
X295898Y633302D01*
X295534Y631469D01*
Y583955D01*
X294709Y583322D01*
X293447Y581677D01*
X292653Y579761D01*
X292383Y577706D01*
X292653Y575650D01*
X293447Y573735D01*
X294709Y572090D01*
X296354Y570828D01*
X298269Y570035D01*
X300325Y569764D01*
X302380Y570035D01*
X304296Y570828D01*
X305940Y572090D01*
X307202Y573735D01*
X307996Y575650D01*
X308267Y577706D01*
X307996Y579761D01*
X307202Y581677D01*
X305940Y583322D01*
X305116Y583955D01*
Y629484D01*
X323865Y648233D01*
X333742D01*
X334165Y647213D01*
X336012Y644805D01*
X338419Y642958D01*
X341223Y641797D01*
X341382Y641776D01*
Y626469D01*
X320665Y605752D01*
X320047Y604827D01*
X319831Y603737D01*
X319831Y603737D01*
Y532841D01*
X319366Y532530D01*
X318327Y530976D01*
X317962Y529142D01*
X318327Y527309D01*
X319366Y525755D01*
X319831Y525444D01*
Y520461D01*
X319596Y519282D01*
Y501282D01*
X319831Y500103D01*
Y497765D01*
X319831Y497765D01*
X320014Y496846D01*
X319953Y496782D01*
X318766Y496297D01*
X317842Y496914D01*
X316904Y497101D01*
X316859Y497131D01*
X315679Y497365D01*
X297679D01*
X296500Y497131D01*
X295499Y496462D01*
X294831Y495462D01*
X294596Y494282D01*
X294831Y493102D01*
X295499Y492102D01*
Y491462D01*
X294831Y490462D01*
X294596Y489282D01*
X294831Y488102D01*
X295499Y487102D01*
Y486462D01*
X294831Y485462D01*
X294596Y484282D01*
X294831Y483102D01*
X295499Y482102D01*
Y481462D01*
X294831Y480462D01*
X294596Y479282D01*
X294831Y478102D01*
X295499Y477102D01*
Y476462D01*
X294831Y475462D01*
X294596Y474282D01*
X294771Y473401D01*
X294069Y472131D01*
X290659D01*
X287350Y475440D01*
Y588490D01*
X287134Y589580D01*
X286516Y590504D01*
X286516Y590504D01*
X257556Y619464D01*
Y636469D01*
X258095Y636829D01*
X259134Y638383D01*
X259498Y640217D01*
X259134Y642050D01*
X258095Y643604D01*
X256541Y644643D01*
X254707Y645007D01*
X252874Y644643D01*
X251320Y643604D01*
X250281Y642050D01*
X249916Y640217D01*
X250281Y638383D01*
X251320Y636829D01*
X251859Y636469D01*
Y618284D01*
X251859Y618284D01*
X252075Y617194D01*
X252693Y616270D01*
X254868Y614094D01*
X254548Y613226D01*
X254279Y612888D01*
X247957D01*
Y614063D01*
X236909D01*
Y612601D01*
X223182D01*
Y615276D01*
X215134D01*
Y604228D01*
X223182D01*
Y606903D01*
X236909D01*
Y606015D01*
X247957D01*
Y607191D01*
X253243D01*
X273903Y586530D01*
X273750Y585912D01*
X273384Y585254D01*
X271765Y584931D01*
X270210Y583893D01*
X269172Y582339D01*
X268807Y580505D01*
X269172Y578672D01*
X270210Y577117D01*
X270749Y576757D01*
Y476458D01*
X269576Y475972D01*
X241655Y503893D01*
Y544739D01*
X242830D01*
Y547414D01*
X256497D01*
Y546174D01*
X267545D01*
Y554222D01*
X256497D01*
Y553112D01*
X242830D01*
Y555787D01*
X234782D01*
Y544739D01*
X235957D01*
Y502713D01*
X235957Y502713D01*
X236174Y501623D01*
X236792Y500699D01*
X284090Y453401D01*
X283564Y452131D01*
X151362D01*
X150272Y451914D01*
X149348Y451297D01*
X149348Y451297D01*
X144313Y446262D01*
X133425D01*
X132511Y448468D01*
X130905Y450562D01*
X128811Y452169D01*
X126372Y453179D01*
X123755Y453524D01*
X121139Y453179D01*
X118700Y452169D01*
X116606Y450562D01*
X115000Y448468D01*
X113989Y446030D01*
X113645Y443413D01*
X113989Y440796D01*
X115000Y438358D01*
X116606Y436264D01*
X118700Y434657D01*
X121139Y433647D01*
X123755Y433303D01*
X126372Y433647D01*
X128811Y434657D01*
X130905Y436264D01*
X132511Y438358D01*
X133425Y440564D01*
X145082D01*
X145631Y439490D01*
X145650Y439337D01*
X128579Y422265D01*
X126372Y423179D01*
X123755Y423524D01*
X121139Y423179D01*
X118700Y422169D01*
X116606Y420562D01*
X115000Y418468D01*
X113989Y416030D01*
X113645Y413413D01*
X113989Y410796D01*
X115000Y408358D01*
X116606Y406264D01*
X118700Y404657D01*
X121139Y403647D01*
X123755Y403303D01*
X126372Y403647D01*
X128811Y404657D01*
X130905Y406264D01*
X132511Y408358D01*
X133521Y410796D01*
X133866Y413413D01*
X133521Y416030D01*
X132607Y418236D01*
X155804Y441433D01*
X175951D01*
X176477Y440163D01*
X128579Y392265D01*
X126372Y393179D01*
X123755Y393524D01*
X121139Y393179D01*
X118700Y392169D01*
X116606Y390562D01*
X115000Y388468D01*
X113989Y386030D01*
X113645Y383413D01*
X113989Y380796D01*
X115000Y378358D01*
X116606Y376264D01*
X118700Y374657D01*
X121139Y373647D01*
X123755Y373303D01*
X126372Y373647D01*
X128811Y374657D01*
X130905Y376264D01*
X132511Y378358D01*
X133521Y380796D01*
X133866Y383413D01*
X133521Y386030D01*
X132607Y388236D01*
X180804Y436433D01*
X200951D01*
X201477Y435163D01*
X128579Y362265D01*
X126372Y363179D01*
X123755Y363524D01*
X121139Y363179D01*
X118700Y362169D01*
X116606Y360562D01*
X115000Y358468D01*
X113989Y356030D01*
X113645Y353413D01*
X113989Y350796D01*
X115000Y348358D01*
X116606Y346264D01*
X118700Y344657D01*
X121139Y343647D01*
X123755Y343303D01*
X126372Y343647D01*
X128811Y344657D01*
X130905Y346264D01*
X132511Y348358D01*
X133521Y350796D01*
X133866Y353413D01*
X133521Y356030D01*
X132607Y358236D01*
X205804Y431433D01*
X294069D01*
X294771Y430163D01*
X294596Y429282D01*
X294831Y428102D01*
X295499Y427102D01*
Y426462D01*
X294831Y425462D01*
X294596Y424282D01*
X294831Y423102D01*
X295499Y422102D01*
Y421462D01*
X294831Y420462D01*
X294596Y419282D01*
X294831Y418102D01*
X295499Y417102D01*
Y416462D01*
X294831Y415462D01*
X294596Y414282D01*
X294831Y413102D01*
X295499Y412102D01*
Y411462D01*
X294831Y410462D01*
X294596Y409282D01*
X294831Y408102D01*
X295230Y407505D01*
X294767Y407195D01*
X293874Y405858D01*
X293813Y405552D01*
X306679D01*
X319546D01*
X319485Y405858D01*
X318592Y407195D01*
X318129Y407505D01*
X318528Y408102D01*
X318763Y409282D01*
X318528Y410462D01*
X317860Y411462D01*
Y412102D01*
X318528Y413102D01*
X318763Y414282D01*
X318528Y415462D01*
X317860Y416462D01*
Y417102D01*
X318528Y418102D01*
X318763Y419282D01*
X318528Y420462D01*
X317860Y421462D01*
Y422102D01*
X318528Y423102D01*
X318763Y424282D01*
X318587Y425163D01*
X319290Y426433D01*
X322510D01*
X322510Y426433D01*
X323600Y426650D01*
X324524Y427268D01*
X339907Y442650D01*
X339907Y442650D01*
X340524Y443574D01*
X340741Y444665D01*
Y474092D01*
X341280Y474453D01*
X342318Y476007D01*
X342683Y477840D01*
X342318Y479674D01*
X342066Y480051D01*
X342665Y481171D01*
X423525D01*
X423525Y481171D01*
X424689D01*
Y443226D01*
X424058Y442804D01*
X423019Y441250D01*
X422655Y439416D01*
X423019Y437583D01*
X424058Y436029D01*
X424689Y435606D01*
Y384282D01*
X424689Y384282D01*
X424831Y383573D01*
Y377127D01*
X422418D01*
X422418Y377127D01*
X422417Y377127D01*
X412437D01*
X412437Y377127D01*
X412437Y377127D01*
X372373D01*
X372373Y377127D01*
X372373Y377127D01*
X346780D01*
X346419Y377666D01*
X344865Y378705D01*
X343032Y379069D01*
X341198Y378705D01*
X339644Y377666D01*
X339286Y377131D01*
X320512D01*
X319895Y378012D01*
X306679D01*
X293463D01*
X292847Y377131D01*
X263276D01*
X262626Y378104D01*
X261071Y379143D01*
X259238Y379508D01*
X257405Y379143D01*
X255850Y378104D01*
X255490Y377565D01*
X240978D01*
Y379185D01*
X229930D01*
Y371137D01*
X240978D01*
Y371868D01*
X255490D01*
X255850Y371329D01*
X257405Y370290D01*
X259238Y369925D01*
X261071Y370290D01*
X262626Y371329D01*
X262696Y371433D01*
X296500D01*
X297679Y371199D01*
X315679D01*
X316858Y371433D01*
X321539D01*
X321664Y370163D01*
X321499Y370131D01*
X320499Y369462D01*
X319831Y368462D01*
X319596Y367282D01*
Y349282D01*
X319831Y348102D01*
X320499Y347102D01*
X321499Y346434D01*
X322679Y346199D01*
X323859Y346434D01*
X324246Y346692D01*
X325179Y346997D01*
X326113Y346692D01*
X326499Y346434D01*
X327679Y346199D01*
X328859Y346434D01*
X329860Y347102D01*
X330499D01*
X331499Y346434D01*
X332679Y346199D01*
X333859Y346434D01*
X334246Y346692D01*
X335179Y346997D01*
X336113Y346692D01*
X336499Y346434D01*
X337679Y346199D01*
X338859Y346434D01*
X339860Y347102D01*
X340499D01*
X341499Y346434D01*
X342679Y346199D01*
X343859Y346434D01*
X344860Y347102D01*
X345499D01*
X346499Y346434D01*
X347679Y346199D01*
X348859Y346434D01*
X349246Y346692D01*
X350179Y346997D01*
X351113Y346692D01*
X351499Y346434D01*
X352679Y346199D01*
X353859Y346434D01*
X354860Y347102D01*
X355499D01*
X356499Y346434D01*
X357679Y346199D01*
X358859Y346434D01*
X359246Y346692D01*
X360179Y346997D01*
X361113Y346692D01*
X361499Y346434D01*
X362679Y346199D01*
X363859Y346434D01*
X364457Y346833D01*
X364767Y346370D01*
X366103Y345477D01*
X366409Y345416D01*
Y358282D01*
X368949D01*
Y345416D01*
X369256Y345477D01*
X370592Y346370D01*
X370902Y346833D01*
X371499Y346434D01*
X372679Y346199D01*
X373561Y346374D01*
X374831Y345672D01*
Y337342D01*
X362806Y325318D01*
X362678Y325416D01*
X359875Y326577D01*
X356867Y326973D01*
X353858Y326577D01*
X351055Y325416D01*
X348648Y323569D01*
X346801Y321161D01*
X345639Y318358D01*
X345243Y315350D01*
X345639Y312341D01*
X346801Y309538D01*
X348648Y307131D01*
X350832Y305455D01*
X350622Y304185D01*
X299074D01*
X259012Y344247D01*
X258088Y344865D01*
X256997Y345082D01*
X256997Y345082D01*
X241507D01*
Y346257D01*
X238302D01*
Y356137D01*
X240978D01*
Y364185D01*
X229930D01*
Y356137D01*
X232605D01*
Y346257D01*
X230459D01*
Y345684D01*
X177115D01*
X177115Y345684D01*
X176025Y345467D01*
X175101Y344849D01*
X164873Y334621D01*
X164256Y333697D01*
X164039Y332607D01*
X164039Y332607D01*
Y326866D01*
X158363D01*
Y308318D01*
X164039D01*
Y247366D01*
X158363D01*
Y228818D01*
X175411D01*
Y247366D01*
X169736D01*
Y308318D01*
X175411D01*
Y326866D01*
X169736D01*
Y331427D01*
X178295Y339986D01*
X230459D01*
Y338209D01*
X241507D01*
Y339384D01*
X255817D01*
X295879Y299322D01*
X295879Y299322D01*
X296804Y298704D01*
X297894Y298487D01*
X297894Y298487D01*
X411084D01*
X411084Y298487D01*
X412174Y298704D01*
X413098Y299322D01*
X420475Y306698D01*
X420475Y306699D01*
X421093Y307623D01*
X421310Y308713D01*
Y320691D01*
X421310Y320691D01*
X421093Y321781D01*
X420475Y322706D01*
X420475Y322706D01*
X413020Y330160D01*
X412096Y330778D01*
X411006Y330995D01*
X411006Y330995D01*
X405294D01*
X400561Y335727D01*
X400688Y336363D01*
X400323Y338197D01*
X399284Y339751D01*
X397730Y340790D01*
X395897Y341154D01*
X395261Y341028D01*
X391229Y345060D01*
X391674Y346314D01*
X391798Y346374D01*
X392679Y346199D01*
X393859Y346434D01*
X394860Y347102D01*
X395499D01*
X396499Y346434D01*
X397679Y346199D01*
X398859Y346434D01*
X399246Y346692D01*
X400179Y346997D01*
X401113Y346692D01*
X401499Y346434D01*
X402679Y346199D01*
X403859Y346434D01*
X404860Y347102D01*
X405499D01*
X406499Y346434D01*
X407679Y346199D01*
X408859Y346434D01*
X409246Y346692D01*
X410179Y346997D01*
X411113Y346692D01*
X411499Y346434D01*
X412679Y346199D01*
X413859Y346434D01*
X414457Y346833D01*
X414767Y346370D01*
X416103Y345477D01*
X416409Y345416D01*
Y358282D01*
X418949D01*
Y345416D01*
X419256Y345477D01*
X420592Y346370D01*
X420902Y346833D01*
X421499Y346434D01*
X422679Y346199D01*
X423859Y346434D01*
X424246Y346692D01*
X425179Y346997D01*
X426113Y346692D01*
X426499Y346434D01*
X427679Y346199D01*
X428859Y346434D01*
X429246Y346692D01*
X430179Y346997D01*
X431113Y346692D01*
X431499Y346434D01*
X432679Y346199D01*
X433859Y346434D01*
X434860Y347102D01*
X435499D01*
X436499Y346434D01*
X437679Y346199D01*
X438859Y346434D01*
X439246Y346692D01*
X440179Y346997D01*
X441113Y346692D01*
X441499Y346434D01*
X442679Y346199D01*
X443859Y346434D01*
X444860Y347102D01*
X445528Y348102D01*
X445763Y349282D01*
Y367282D01*
X445528Y368462D01*
X444860Y369462D01*
X443859Y370131D01*
X442679Y370365D01*
X441499Y370131D01*
X441113Y369873D01*
X440179Y369567D01*
X439246Y369873D01*
X438859Y370131D01*
X437679Y370365D01*
X436499Y370131D01*
X435499Y369462D01*
X434860D01*
X433859Y370131D01*
X432679Y370365D01*
X431798Y370190D01*
X430528Y370893D01*
Y374319D01*
X430528Y374319D01*
X430528Y374320D01*
Y381433D01*
X444847D01*
X445463Y380552D01*
X458679D01*
X471546D01*
X471485Y380858D01*
X470592Y382195D01*
X470129Y382505D01*
X470528Y383102D01*
X470763Y384282D01*
X470528Y385462D01*
X469860Y386462D01*
Y387102D01*
X470528Y388102D01*
X470574Y388333D01*
X471952Y388751D01*
X511519Y349184D01*
Y168433D01*
X499231Y156145D01*
X493712D01*
Y145097D01*
X501759D01*
Y150617D01*
X515249Y164106D01*
X516519Y163580D01*
Y150379D01*
X499231Y133091D01*
X493712D01*
Y122043D01*
X501759D01*
Y127563D01*
X520249Y146052D01*
X521519Y145526D01*
Y132325D01*
X499231Y110037D01*
X493712D01*
Y98989D01*
X501759D01*
Y104509D01*
X526382Y129131D01*
X526382Y129131D01*
X526999Y130055D01*
X527216Y131145D01*
X527216Y131146D01*
Y351859D01*
X526999Y352949D01*
X526382Y353873D01*
X526382Y353873D01*
X473959Y406297D01*
X473034Y406914D01*
X471944Y407131D01*
X471944Y407131D01*
X471290D01*
X470587Y408401D01*
X470763Y409282D01*
X470528Y410462D01*
X469860Y411462D01*
Y412102D01*
X470528Y413102D01*
X470763Y414282D01*
X470528Y415462D01*
X469860Y416462D01*
Y417102D01*
X470528Y418102D01*
X470763Y419282D01*
X470528Y420462D01*
X469860Y421462D01*
Y422102D01*
X470528Y423102D01*
X470763Y424282D01*
X470528Y425462D01*
X469860Y426462D01*
Y427102D01*
X470528Y428102D01*
X470763Y429282D01*
X470528Y430462D01*
X469860Y431462D01*
Y432102D01*
X470528Y433102D01*
X470763Y434282D01*
X470587Y435163D01*
X471290Y436433D01*
X501284D01*
X501509Y436098D01*
X503063Y435059D01*
X504896Y434695D01*
X506730Y435059D01*
X508284Y436098D01*
X509323Y437652D01*
X509687Y439486D01*
X509323Y441319D01*
X508284Y442873D01*
X506730Y443912D01*
X504896Y444277D01*
X503063Y443912D01*
X501509Y442873D01*
X501012Y442131D01*
X495846D01*
X495320Y443401D01*
X497356Y445437D01*
X497992Y445310D01*
X499825Y445675D01*
X501380Y446713D01*
X502418Y448268D01*
X502783Y450101D01*
X502418Y451935D01*
X501380Y453489D01*
X499825Y454528D01*
X497992Y454892D01*
X496158Y454528D01*
X495707Y454226D01*
X494953Y455210D01*
X495992Y456764D01*
X496357Y458597D01*
X495992Y460431D01*
X494953Y461985D01*
X493399Y463024D01*
X491566Y463389D01*
X491281Y463332D01*
X490517Y464475D01*
X490627Y464640D01*
X490992Y466473D01*
X490627Y468307D01*
X489589Y469861D01*
X488034Y470900D01*
X486201Y471264D01*
X484367Y470900D01*
X482813Y469861D01*
X481775Y468307D01*
X481410Y466473D01*
X481536Y465837D01*
X472830Y457131D01*
X471290D01*
X470587Y458401D01*
X470763Y459282D01*
X470528Y460462D01*
X469860Y461462D01*
Y462102D01*
X470528Y463102D01*
X470763Y464282D01*
X470528Y465462D01*
X469860Y466462D01*
Y467102D01*
X470528Y468102D01*
X470763Y469282D01*
X470528Y470462D01*
X469860Y471462D01*
Y472102D01*
X470528Y473102D01*
X470763Y474282D01*
X470587Y475163D01*
X471290Y476433D01*
X504453D01*
X504453Y476433D01*
X505544Y476650D01*
X506468Y477268D01*
X513265Y484065D01*
X513265Y484065D01*
X513882Y484989D01*
X514099Y486079D01*
X514099Y486080D01*
Y521296D01*
X513882Y522387D01*
X513265Y523311D01*
X513265Y523311D01*
X484747Y551829D01*
Y918513D01*
X484747Y918513D01*
X484530Y919603D01*
X483912Y920527D01*
X483912Y920527D01*
X452659Y951781D01*
Y974376D01*
X452659Y974376D01*
X452442Y975466D01*
X451824Y976390D01*
X448851Y979364D01*
X447926Y979982D01*
X446836Y980198D01*
D02*
G37*
G36*
X126705Y982215D02*
X124089Y981870D01*
X121650Y980860D01*
X119556Y979253D01*
X117949Y977159D01*
X116939Y974721D01*
X116595Y972104D01*
X116939Y969487D01*
X117949Y967049D01*
X119556Y964955D01*
X121650Y963348D01*
X124089Y962338D01*
X126705Y961993D01*
X129322Y962338D01*
X131761Y963348D01*
X133855Y964955D01*
X135461Y967049D01*
X136471Y969487D01*
X136816Y972104D01*
X136471Y974721D01*
X135461Y977159D01*
X133855Y979253D01*
X131761Y980860D01*
X129322Y981870D01*
X126705Y982215D01*
D02*
G37*
G36*
X96705D02*
X94089Y981870D01*
X91650Y980860D01*
X89556Y979253D01*
X87949Y977159D01*
X86939Y974721D01*
X86595Y972104D01*
X86939Y969487D01*
X87949Y967049D01*
X89556Y964955D01*
X91650Y963348D01*
X94089Y962338D01*
X96705Y961993D01*
X99322Y962338D01*
X101761Y963348D01*
X103855Y964955D01*
X105461Y967049D01*
X106471Y969487D01*
X106816Y972104D01*
X106471Y974721D01*
X105461Y977159D01*
X103855Y979253D01*
X101761Y980860D01*
X99322Y981870D01*
X96705Y982215D01*
D02*
G37*
G36*
X200220Y972895D02*
X195140D01*
X193416Y972668D01*
X191810Y972003D01*
X190430Y970944D01*
X189371Y969565D01*
X188706Y967958D01*
X188479Y966234D01*
X188706Y964510D01*
X189371Y962904D01*
X190430Y961524D01*
X191810Y960465D01*
X193416Y959800D01*
X195140Y959573D01*
X200220D01*
X201944Y959800D01*
X203551Y960465D01*
X204930Y961524D01*
X205989Y962904D01*
X206654Y964510D01*
X206881Y966234D01*
X206654Y967958D01*
X205989Y969565D01*
X204930Y970944D01*
X203551Y972003D01*
X201944Y972668D01*
X200220Y972895D01*
D02*
G37*
G36*
X101785Y951949D02*
Y947184D01*
X106551D01*
X106349Y947672D01*
X104579Y949978D01*
X102273Y951747D01*
X101785Y951949D01*
D02*
G37*
G36*
X91625Y951949D02*
X91138Y951747D01*
X88832Y949978D01*
X87062Y947672D01*
X86860Y947184D01*
X91625D01*
Y951949D01*
D02*
G37*
G36*
X541139Y965627D02*
X538587Y965291D01*
X536208Y964306D01*
X534165Y962738D01*
X532598Y960696D01*
X531612Y958317D01*
X531276Y955764D01*
X531612Y953211D01*
X532598Y950832D01*
X534165Y948790D01*
X536208Y947222D01*
X538587Y946237D01*
X541139Y945901D01*
X543692Y946237D01*
X546071Y947222D01*
X548114Y948790D01*
X549681Y950832D01*
X550667Y953211D01*
X551003Y955764D01*
X550667Y958317D01*
X549681Y960696D01*
X548114Y962738D01*
X546071Y964306D01*
X543692Y965291D01*
X541139Y965627D01*
D02*
G37*
G36*
X515740D02*
X513187Y965291D01*
X510808Y964306D01*
X508765Y962738D01*
X507197Y960696D01*
X506212Y958317D01*
X505876Y955764D01*
X506212Y953211D01*
X507197Y950832D01*
X508765Y948790D01*
X510808Y947222D01*
X513187Y946237D01*
X515740Y945901D01*
X518292Y946237D01*
X520671Y947222D01*
X522714Y948790D01*
X524281Y950832D01*
X525267Y953211D01*
X525603Y955764D01*
X525267Y958317D01*
X524281Y960696D01*
X522714Y962738D01*
X520671Y964306D01*
X518292Y965291D01*
X515740Y965627D01*
D02*
G37*
G36*
X200220Y947495D02*
X195140D01*
X193416Y947268D01*
X191810Y946603D01*
X190430Y945544D01*
X189371Y944165D01*
X188706Y942558D01*
X188479Y940834D01*
X188706Y939110D01*
X189371Y937504D01*
X190430Y936124D01*
X191810Y935065D01*
X193416Y934400D01*
X195140Y934173D01*
X200220D01*
X201944Y934400D01*
X203551Y935065D01*
X204930Y936124D01*
X205989Y937504D01*
X206654Y939110D01*
X206881Y940834D01*
X206654Y942558D01*
X205989Y944165D01*
X204930Y945544D01*
X203551Y946603D01*
X201944Y947268D01*
X200220Y947495D01*
D02*
G37*
G36*
X106551Y937024D02*
X101785D01*
Y932259D01*
X102273Y932461D01*
X104579Y934230D01*
X106349Y936536D01*
X106551Y937024D01*
D02*
G37*
G36*
X91625D02*
X86860D01*
X87062Y936536D01*
X88832Y934230D01*
X91138Y932461D01*
X91625Y932259D01*
Y937024D01*
D02*
G37*
G36*
X126705Y952215D02*
X124089Y951870D01*
X121650Y950860D01*
X119556Y949253D01*
X117949Y947159D01*
X116939Y944721D01*
X116595Y942104D01*
X116939Y939487D01*
X117949Y937049D01*
X119556Y934955D01*
X121650Y933348D01*
X124089Y932338D01*
X126705Y931993D01*
X129322Y932338D01*
X131761Y933348D01*
X133855Y934955D01*
X135461Y937049D01*
X136471Y939487D01*
X136816Y942104D01*
X136471Y944721D01*
X135461Y947159D01*
X133855Y949253D01*
X131761Y950860D01*
X129322Y951870D01*
X126705Y952215D01*
D02*
G37*
G36*
X53505Y961220D02*
X49776Y960853D01*
X46190Y959765D01*
X42885Y957998D01*
X39988Y955621D01*
X37611Y952724D01*
X35845Y949419D01*
X34757Y945833D01*
X34389Y942104D01*
X34757Y938375D01*
X35845Y934789D01*
X37611Y931484D01*
X39988Y928587D01*
X42885Y926210D01*
X46190Y924443D01*
X49776Y923355D01*
X53505Y922988D01*
X57235Y923355D01*
X60821Y924443D01*
X64126Y926210D01*
X67023Y928587D01*
X69400Y931484D01*
X71166Y934789D01*
X72254Y938375D01*
X72621Y942104D01*
X72254Y945833D01*
X71166Y949419D01*
X69400Y952724D01*
X67023Y955621D01*
X64126Y957998D01*
X60821Y959765D01*
X57235Y960853D01*
X53505Y961220D01*
D02*
G37*
G36*
X271340Y922630D02*
X270037Y922090D01*
X268445Y920869D01*
X268173Y920514D01*
X271340D01*
Y922630D01*
D02*
G37*
G36*
X541139Y940227D02*
X538587Y939891D01*
X536208Y938906D01*
X534165Y937338D01*
X532598Y935296D01*
X531612Y932917D01*
X531276Y930364D01*
X531612Y927811D01*
X532598Y925432D01*
X534165Y923390D01*
X536208Y921822D01*
X538587Y920837D01*
X541139Y920501D01*
X543692Y920837D01*
X546071Y921822D01*
X548114Y923390D01*
X549681Y925432D01*
X550667Y927811D01*
X551003Y930364D01*
X550667Y932917D01*
X549681Y935296D01*
X548114Y937338D01*
X546071Y938906D01*
X543692Y939891D01*
X541139Y940227D01*
D02*
G37*
G36*
X515740D02*
X513187Y939891D01*
X510808Y938906D01*
X508765Y937338D01*
X507197Y935296D01*
X506212Y932917D01*
X505876Y930364D01*
X506212Y927811D01*
X507197Y925432D01*
X508765Y923390D01*
X510808Y921822D01*
X513187Y920837D01*
X515740Y920501D01*
X518292Y920837D01*
X520671Y921822D01*
X522714Y923390D01*
X524281Y925432D01*
X525267Y927811D01*
X525603Y930364D01*
X525267Y932917D01*
X524281Y935296D01*
X522714Y937338D01*
X520671Y938906D01*
X518292Y939891D01*
X515740Y940227D01*
D02*
G37*
G36*
X200220Y922095D02*
X195140D01*
X193416Y921868D01*
X191810Y921203D01*
X190430Y920144D01*
X189371Y918764D01*
X188706Y917158D01*
X188479Y915434D01*
X188706Y913710D01*
X189371Y912104D01*
X190430Y910724D01*
X191810Y909665D01*
X193416Y909000D01*
X195140Y908773D01*
X200220D01*
X201944Y909000D01*
X203551Y909665D01*
X204930Y910724D01*
X205989Y912104D01*
X206654Y913710D01*
X206881Y915434D01*
X206654Y917158D01*
X205989Y918764D01*
X204930Y920144D01*
X203551Y921203D01*
X201944Y921868D01*
X200220Y922095D01*
D02*
G37*
G36*
X271340Y910354D02*
X268173D01*
X268445Y909999D01*
X270037Y908778D01*
X271340Y908238D01*
Y910354D01*
D02*
G37*
G36*
X430570Y907000D02*
X430069Y906901D01*
X428590Y905913D01*
X427111Y906901D01*
X426610Y907000D01*
Y894124D01*
Y881248D01*
X427111Y881347D01*
X428590Y882335D01*
X430069Y881347D01*
X430570Y881248D01*
Y894124D01*
Y907000D01*
D02*
G37*
G36*
X126705Y922215D02*
X124089Y921870D01*
X121650Y920860D01*
X119556Y919253D01*
X117949Y917159D01*
X116939Y914721D01*
X116595Y912104D01*
X116939Y909487D01*
X117949Y907049D01*
X119556Y904955D01*
X121650Y903348D01*
X124089Y902338D01*
X126705Y901993D01*
X129322Y902338D01*
X131761Y903348D01*
X133855Y904955D01*
X135461Y907049D01*
X136471Y909487D01*
X136816Y912104D01*
X136471Y914721D01*
X135461Y917159D01*
X133855Y919253D01*
X131761Y920860D01*
X129322Y921870D01*
X126705Y922215D01*
D02*
G37*
G36*
X96705D02*
X94089Y921870D01*
X91650Y920860D01*
X89556Y919253D01*
X87949Y917159D01*
X86939Y914721D01*
X86595Y912104D01*
X86939Y909487D01*
X87049Y909223D01*
X75224Y897399D01*
X74186Y895844D01*
X73821Y894011D01*
Y777781D01*
X72551Y777718D01*
X72254Y780733D01*
X71166Y784319D01*
X69400Y787624D01*
X67023Y790521D01*
X64126Y792898D01*
X60821Y794665D01*
X57235Y795753D01*
X53505Y796120D01*
X49776Y795753D01*
X46190Y794665D01*
X42885Y792898D01*
X39988Y790521D01*
X37611Y787624D01*
X35845Y784319D01*
X34757Y780733D01*
X34389Y777004D01*
X34757Y773275D01*
X35845Y769689D01*
X37611Y766384D01*
X39988Y763487D01*
X42885Y761110D01*
X46190Y759343D01*
X49776Y758255D01*
X53505Y757888D01*
X57235Y758255D01*
X60821Y759343D01*
X64126Y761110D01*
X67023Y763487D01*
X69400Y766384D01*
X71166Y769689D01*
X72254Y773275D01*
X72551Y776290D01*
X73821Y776227D01*
Y765097D01*
X74186Y763264D01*
X75224Y761710D01*
X87049Y749885D01*
X86939Y749621D01*
X86595Y747004D01*
X86939Y744387D01*
X87949Y741949D01*
X89556Y739855D01*
X91650Y738248D01*
X94089Y737238D01*
X96705Y736893D01*
X99322Y737238D01*
X99586Y737347D01*
X147484Y689450D01*
X149038Y688411D01*
X150872Y688047D01*
X299826D01*
X301660Y688411D01*
X303214Y689450D01*
X349118Y735354D01*
X350139Y734932D01*
X353147Y734536D01*
X356156Y734932D01*
X358959Y736093D01*
X361366Y737940D01*
X363214Y740347D01*
X364375Y743151D01*
X364771Y746159D01*
X364375Y749167D01*
X363214Y751971D01*
X361366Y754378D01*
X358959Y756225D01*
X356156Y757386D01*
X353832Y757692D01*
X353727Y757706D01*
Y758987D01*
X353832Y759001D01*
X356421Y759342D01*
X359471Y760605D01*
X362091Y762615D01*
X364101Y765235D01*
X364616Y766479D01*
X353147D01*
X341678D01*
X342194Y765235D01*
X344204Y762615D01*
X346823Y760605D01*
X349874Y759342D01*
X352463Y759001D01*
X352568Y758987D01*
Y757706D01*
X352463Y757692D01*
X350139Y757386D01*
X347336Y756225D01*
X344928Y754378D01*
X343081Y751971D01*
X341920Y749167D01*
X341524Y746159D01*
X341920Y743151D01*
X342343Y742130D01*
X297842Y697629D01*
X152856D01*
X106362Y744123D01*
X106471Y744387D01*
X106816Y747004D01*
X106471Y749621D01*
X105461Y752059D01*
X103855Y754153D01*
X101761Y755760D01*
X99322Y756770D01*
X96705Y757114D01*
X94089Y756770D01*
X93824Y756661D01*
X83403Y767082D01*
Y892026D01*
X93824Y902448D01*
X94089Y902338D01*
X96705Y901993D01*
X99322Y902338D01*
X101761Y903348D01*
X103855Y904955D01*
X105461Y907049D01*
X106471Y909487D01*
X106816Y912104D01*
X106471Y914721D01*
X105461Y917159D01*
X103855Y919253D01*
X101761Y920860D01*
X99322Y921870D01*
X96705Y922215D01*
D02*
G37*
G36*
X202760Y897230D02*
Y895114D01*
X205927D01*
X205655Y895469D01*
X204063Y896690D01*
X202760Y897230D01*
D02*
G37*
G36*
X192600D02*
X191297Y896690D01*
X189705Y895469D01*
X189433Y895114D01*
X192600D01*
Y897230D01*
D02*
G37*
G36*
X541139Y914827D02*
X538587Y914491D01*
X536208Y913506D01*
X534165Y911938D01*
X532598Y909896D01*
X531612Y907517D01*
X531276Y904964D01*
X531612Y902411D01*
X532598Y900032D01*
X534165Y897990D01*
X536208Y896422D01*
X538587Y895437D01*
X541139Y895101D01*
X543692Y895437D01*
X546071Y896422D01*
X548114Y897990D01*
X549681Y900032D01*
X550667Y902411D01*
X551003Y904964D01*
X550667Y907517D01*
X549681Y909896D01*
X548114Y911938D01*
X546071Y913506D01*
X543692Y914491D01*
X541139Y914827D01*
D02*
G37*
G36*
X515740D02*
X513187Y914491D01*
X510808Y913506D01*
X508765Y911938D01*
X507197Y909896D01*
X506212Y907517D01*
X505876Y904964D01*
X506212Y902411D01*
X507197Y900032D01*
X508765Y897990D01*
X510808Y896422D01*
X513187Y895437D01*
X515740Y895101D01*
X518292Y895437D01*
X520671Y896422D01*
X522714Y897990D01*
X524281Y900032D01*
X525267Y902411D01*
X525603Y904964D01*
X525267Y907517D01*
X524281Y909896D01*
X522714Y911938D01*
X520671Y913506D01*
X518292Y914491D01*
X515740Y914827D01*
D02*
G37*
G36*
X205927Y884954D02*
X202760D01*
Y882838D01*
X204063Y883378D01*
X205655Y884599D01*
X205927Y884954D01*
D02*
G37*
G36*
X192600D02*
X189433D01*
X189705Y884599D01*
X191297Y883378D01*
X192600Y882838D01*
Y884954D01*
D02*
G37*
G36*
X433110Y907000D02*
Y894124D01*
Y881248D01*
X433611Y881347D01*
X435113Y882351D01*
X436719Y882469D01*
X436965Y882305D01*
X438340Y882031D01*
X439715Y882305D01*
X440806Y883033D01*
X441168Y883195D01*
X442012D01*
X442374Y883033D01*
X443465Y882305D01*
X444840Y882031D01*
X446215Y882305D01*
X447381Y883083D01*
X448159Y884249D01*
X448433Y885624D01*
Y902624D01*
X448159Y903999D01*
X447381Y905165D01*
X446215Y905944D01*
X444840Y906217D01*
X443465Y905944D01*
X442374Y905215D01*
X442012Y905053D01*
X441168D01*
X440806Y905215D01*
X439715Y905944D01*
X438340Y906217D01*
X436965Y905944D01*
X436719Y905779D01*
X435113Y905897D01*
X433611Y906901D01*
X433110Y907000D01*
D02*
G37*
G36*
X541139Y889427D02*
X538587Y889091D01*
X536208Y888106D01*
X534165Y886538D01*
X532598Y884496D01*
X531612Y882117D01*
X531276Y879564D01*
X531612Y877011D01*
X532598Y874632D01*
X534165Y872589D01*
X536208Y871022D01*
X538587Y870037D01*
X541139Y869701D01*
X543692Y870037D01*
X546071Y871022D01*
X548114Y872589D01*
X549681Y874632D01*
X550667Y877011D01*
X551003Y879564D01*
X550667Y882117D01*
X549681Y884496D01*
X548114Y886538D01*
X546071Y888106D01*
X543692Y889091D01*
X541139Y889427D01*
D02*
G37*
G36*
X515740D02*
X513187Y889091D01*
X510808Y888106D01*
X508765Y886538D01*
X507197Y884496D01*
X506212Y882117D01*
X505876Y879564D01*
X506212Y877011D01*
X507197Y874632D01*
X508765Y872589D01*
X510808Y871022D01*
X513187Y870037D01*
X515740Y869701D01*
X518292Y870037D01*
X520671Y871022D01*
X522714Y872589D01*
X524281Y874632D01*
X525267Y877011D01*
X525603Y879564D01*
X525267Y882117D01*
X524281Y884496D01*
X522714Y886538D01*
X520671Y888106D01*
X518292Y889091D01*
X515740Y889427D01*
D02*
G37*
G36*
X393519Y870706D02*
X389749D01*
Y865436D01*
X393519D01*
Y870706D01*
D02*
G37*
G36*
X387209D02*
X383439D01*
Y865436D01*
X387209D01*
Y870706D01*
D02*
G37*
G36*
X520820Y863744D02*
Y859244D01*
X525320D01*
X525169Y859608D01*
X523439Y861863D01*
X521184Y863593D01*
X520820Y863744D01*
D02*
G37*
G36*
X510659D02*
X510295Y863593D01*
X508040Y861863D01*
X506310Y859608D01*
X506159Y859244D01*
X510659D01*
Y863744D01*
D02*
G37*
G36*
X387209Y862896D02*
X383439D01*
Y857626D01*
X387209D01*
Y862896D01*
D02*
G37*
G36*
X525320Y849084D02*
X520820D01*
Y844584D01*
X521184Y844735D01*
X523439Y846465D01*
X525169Y848720D01*
X525320Y849084D01*
D02*
G37*
G36*
X510659D02*
X506159D01*
X506310Y848720D01*
X508040Y846465D01*
X510295Y844735D01*
X510659Y844584D01*
Y849084D01*
D02*
G37*
G36*
X541139Y864027D02*
X538587Y863691D01*
X536208Y862706D01*
X534165Y861139D01*
X532598Y859096D01*
X531612Y856717D01*
X531276Y854164D01*
X531612Y851611D01*
X532598Y849232D01*
X534165Y847189D01*
X536208Y845622D01*
X538587Y844637D01*
X541139Y844301D01*
X543692Y844637D01*
X546071Y845622D01*
X548114Y847189D01*
X549681Y849232D01*
X550667Y851611D01*
X551003Y854164D01*
X550667Y856717D01*
X549681Y859096D01*
X548114Y861139D01*
X546071Y862706D01*
X543692Y863691D01*
X541139Y864027D01*
D02*
G37*
G36*
X520820Y838344D02*
Y833844D01*
X525320D01*
X525169Y834208D01*
X523439Y836463D01*
X521184Y838193D01*
X520820Y838344D01*
D02*
G37*
G36*
X510659D02*
X510295Y838193D01*
X508040Y836463D01*
X506310Y834208D01*
X506159Y833844D01*
X510659D01*
Y838344D01*
D02*
G37*
G36*
X525320Y823684D02*
X520820D01*
Y819184D01*
X521184Y819335D01*
X523439Y821065D01*
X525169Y823320D01*
X525320Y823684D01*
D02*
G37*
G36*
X510659D02*
X506159D01*
X506310Y823320D01*
X508040Y821065D01*
X510295Y819335D01*
X510659Y819184D01*
Y823684D01*
D02*
G37*
G36*
X541139Y838627D02*
X538587Y838291D01*
X536208Y837306D01*
X534165Y835739D01*
X532598Y833696D01*
X531612Y831317D01*
X531276Y828764D01*
X531612Y826211D01*
X532598Y823832D01*
X534165Y821789D01*
X536208Y820222D01*
X538587Y819237D01*
X541139Y818901D01*
X543692Y819237D01*
X546071Y820222D01*
X548114Y821789D01*
X549681Y823832D01*
X550667Y826211D01*
X551003Y828764D01*
X550667Y831317D01*
X549681Y833696D01*
X548114Y835739D01*
X546071Y837306D01*
X543692Y838291D01*
X541139Y838627D01*
D02*
G37*
G36*
X520820Y812944D02*
Y808444D01*
X525320D01*
X525169Y808808D01*
X523439Y811063D01*
X521184Y812793D01*
X520820Y812944D01*
D02*
G37*
G36*
X510659D02*
X510295Y812793D01*
X508040Y811063D01*
X506310Y808808D01*
X506159Y808444D01*
X510659D01*
Y812944D01*
D02*
G37*
G36*
X126705Y817114D02*
X124089Y816770D01*
X121650Y815760D01*
X119556Y814153D01*
X117949Y812059D01*
X116939Y809621D01*
X116595Y807004D01*
X116939Y804387D01*
X117949Y801949D01*
X119556Y799855D01*
X121650Y798248D01*
X124089Y797238D01*
X126705Y796893D01*
X129322Y797238D01*
X131761Y798248D01*
X133855Y799855D01*
X135461Y801949D01*
X136471Y804387D01*
X136816Y807004D01*
X136471Y809621D01*
X135461Y812059D01*
X133855Y814153D01*
X131761Y815760D01*
X129322Y816770D01*
X126705Y817114D01*
D02*
G37*
G36*
X96705D02*
X94089Y816770D01*
X91650Y815760D01*
X89556Y814153D01*
X87949Y812059D01*
X86939Y809621D01*
X86595Y807004D01*
X86939Y804387D01*
X87949Y801949D01*
X89556Y799855D01*
X91650Y798248D01*
X94089Y797238D01*
X96705Y796893D01*
X99322Y797238D01*
X101761Y798248D01*
X103855Y799855D01*
X105461Y801949D01*
X106471Y804387D01*
X106816Y807004D01*
X106471Y809621D01*
X105461Y812059D01*
X103855Y814153D01*
X101761Y815760D01*
X99322Y816770D01*
X96705Y817114D01*
D02*
G37*
G36*
X525320Y798284D02*
X520820D01*
Y793784D01*
X521184Y793935D01*
X523439Y795665D01*
X525169Y797920D01*
X525320Y798284D01*
D02*
G37*
G36*
X510659D02*
X506159D01*
X506310Y797920D01*
X508040Y795665D01*
X510295Y793935D01*
X510659Y793784D01*
Y798284D01*
D02*
G37*
G36*
X541139Y813227D02*
X538587Y812891D01*
X536208Y811906D01*
X534165Y810339D01*
X532598Y808296D01*
X531612Y805917D01*
X531276Y803364D01*
X531612Y800811D01*
X532598Y798432D01*
X534165Y796389D01*
X536208Y794822D01*
X538587Y793837D01*
X541139Y793501D01*
X543692Y793837D01*
X546071Y794822D01*
X548114Y796389D01*
X549681Y798432D01*
X550667Y800811D01*
X551003Y803364D01*
X550667Y805917D01*
X549681Y808296D01*
X548114Y810339D01*
X546071Y811906D01*
X543692Y812891D01*
X541139Y813227D01*
D02*
G37*
G36*
X278960Y806525D02*
X273880D01*
X272156Y806298D01*
X270550Y805633D01*
X269170Y804574D01*
X268111Y803195D01*
X267446Y801588D01*
X267219Y799864D01*
X267446Y798140D01*
X268111Y796534D01*
X269170Y795154D01*
X270550Y794095D01*
X272156Y793430D01*
X273880Y793203D01*
X278960D01*
X280684Y793430D01*
X282291Y794095D01*
X283670Y795154D01*
X284729Y796534D01*
X285394Y798140D01*
X285621Y799864D01*
X285394Y801588D01*
X284729Y803195D01*
X283670Y804574D01*
X282291Y805633D01*
X280684Y806298D01*
X278960Y806525D01*
D02*
G37*
G36*
X200220D02*
X195140D01*
X193416Y806298D01*
X191810Y805633D01*
X190430Y804574D01*
X189371Y803195D01*
X188706Y801588D01*
X188479Y799864D01*
X188706Y798140D01*
X189371Y796534D01*
X190430Y795154D01*
X191810Y794095D01*
X193416Y793430D01*
X195140Y793203D01*
X200220D01*
X201944Y793430D01*
X203551Y794095D01*
X204930Y795154D01*
X205989Y796534D01*
X206654Y798140D01*
X206881Y799864D01*
X206654Y801588D01*
X205989Y803195D01*
X204930Y804574D01*
X203551Y805633D01*
X201944Y806298D01*
X200220Y806525D01*
D02*
G37*
G36*
X520820Y787544D02*
Y783044D01*
X525320D01*
X525169Y783408D01*
X523439Y785663D01*
X521184Y787393D01*
X520820Y787544D01*
D02*
G37*
G36*
X510659D02*
X510295Y787393D01*
X508040Y785663D01*
X506310Y783408D01*
X506159Y783044D01*
X510659D01*
Y787544D01*
D02*
G37*
G36*
X101785Y786849D02*
Y782084D01*
X106551D01*
X106349Y782572D01*
X104579Y784878D01*
X102273Y786647D01*
X101785Y786849D01*
D02*
G37*
G36*
X91625Y786849D02*
X91138Y786647D01*
X88832Y784878D01*
X87062Y782572D01*
X86860Y782084D01*
X91625D01*
Y786849D01*
D02*
G37*
G36*
X525320Y772884D02*
X520820D01*
Y768384D01*
X521184Y768535D01*
X523439Y770265D01*
X525169Y772520D01*
X525320Y772884D01*
D02*
G37*
G36*
X510659D02*
X506159D01*
X506310Y772520D01*
X508040Y770265D01*
X510295Y768535D01*
X510659Y768384D01*
Y772884D01*
D02*
G37*
G36*
X541139Y787827D02*
X538587Y787491D01*
X536208Y786506D01*
X534165Y784939D01*
X532598Y782896D01*
X531612Y780517D01*
X531276Y777964D01*
X531612Y775411D01*
X532598Y773032D01*
X534165Y770990D01*
X536208Y769422D01*
X538587Y768437D01*
X541139Y768101D01*
X543692Y768437D01*
X546071Y769422D01*
X548114Y770990D01*
X549681Y773032D01*
X550667Y775411D01*
X551003Y777964D01*
X550667Y780517D01*
X549681Y782896D01*
X548114Y784939D01*
X546071Y786506D01*
X543692Y787491D01*
X541139Y787827D01*
D02*
G37*
G36*
X278960Y947495D02*
X273880D01*
X272156Y947268D01*
X270550Y946603D01*
X269170Y945544D01*
X268111Y944165D01*
X267446Y942558D01*
X267219Y940834D01*
X267446Y939110D01*
X267853Y938127D01*
X255007Y925281D01*
X254109Y923937D01*
X253794Y922351D01*
Y792947D01*
X254109Y791361D01*
X255007Y790017D01*
X267853Y777171D01*
X267446Y776188D01*
X267219Y774464D01*
X267446Y772740D01*
X268111Y771133D01*
X269170Y769754D01*
X270550Y768695D01*
X272156Y768030D01*
X273880Y767803D01*
X278960D01*
X280684Y768030D01*
X282291Y768695D01*
X283670Y769754D01*
X284729Y771133D01*
X285394Y772740D01*
X285621Y774464D01*
X285394Y776188D01*
X284729Y777794D01*
X283670Y779174D01*
X282291Y780233D01*
X280684Y780898D01*
X278960Y781125D01*
X275619D01*
X262081Y794663D01*
Y920635D01*
X275619Y934173D01*
X278960D01*
X280684Y934400D01*
X282291Y935065D01*
X283670Y936124D01*
X284729Y937504D01*
X285394Y939110D01*
X285621Y940834D01*
X285394Y942558D01*
X284729Y944165D01*
X283670Y945544D01*
X282291Y946603D01*
X280684Y947268D01*
X278960Y947495D01*
D02*
G37*
G36*
X200220Y781125D02*
X195140D01*
X193416Y780898D01*
X191810Y780233D01*
X190430Y779174D01*
X189371Y777794D01*
X188706Y776188D01*
X188479Y774464D01*
X188706Y772740D01*
X189371Y771133D01*
X190430Y769754D01*
X191810Y768695D01*
X193416Y768030D01*
X195140Y767803D01*
X200220D01*
X201944Y768030D01*
X203551Y768695D01*
X204930Y769754D01*
X205989Y771133D01*
X206654Y772740D01*
X206881Y774464D01*
X206654Y776188D01*
X205989Y777794D01*
X204930Y779174D01*
X203551Y780233D01*
X201944Y780898D01*
X200220Y781125D01*
D02*
G37*
G36*
X106551Y771924D02*
X101785D01*
Y767159D01*
X102273Y767361D01*
X104579Y769130D01*
X106349Y771436D01*
X106551Y771924D01*
D02*
G37*
G36*
X91625D02*
X86860D01*
X87062Y771436D01*
X88832Y769130D01*
X91138Y767361D01*
X91625Y767159D01*
Y771924D01*
D02*
G37*
G36*
X126705Y787114D02*
X124089Y786770D01*
X121650Y785760D01*
X119556Y784153D01*
X117949Y782059D01*
X116939Y779621D01*
X116595Y777004D01*
X116939Y774387D01*
X117949Y771949D01*
X119556Y769855D01*
X121650Y768248D01*
X124089Y767238D01*
X126705Y766893D01*
X129322Y767238D01*
X131761Y768248D01*
X133855Y769855D01*
X135461Y771949D01*
X136471Y774387D01*
X136816Y777004D01*
X136471Y779621D01*
X135461Y782059D01*
X133855Y784153D01*
X131761Y785760D01*
X129322Y786770D01*
X126705Y787114D01*
D02*
G37*
G36*
X520820Y762144D02*
Y757644D01*
X525320D01*
X525169Y758008D01*
X523439Y760263D01*
X521184Y761993D01*
X520820Y762144D01*
D02*
G37*
G36*
X510659D02*
X510295Y761993D01*
X508040Y760263D01*
X506310Y758008D01*
X506159Y757644D01*
X510659D01*
Y762144D01*
D02*
G37*
G36*
X281500Y756260D02*
Y754144D01*
X284667D01*
X284395Y754499D01*
X282803Y755720D01*
X281500Y756260D01*
D02*
G37*
G36*
X271340D02*
X270037Y755720D01*
X268445Y754499D01*
X268173Y754144D01*
X271340D01*
Y756260D01*
D02*
G37*
G36*
X525320Y747484D02*
X520820D01*
Y742984D01*
X521184Y743135D01*
X523439Y744865D01*
X525169Y747120D01*
X525320Y747484D01*
D02*
G37*
G36*
X510659D02*
X506159D01*
X506310Y747120D01*
X508040Y744865D01*
X510295Y743135D01*
X510659Y742984D01*
Y747484D01*
D02*
G37*
G36*
X541139Y762427D02*
X538587Y762091D01*
X536208Y761106D01*
X534165Y759538D01*
X532598Y757496D01*
X531612Y755117D01*
X531276Y752564D01*
X531612Y750011D01*
X532598Y747632D01*
X534165Y745590D01*
X536208Y744022D01*
X538587Y743037D01*
X541139Y742701D01*
X543692Y743037D01*
X546071Y744022D01*
X548114Y745590D01*
X549681Y747632D01*
X550667Y750011D01*
X551003Y752564D01*
X550667Y755117D01*
X549681Y757496D01*
X548114Y759538D01*
X546071Y761106D01*
X543692Y762091D01*
X541139Y762427D01*
D02*
G37*
G36*
X200220Y755725D02*
X195140D01*
X193416Y755498D01*
X191810Y754833D01*
X190430Y753774D01*
X189371Y752394D01*
X188706Y750788D01*
X188479Y749064D01*
X188706Y747340D01*
X189371Y745733D01*
X190430Y744354D01*
X191810Y743295D01*
X193416Y742630D01*
X195140Y742403D01*
X200220D01*
X201944Y742630D01*
X203551Y743295D01*
X204930Y744354D01*
X205989Y745733D01*
X206654Y747340D01*
X206881Y749064D01*
X206654Y750788D01*
X205989Y752394D01*
X204930Y753774D01*
X203551Y754833D01*
X201944Y755498D01*
X200220Y755725D01*
D02*
G37*
G36*
X284667Y743984D02*
X281500D01*
Y741868D01*
X282803Y742408D01*
X284395Y743629D01*
X284667Y743984D01*
D02*
G37*
G36*
X271340D02*
X268173D01*
X268445Y743629D01*
X270037Y742408D01*
X271340Y741868D01*
Y743984D01*
D02*
G37*
G36*
X126705Y757114D02*
X124089Y756770D01*
X121650Y755760D01*
X119556Y754153D01*
X117949Y752059D01*
X116939Y749621D01*
X116595Y747004D01*
X116939Y744387D01*
X117949Y741949D01*
X119556Y739855D01*
X121650Y738248D01*
X124089Y737238D01*
X126705Y736893D01*
X129322Y737238D01*
X131761Y738248D01*
X133855Y739855D01*
X135461Y741949D01*
X136471Y744387D01*
X136816Y747004D01*
X136471Y749621D01*
X135461Y752059D01*
X133855Y754153D01*
X131761Y755760D01*
X129322Y756770D01*
X126705Y757114D01*
D02*
G37*
G36*
X353147Y808582D02*
X350139Y808186D01*
X347336Y807025D01*
X344928Y805178D01*
X343081Y802771D01*
X341920Y799967D01*
X341524Y796959D01*
X341920Y793951D01*
X343081Y791147D01*
X344928Y788740D01*
X347336Y786893D01*
X350139Y785732D01*
X352463Y785426D01*
X352568Y785412D01*
Y784131D01*
X352463Y784117D01*
X349874Y783776D01*
X346823Y782513D01*
X344204Y780503D01*
X342194Y777883D01*
X341678Y776639D01*
X353147D01*
X364616D01*
X364419Y777116D01*
X365495Y777835D01*
X397564Y745766D01*
X397078Y744593D01*
X396559D01*
Y733925D01*
X412308D01*
Y744593D01*
X409225D01*
Y745673D01*
X408860Y747506D01*
X407821Y749061D01*
X363952Y792930D01*
X364375Y793951D01*
X364771Y796959D01*
X364375Y799967D01*
X363214Y802771D01*
X361366Y805178D01*
X358959Y807025D01*
X356156Y808186D01*
X353147Y808582D01*
D02*
G37*
G36*
X202760Y730860D02*
Y728744D01*
X205927D01*
X205655Y729099D01*
X204063Y730320D01*
X202760Y730860D01*
D02*
G37*
G36*
X192600D02*
X191297Y730320D01*
X189705Y729099D01*
X189433Y728744D01*
X192600D01*
Y730860D01*
D02*
G37*
G36*
X541139Y737027D02*
X538587Y736691D01*
X536208Y735706D01*
X534165Y734138D01*
X532598Y732096D01*
X531612Y729717D01*
X531276Y727164D01*
X531612Y724611D01*
X532475Y722528D01*
X530062Y720116D01*
X529445Y719192D01*
X529228Y718101D01*
X529228Y718101D01*
Y572479D01*
X528689Y572119D01*
X527650Y570564D01*
X527286Y568731D01*
X527650Y566898D01*
X528689Y565343D01*
X530243Y564305D01*
X532077Y563940D01*
X533910Y564305D01*
X535465Y565343D01*
X536503Y566898D01*
X536868Y568731D01*
X536503Y570564D01*
X535465Y572119D01*
X534926Y572479D01*
Y716921D01*
X536504Y718500D01*
X538587Y717637D01*
X541139Y717301D01*
X543692Y717637D01*
X546071Y718622D01*
X548114Y720190D01*
X549681Y722232D01*
X550667Y724611D01*
X551003Y727164D01*
X550667Y729717D01*
X549681Y732096D01*
X548114Y734138D01*
X546071Y735706D01*
X543692Y736691D01*
X541139Y737027D01*
D02*
G37*
G36*
X515740D02*
X513187Y736691D01*
X510808Y735706D01*
X508765Y734138D01*
X507197Y732096D01*
X506212Y729717D01*
X505876Y727164D01*
X506212Y724611D01*
X507197Y722232D01*
X508765Y720190D01*
X510808Y718622D01*
X513187Y717637D01*
X515740Y717301D01*
X518292Y717637D01*
X520671Y718622D01*
X522714Y720190D01*
X524281Y722232D01*
X525267Y724611D01*
X525603Y727164D01*
X525267Y729717D01*
X524281Y732096D01*
X522714Y734138D01*
X520671Y735706D01*
X518292Y736691D01*
X515740Y737027D01*
D02*
G37*
G36*
X278960Y730325D02*
X273880D01*
X272156Y730098D01*
X270550Y729433D01*
X269170Y728374D01*
X268111Y726994D01*
X267446Y725388D01*
X267219Y723664D01*
X267446Y721940D01*
X268111Y720333D01*
X269170Y718954D01*
X270550Y717895D01*
X272156Y717230D01*
X273880Y717003D01*
X278960D01*
X280684Y717230D01*
X282291Y717895D01*
X283670Y718954D01*
X284729Y720333D01*
X285394Y721940D01*
X285621Y723664D01*
X285394Y725388D01*
X284729Y726994D01*
X283670Y728374D01*
X282291Y729433D01*
X280684Y730098D01*
X278960Y730325D01*
D02*
G37*
G36*
X205927Y718584D02*
X202760D01*
Y716468D01*
X204063Y717008D01*
X205655Y718229D01*
X205927Y718584D01*
D02*
G37*
G36*
X192600D02*
X189433D01*
X189705Y718229D01*
X191297Y717008D01*
X192600Y716468D01*
Y718584D01*
D02*
G37*
G36*
X418657Y730623D02*
X390210D01*
Y700905D01*
X400290D01*
Y664638D01*
X399169Y663784D01*
X398039Y664252D01*
X395031Y664648D01*
X392023Y664252D01*
X389219Y663091D01*
X386812Y661243D01*
X384965Y658836D01*
X383804Y656033D01*
X383498Y653709D01*
X383484Y653604D01*
X382203D01*
X382189Y653709D01*
X381848Y656298D01*
X380585Y659349D01*
X378575Y661968D01*
X375955Y663978D01*
X374711Y664493D01*
Y653024D01*
Y641555D01*
X375955Y642071D01*
X378575Y644081D01*
X380585Y646700D01*
X381848Y649751D01*
X382189Y652340D01*
X382203Y652445D01*
X383484D01*
X383498Y652340D01*
X383804Y650016D01*
X384965Y647213D01*
X386812Y644805D01*
X389219Y642958D01*
X392023Y641797D01*
X395031Y641401D01*
X398039Y641797D01*
X400843Y642958D01*
X403250Y644805D01*
X405097Y647213D01*
X406258Y650016D01*
X406564Y652340D01*
X406578Y652445D01*
X407859D01*
X407873Y652340D01*
X408214Y649751D01*
X409477Y646700D01*
X411487Y644081D01*
X414107Y642071D01*
X415351Y641555D01*
Y653024D01*
Y664493D01*
X414107Y663978D01*
X411487Y661968D01*
X409477Y659349D01*
X408214Y656298D01*
X407873Y653709D01*
X407859Y653604D01*
X406578D01*
X406564Y653709D01*
X406258Y656033D01*
X405568Y657701D01*
X407363Y659497D01*
X408262Y660841D01*
X408577Y662427D01*
Y700905D01*
X418657D01*
Y730623D01*
D02*
G37*
G36*
X425511Y664493D02*
Y658104D01*
X431900D01*
X431385Y659349D01*
X429375Y661968D01*
X426755Y663978D01*
X425511Y664493D01*
D02*
G37*
G36*
X98835Y649609D02*
Y644843D01*
X103601D01*
X103399Y645331D01*
X101629Y647637D01*
X99323Y649407D01*
X98835Y649609D01*
D02*
G37*
G36*
X88675D02*
X88188Y649407D01*
X85882Y647637D01*
X84112Y645331D01*
X83910Y644843D01*
X88675D01*
Y649609D01*
D02*
G37*
G36*
X431900Y647944D02*
X425511D01*
Y641555D01*
X426755Y642071D01*
X429375Y644081D01*
X431385Y646700D01*
X431900Y647944D01*
D02*
G37*
G36*
X185465Y638263D02*
X180195D01*
Y632994D01*
X185465D01*
Y638263D01*
D02*
G37*
G36*
X177655D02*
X172385D01*
Y632994D01*
X177655D01*
Y638263D01*
D02*
G37*
G36*
X103601Y634683D02*
X98835D01*
Y629918D01*
X99323Y630120D01*
X101629Y631889D01*
X103399Y634196D01*
X103601Y634683D01*
D02*
G37*
G36*
X88675D02*
X83910D01*
X84112Y634196D01*
X85882Y631889D01*
X88188Y630120D01*
X88675Y629918D01*
Y634683D01*
D02*
G37*
G36*
X123755Y649874D02*
X121139Y649529D01*
X118700Y648519D01*
X116606Y646912D01*
X115000Y644818D01*
X113989Y642380D01*
X113645Y639763D01*
X113989Y637146D01*
X115000Y634708D01*
X116606Y632614D01*
X118700Y631007D01*
X121139Y629997D01*
X123755Y629653D01*
X126372Y629997D01*
X128811Y631007D01*
X130905Y632614D01*
X132511Y634708D01*
X133521Y637146D01*
X133866Y639763D01*
X133521Y642380D01*
X132511Y644818D01*
X130905Y646912D01*
X128811Y648519D01*
X126372Y649529D01*
X123755Y649874D01*
D02*
G37*
G36*
X185465Y630453D02*
X180195D01*
Y625183D01*
X185465D01*
Y630453D01*
D02*
G37*
G36*
X177655D02*
X172385D01*
Y625183D01*
X177655D01*
Y630453D01*
D02*
G37*
G36*
X98835Y619609D02*
Y614843D01*
X103601D01*
X103399Y615331D01*
X101629Y617637D01*
X99323Y619407D01*
X98835Y619609D01*
D02*
G37*
G36*
X88675Y619609D02*
X88188Y619407D01*
X85882Y617637D01*
X84112Y615331D01*
X83910Y614843D01*
X88675D01*
Y619609D01*
D02*
G37*
G36*
X502779Y631610D02*
X494731D01*
Y620562D01*
X495906D01*
Y614865D01*
X495367Y614505D01*
X494328Y612950D01*
X493964Y611117D01*
X494328Y609283D01*
X495367Y607729D01*
X496921Y606690D01*
X498755Y606326D01*
X500588Y606690D01*
X502143Y607729D01*
X503181Y609283D01*
X503546Y611117D01*
X503181Y612950D01*
X502143Y614505D01*
X501604Y614865D01*
Y620562D01*
X502779D01*
Y631610D01*
D02*
G37*
G36*
X123755Y619874D02*
X121139Y619529D01*
X118700Y618519D01*
X116606Y616912D01*
X115000Y614818D01*
X113989Y612380D01*
X113645Y609763D01*
X113989Y607146D01*
X115000Y604708D01*
X116606Y602614D01*
X118700Y601007D01*
X121139Y599997D01*
X123755Y599653D01*
X126372Y599997D01*
X128811Y601007D01*
X130905Y602614D01*
X132511Y604708D01*
X133425Y606914D01*
X173401D01*
Y604199D01*
X176076D01*
Y594048D01*
X173174D01*
Y586000D01*
X184222D01*
Y594048D01*
X181774D01*
Y604199D01*
X184449D01*
Y606875D01*
X200134D01*
Y604228D01*
X208182D01*
Y615276D01*
X200134D01*
Y612572D01*
X184449D01*
Y615247D01*
X173401D01*
Y612612D01*
X133425D01*
X132511Y614818D01*
X130905Y616912D01*
X128811Y618519D01*
X126372Y619529D01*
X123755Y619874D01*
D02*
G37*
G36*
X88675Y604683D02*
X83910D01*
X84112Y604196D01*
X85882Y601889D01*
X88188Y600120D01*
X88675Y599918D01*
Y604683D01*
D02*
G37*
G36*
X103601D02*
X98835D01*
Y599918D01*
X99323Y600120D01*
X101629Y601889D01*
X103399Y604196D01*
X103601Y604683D01*
D02*
G37*
G36*
X50555Y637279D02*
X46826Y636912D01*
X43240Y635824D01*
X39935Y634058D01*
X37038Y631680D01*
X34661Y628783D01*
X32894Y625479D01*
X31807Y621893D01*
X31439Y618163D01*
X31807Y614434D01*
X32894Y610848D01*
X34661Y607543D01*
X37038Y604646D01*
X39935Y602269D01*
X43240Y600502D01*
X46826Y599414D01*
X50555Y599047D01*
X54285Y599414D01*
X57871Y600502D01*
X61176Y602269D01*
X64072Y604646D01*
X66450Y607543D01*
X68216Y610848D01*
X69304Y614434D01*
X69671Y618163D01*
X69304Y621893D01*
X68216Y625479D01*
X66450Y628783D01*
X64072Y631680D01*
X61176Y634058D01*
X57871Y635824D01*
X54285Y636912D01*
X50555Y637279D01*
D02*
G37*
G36*
X248973Y600079D02*
X243703D01*
Y596309D01*
X248973D01*
Y600079D01*
D02*
G37*
G36*
X241163D02*
X235893D01*
Y596309D01*
X241163D01*
Y600079D01*
D02*
G37*
G36*
X503765Y599966D02*
X499995D01*
Y594696D01*
X503765D01*
Y599966D01*
D02*
G37*
G36*
X497455D02*
X493685D01*
Y594696D01*
X497455D01*
Y599966D01*
D02*
G37*
G36*
X248973Y593769D02*
X243703D01*
Y589999D01*
X248973D01*
Y593769D01*
D02*
G37*
G36*
X241163D02*
X235893D01*
Y589999D01*
X241163D01*
Y593769D01*
D02*
G37*
G36*
X517779Y631610D02*
X509731D01*
Y620562D01*
X510906D01*
Y598950D01*
X509701D01*
Y587902D01*
X517749D01*
Y598950D01*
X516604D01*
Y620562D01*
X517779D01*
Y631610D01*
D02*
G37*
G36*
X503765Y592156D02*
X499995D01*
Y586886D01*
X503765D01*
Y592156D01*
D02*
G37*
G36*
X497455D02*
X493685D01*
Y586886D01*
X497455D01*
Y592156D01*
D02*
G37*
G36*
X98835Y589609D02*
Y584843D01*
X103601D01*
X103399Y585331D01*
X101629Y587637D01*
X99323Y589407D01*
X98835Y589609D01*
D02*
G37*
G36*
X88675D02*
X88188Y589407D01*
X85882Y587637D01*
X84112Y585331D01*
X83910Y584843D01*
X88675D01*
Y589609D01*
D02*
G37*
G36*
X184222Y579048D02*
X173174D01*
Y577873D01*
X143317D01*
X143317Y577873D01*
X142227Y577656D01*
X141302Y577038D01*
X141302Y577038D01*
X132288Y568024D01*
X114182D01*
X113885Y568467D01*
X112331Y569506D01*
X110498Y569871D01*
X108664Y569506D01*
X107110Y568467D01*
X106071Y566913D01*
X105706Y565079D01*
X106071Y563246D01*
X107110Y561692D01*
X107823Y561215D01*
Y546627D01*
X107823Y546627D01*
X108040Y545537D01*
X108657Y544613D01*
X117430Y535840D01*
X117430Y535840D01*
X118354Y535222D01*
X119445Y535005D01*
X119445Y535005D01*
X169263D01*
X193080Y511188D01*
Y505669D01*
X195756D01*
Y503702D01*
X195756Y503702D01*
X195972Y502612D01*
X196590Y501688D01*
X231042Y467235D01*
X230916Y466599D01*
X231281Y464766D01*
X232319Y463211D01*
X233874Y462173D01*
X235707Y461808D01*
X237540Y462173D01*
X239095Y463211D01*
X240133Y464766D01*
X240498Y466599D01*
X240133Y468433D01*
X239095Y469987D01*
X237540Y471026D01*
X235707Y471390D01*
X235071Y471264D01*
X201936Y504399D01*
X202462Y505669D01*
X204128D01*
Y513717D01*
X198609D01*
X192819Y519507D01*
X193453Y520669D01*
X194196Y520669D01*
X204128D01*
Y528717D01*
X201483D01*
Y544883D01*
X204159D01*
Y547558D01*
X219782D01*
Y544739D01*
X227830D01*
Y555787D01*
X219782D01*
Y553256D01*
X204159D01*
Y555931D01*
X193111D01*
Y552612D01*
X133425D01*
X132511Y554818D01*
X130905Y556912D01*
X128811Y558519D01*
X126372Y559529D01*
X123755Y559874D01*
X121139Y559529D01*
X118700Y558519D01*
X116606Y556912D01*
X115000Y554818D01*
X114790Y554313D01*
X113520Y554566D01*
Y561448D01*
X113885Y561692D01*
X114309Y562326D01*
X133468D01*
X133468Y562326D01*
X134558Y562543D01*
X135482Y563161D01*
X144497Y572175D01*
X173174D01*
Y571000D01*
X184222D01*
Y579048D01*
D02*
G37*
G36*
X354877Y581248D02*
X349607D01*
Y577478D01*
X354877D01*
Y581248D01*
D02*
G37*
G36*
X347067D02*
X341797D01*
Y577478D01*
X347067D01*
Y581248D01*
D02*
G37*
G36*
X205175Y578947D02*
X199905D01*
Y573677D01*
X205175D01*
Y578947D01*
D02*
G37*
G36*
X197365D02*
X192095D01*
Y573677D01*
X197365D01*
Y578947D01*
D02*
G37*
G36*
X354877Y574938D02*
X349607D01*
Y571168D01*
X354877D01*
Y574938D01*
D02*
G37*
G36*
X347067D02*
X341797D01*
Y571168D01*
X347067D01*
Y574938D01*
D02*
G37*
G36*
X103601Y574683D02*
X98835D01*
Y569918D01*
X99323Y570120D01*
X101629Y571889D01*
X103399Y574196D01*
X103601Y574683D01*
D02*
G37*
G36*
X88675D02*
X83910D01*
X84112Y574196D01*
X85882Y571889D01*
X88188Y570120D01*
X88675Y569918D01*
Y574683D01*
D02*
G37*
G36*
X123755Y589874D02*
X121139Y589529D01*
X118700Y588519D01*
X116606Y586912D01*
X115000Y584818D01*
X113989Y582380D01*
X113645Y579763D01*
X113989Y577146D01*
X115000Y574708D01*
X116606Y572614D01*
X118700Y571007D01*
X121139Y569997D01*
X123755Y569653D01*
X126372Y569997D01*
X128811Y571007D01*
X130905Y572614D01*
X132511Y574708D01*
X133521Y577146D01*
X133866Y579763D01*
X133521Y582380D01*
X132511Y584818D01*
X130905Y586912D01*
X128811Y588519D01*
X126372Y589529D01*
X123755Y589874D01*
D02*
G37*
G36*
X205175Y571137D02*
X199905D01*
Y565867D01*
X205175D01*
Y571137D01*
D02*
G37*
G36*
X197365D02*
X192095D01*
Y565867D01*
X197365D01*
Y571137D01*
D02*
G37*
G36*
X98835Y559609D02*
Y554843D01*
X103601D01*
X103399Y555331D01*
X101629Y557637D01*
X99323Y559407D01*
X98835Y559609D01*
D02*
G37*
G36*
X88675D02*
X88188Y559407D01*
X85882Y557637D01*
X84112Y555331D01*
X83910Y554843D01*
X88675D01*
Y559609D01*
D02*
G37*
G36*
X50555Y590479D02*
X46826Y590112D01*
X43240Y589024D01*
X39935Y587258D01*
X37038Y584880D01*
X34661Y581983D01*
X32894Y578679D01*
X31807Y575093D01*
X31439Y571363D01*
X31807Y567634D01*
X32894Y564048D01*
X34661Y560743D01*
X37038Y557846D01*
X39935Y555469D01*
X43240Y553702D01*
X46826Y552615D01*
X50555Y552247D01*
X54285Y552615D01*
X57871Y553702D01*
X61176Y555469D01*
X64072Y557846D01*
X66450Y560743D01*
X68216Y564048D01*
X69304Y567634D01*
X69671Y571363D01*
X69304Y575093D01*
X68216Y578679D01*
X66450Y581983D01*
X64072Y584880D01*
X61176Y587258D01*
X57871Y589024D01*
X54285Y590112D01*
X50555Y590479D01*
D02*
G37*
G36*
X103601Y544683D02*
X98835D01*
Y539918D01*
X99323Y540120D01*
X101629Y541889D01*
X103399Y544196D01*
X103601Y544683D01*
D02*
G37*
G36*
X88675D02*
X83910D01*
X84112Y544196D01*
X85882Y541889D01*
X88188Y540120D01*
X88675Y539918D01*
Y544683D01*
D02*
G37*
G36*
X268561Y540238D02*
X263291D01*
Y536468D01*
X268561D01*
Y540238D01*
D02*
G37*
G36*
X260751D02*
X255481D01*
Y536468D01*
X260751D01*
Y540238D01*
D02*
G37*
G36*
X268561Y533928D02*
X263291D01*
Y530158D01*
X268561D01*
Y533928D01*
D02*
G37*
G36*
X260751D02*
X255481D01*
Y530158D01*
X260751D01*
Y533928D01*
D02*
G37*
G36*
X98835Y453259D02*
Y448493D01*
X103601D01*
X103399Y448981D01*
X101629Y451287D01*
X99323Y453057D01*
X98835Y453259D01*
D02*
G37*
G36*
X88675D02*
X88188Y453057D01*
X85882Y451287D01*
X84112Y448981D01*
X83910Y448493D01*
X88675D01*
Y453259D01*
D02*
G37*
G36*
X103601Y438333D02*
X98835D01*
Y433568D01*
X99323Y433770D01*
X101629Y435539D01*
X103399Y437846D01*
X103601Y438333D01*
D02*
G37*
G36*
X88675D02*
X83910D01*
X84112Y437846D01*
X85882Y435539D01*
X88188Y433770D01*
X88675Y433568D01*
Y438333D01*
D02*
G37*
G36*
X98835Y423259D02*
Y418493D01*
X103601D01*
X103399Y418981D01*
X101629Y421287D01*
X99323Y423057D01*
X98835Y423259D01*
D02*
G37*
G36*
X88675Y423259D02*
X88188Y423057D01*
X85882Y421287D01*
X84112Y418981D01*
X83910Y418493D01*
X88675D01*
Y423259D01*
D02*
G37*
G36*
X103601Y408333D02*
X98835D01*
Y403568D01*
X99323Y403770D01*
X101629Y405539D01*
X103399Y407845D01*
X103601Y408333D01*
D02*
G37*
G36*
X88675D02*
X83910D01*
X84112Y407845D01*
X85882Y405539D01*
X88188Y403770D01*
X88675Y403568D01*
Y408333D01*
D02*
G37*
G36*
X50555Y440929D02*
X46826Y440562D01*
X43240Y439474D01*
X39935Y437708D01*
X37038Y435330D01*
X34661Y432434D01*
X32894Y429129D01*
X31807Y425542D01*
X31439Y421813D01*
X31807Y418084D01*
X32894Y414498D01*
X34661Y411193D01*
X37038Y408296D01*
X39935Y405919D01*
X43240Y404152D01*
X46826Y403064D01*
X50555Y402697D01*
X54285Y403064D01*
X57871Y404152D01*
X61176Y405919D01*
X64072Y408296D01*
X66450Y411193D01*
X68216Y414498D01*
X69304Y418084D01*
X69671Y421813D01*
X69304Y425542D01*
X68216Y429129D01*
X66450Y432434D01*
X64072Y435330D01*
X61176Y437708D01*
X57871Y439474D01*
X54285Y440562D01*
X50555Y440929D01*
D02*
G37*
G36*
X98835Y393259D02*
Y388493D01*
X103601D01*
X103399Y388981D01*
X101629Y391287D01*
X99323Y393057D01*
X98835Y393259D01*
D02*
G37*
G36*
X88675D02*
X88188Y393057D01*
X85882Y391287D01*
X84112Y388981D01*
X83910Y388493D01*
X88675D01*
Y393259D01*
D02*
G37*
G36*
X319546Y403012D02*
X306679D01*
X293813D01*
X293874Y402706D01*
X294767Y401370D01*
X295230Y401060D01*
X294831Y400462D01*
X294596Y399282D01*
X294831Y398102D01*
X295499Y397102D01*
Y396462D01*
X294831Y395462D01*
X294596Y394282D01*
X294831Y393102D01*
X295499Y392102D01*
Y391462D01*
X294831Y390462D01*
X294596Y389282D01*
X294831Y388102D01*
X295499Y387102D01*
Y386462D01*
X294831Y385462D01*
X294596Y384282D01*
X294831Y383102D01*
X295230Y382505D01*
X294767Y382195D01*
X293874Y380858D01*
X293813Y380552D01*
X306679D01*
X319546D01*
X319485Y380858D01*
X318592Y382195D01*
X318129Y382505D01*
X318528Y383102D01*
X318763Y384282D01*
X318528Y385462D01*
X317860Y386462D01*
Y387102D01*
X318528Y388102D01*
X318763Y389282D01*
X318528Y390462D01*
X317860Y391462D01*
Y392102D01*
X318528Y393102D01*
X318763Y394282D01*
X318528Y395462D01*
X317860Y396462D01*
Y397102D01*
X318528Y398102D01*
X318763Y399282D01*
X318528Y400462D01*
X318129Y401060D01*
X318592Y401370D01*
X319485Y402706D01*
X319546Y403012D01*
D02*
G37*
G36*
X103601Y378333D02*
X98835D01*
Y373568D01*
X99323Y373770D01*
X101629Y375539D01*
X103399Y377845D01*
X103601Y378333D01*
D02*
G37*
G36*
X88675D02*
X83910D01*
X84112Y377845D01*
X85882Y375539D01*
X88188Y373770D01*
X88675Y373568D01*
Y378333D01*
D02*
G37*
G36*
X471546Y378012D02*
X458679D01*
X445813D01*
X445874Y377706D01*
X446767Y376370D01*
X447230Y376060D01*
X446831Y375462D01*
X446596Y374282D01*
X446831Y373102D01*
X447499Y372102D01*
X448499Y371434D01*
X449679Y371199D01*
X467679D01*
X468859Y371434D01*
X469860Y372102D01*
X470528Y373102D01*
X470763Y374282D01*
X470528Y375462D01*
X470129Y376060D01*
X470592Y376370D01*
X471485Y377706D01*
X471546Y378012D01*
D02*
G37*
G36*
X98835Y363259D02*
Y358493D01*
X103601D01*
X103399Y358981D01*
X101629Y361287D01*
X99323Y363057D01*
X98835Y363259D01*
D02*
G37*
G36*
X88675D02*
X88188Y363057D01*
X85882Y361287D01*
X84112Y358981D01*
X83910Y358493D01*
X88675D01*
Y363259D01*
D02*
G37*
G36*
X50555Y394129D02*
X46826Y393762D01*
X43240Y392674D01*
X39935Y390908D01*
X37038Y388530D01*
X34661Y385634D01*
X32894Y382329D01*
X31807Y378742D01*
X31439Y375013D01*
X31807Y371284D01*
X32894Y367698D01*
X34661Y364393D01*
X37038Y361496D01*
X39935Y359119D01*
X43240Y357352D01*
X46826Y356264D01*
X50555Y355897D01*
X54285Y356264D01*
X57871Y357352D01*
X61176Y359119D01*
X64072Y361496D01*
X66450Y364393D01*
X68216Y367698D01*
X69304Y371284D01*
X69671Y375013D01*
X69304Y378742D01*
X68216Y382329D01*
X66450Y385634D01*
X64072Y388530D01*
X61176Y390908D01*
X57871Y392674D01*
X54285Y393762D01*
X50555Y394129D01*
D02*
G37*
G36*
X103601Y348333D02*
X98835D01*
Y343568D01*
X99323Y343770D01*
X101629Y345539D01*
X103399Y347845D01*
X103601Y348333D01*
D02*
G37*
G36*
X88675D02*
X83910D01*
X84112Y347845D01*
X85882Y345539D01*
X88188Y343770D01*
X88675Y343568D01*
Y348333D01*
D02*
G37*
G36*
X242523Y332273D02*
X237253D01*
Y328503D01*
X242523D01*
Y332273D01*
D02*
G37*
G36*
X234713D02*
X229443D01*
Y328503D01*
X234713D01*
Y332273D01*
D02*
G37*
G36*
X242523Y325963D02*
X237253D01*
Y322193D01*
X242523D01*
Y325963D01*
D02*
G37*
G36*
X234713D02*
X229443D01*
Y322193D01*
X234713D01*
Y325963D01*
D02*
G37*
G36*
X222427Y327882D02*
X214157D01*
Y318862D01*
X222427D01*
Y327882D01*
D02*
G37*
G36*
X211617D02*
X203347D01*
Y318862D01*
X211617D01*
Y327882D01*
D02*
G37*
G36*
X222427Y316322D02*
X214157D01*
Y307302D01*
X222427D01*
Y316322D01*
D02*
G37*
G36*
X211617D02*
X203347D01*
Y307302D01*
X211617D01*
Y316322D01*
D02*
G37*
G36*
X123755Y260134D02*
X121139Y259789D01*
X118700Y258779D01*
X116606Y257172D01*
X115000Y255079D01*
X113989Y252640D01*
X113645Y250023D01*
X113989Y247407D01*
X115000Y244968D01*
X116606Y242874D01*
X118700Y241267D01*
X121139Y240257D01*
X123755Y239913D01*
X126372Y240257D01*
X128811Y241267D01*
X130905Y242874D01*
X132511Y244968D01*
X133521Y247407D01*
X133866Y250023D01*
X133521Y252640D01*
X132511Y255079D01*
X130905Y257172D01*
X128811Y258779D01*
X126372Y259789D01*
X123755Y260134D01*
D02*
G37*
G36*
X93755D02*
X91139Y259789D01*
X88700Y258779D01*
X86606Y257172D01*
X85000Y255079D01*
X83989Y252640D01*
X83645Y250023D01*
X83989Y247407D01*
X85000Y244968D01*
X86606Y242874D01*
X88700Y241267D01*
X91139Y240257D01*
X93755Y239913D01*
X96372Y240257D01*
X98811Y241267D01*
X100905Y242874D01*
X102511Y244968D01*
X103521Y247407D01*
X103866Y250023D01*
X103521Y252640D01*
X102511Y255079D01*
X100905Y257172D01*
X98811Y258779D01*
X96372Y259789D01*
X93755Y260134D01*
D02*
G37*
G36*
X222427Y248382D02*
X214157D01*
Y239362D01*
X222427D01*
Y248382D01*
D02*
G37*
G36*
X211617D02*
X203347D01*
Y239362D01*
X211617D01*
Y248382D01*
D02*
G37*
G36*
X222427Y236822D02*
X214157D01*
Y227802D01*
X222427D01*
Y236822D01*
D02*
G37*
G36*
X211617D02*
X203347D01*
Y227802D01*
X211617D01*
Y236822D01*
D02*
G37*
G36*
X123755Y230134D02*
X121139Y229789D01*
X118700Y228779D01*
X116606Y227172D01*
X115000Y225079D01*
X113989Y222640D01*
X113645Y220023D01*
X113989Y217406D01*
X115000Y214968D01*
X116606Y212874D01*
X118700Y211267D01*
X121139Y210257D01*
X123755Y209913D01*
X126372Y210257D01*
X128811Y211267D01*
X130905Y212874D01*
X132511Y214968D01*
X133521Y217406D01*
X133866Y220023D01*
X133521Y222640D01*
X132511Y225079D01*
X130905Y227172D01*
X128811Y228779D01*
X126372Y229789D01*
X123755Y230134D01*
D02*
G37*
G36*
X93755D02*
X91139Y229789D01*
X88700Y228779D01*
X86606Y227172D01*
X85000Y225079D01*
X83989Y222640D01*
X83645Y220023D01*
X83989Y217406D01*
X85000Y214968D01*
X86606Y212874D01*
X88700Y211267D01*
X91139Y210257D01*
X93755Y209913D01*
X96372Y210257D01*
X98811Y211267D01*
X100905Y212874D01*
X102511Y214968D01*
X103521Y217406D01*
X103866Y220023D01*
X103521Y222640D01*
X102511Y225079D01*
X100905Y227172D01*
X98811Y228779D01*
X96372Y229789D01*
X93755Y230134D01*
D02*
G37*
G36*
X50555Y247539D02*
X46826Y247172D01*
X43240Y246084D01*
X39935Y244318D01*
X37038Y241940D01*
X34661Y239044D01*
X32894Y235739D01*
X31807Y232153D01*
X31439Y228423D01*
X31807Y224694D01*
X32894Y221108D01*
X34661Y217803D01*
X37038Y214906D01*
X39935Y212529D01*
X43240Y210762D01*
X46826Y209674D01*
X50555Y209307D01*
X54285Y209674D01*
X57871Y210762D01*
X61176Y212529D01*
X64072Y214906D01*
X66450Y217803D01*
X68216Y221108D01*
X69304Y224694D01*
X69671Y228423D01*
X69304Y232153D01*
X68216Y235739D01*
X66450Y239044D01*
X64072Y241940D01*
X61176Y244318D01*
X57871Y246084D01*
X54285Y247172D01*
X50555Y247539D01*
D02*
G37*
G36*
X123755Y200134D02*
X121139Y199789D01*
X118700Y198779D01*
X116606Y197172D01*
X115000Y195079D01*
X113989Y192640D01*
X113645Y190023D01*
X113989Y187407D01*
X115000Y184968D01*
X116606Y182874D01*
X118700Y181267D01*
X121139Y180257D01*
X123755Y179913D01*
X126372Y180257D01*
X128811Y181267D01*
X130905Y182874D01*
X132511Y184968D01*
X133521Y187407D01*
X133866Y190023D01*
X133521Y192640D01*
X132511Y195079D01*
X130905Y197172D01*
X128811Y198779D01*
X126372Y199789D01*
X123755Y200134D01*
D02*
G37*
G36*
X93755D02*
X91139Y199789D01*
X88700Y198779D01*
X86606Y197172D01*
X85000Y195079D01*
X83989Y192640D01*
X83645Y190023D01*
X83989Y187407D01*
X85000Y184968D01*
X86606Y182874D01*
X88700Y181267D01*
X91139Y180257D01*
X93755Y179913D01*
X96372Y180257D01*
X98811Y181267D01*
X100905Y182874D01*
X102511Y184968D01*
X103521Y187407D01*
X103866Y190023D01*
X103521Y192640D01*
X102511Y195079D01*
X100905Y197172D01*
X98811Y198779D01*
X96372Y199789D01*
X93755Y200134D01*
D02*
G37*
G36*
X249040Y174336D02*
X233770D01*
Y167816D01*
X249040D01*
Y174336D01*
D02*
G37*
G36*
X231230D02*
X215960D01*
Y167816D01*
X231230D01*
Y174336D01*
D02*
G37*
G36*
X211540D02*
X196270D01*
Y167816D01*
X211540D01*
Y174336D01*
D02*
G37*
G36*
X193730D02*
X178460D01*
Y167816D01*
X193730D01*
Y174336D01*
D02*
G37*
G36*
X286540Y174040D02*
X271270D01*
Y167520D01*
X286540D01*
Y174040D01*
D02*
G37*
G36*
X268730D02*
X253460D01*
Y167520D01*
X268730D01*
Y174040D01*
D02*
G37*
G36*
X174040D02*
X158770D01*
Y167520D01*
X174040D01*
Y174040D01*
D02*
G37*
G36*
X156230D02*
X140960D01*
Y167520D01*
X156230D01*
Y174040D01*
D02*
G37*
G36*
X277687Y299572D02*
X275632Y299301D01*
X273717Y298508D01*
X272072Y297246D01*
X270810Y295601D01*
X270016Y293685D01*
X269746Y291630D01*
X270016Y289574D01*
X270810Y287659D01*
X272072Y286014D01*
X273717Y284752D01*
X275632Y283958D01*
X277687Y283688D01*
X278718Y283823D01*
X333549Y228993D01*
Y179618D01*
X333006D01*
Y163870D01*
X343674D01*
Y179618D01*
X343131D01*
Y230977D01*
X342766Y232810D01*
X341728Y234365D01*
X285494Y290599D01*
X285629Y291630D01*
X285359Y293685D01*
X284565Y295601D01*
X283303Y297246D01*
X281658Y298508D01*
X279743Y299301D01*
X277687Y299572D01*
D02*
G37*
G36*
X50555Y200739D02*
X46826Y200372D01*
X43240Y199284D01*
X39935Y197518D01*
X37038Y195140D01*
X34661Y192243D01*
X32894Y188939D01*
X31807Y185353D01*
X31439Y181623D01*
X31807Y177894D01*
X32894Y174308D01*
X34661Y171003D01*
X37038Y168106D01*
X39935Y165729D01*
X43240Y163962D01*
X46826Y162875D01*
X50555Y162507D01*
X54285Y162875D01*
X57871Y163962D01*
X61176Y165729D01*
X64072Y168106D01*
X66450Y171003D01*
X68216Y174308D01*
X69304Y177894D01*
X69671Y181623D01*
X69304Y185353D01*
X68216Y188939D01*
X66450Y192243D01*
X64072Y195140D01*
X61176Y197518D01*
X57871Y199284D01*
X54285Y200372D01*
X50555Y200739D01*
D02*
G37*
G36*
X249040Y165276D02*
X233770D01*
Y158756D01*
X249040D01*
Y165276D01*
D02*
G37*
G36*
X231230D02*
X215960D01*
Y158756D01*
X231230D01*
Y165276D01*
D02*
G37*
G36*
X211540D02*
X196270D01*
Y158756D01*
X211540D01*
Y165276D01*
D02*
G37*
G36*
X193730D02*
X178460D01*
Y158756D01*
X193730D01*
Y165276D01*
D02*
G37*
G36*
X286540Y164980D02*
X271270D01*
Y158460D01*
X286540D01*
Y164980D01*
D02*
G37*
G36*
X268730D02*
X253460D01*
Y158460D01*
X268730D01*
Y164980D01*
D02*
G37*
G36*
X174040D02*
X158770D01*
Y158460D01*
X174040D01*
Y164980D01*
D02*
G37*
G36*
X156230D02*
X140960D01*
Y158460D01*
X156230D01*
Y164980D01*
D02*
G37*
G36*
X486759Y156145D02*
X478712D01*
Y153470D01*
X425536D01*
X425536Y153470D01*
X424446Y153253D01*
X423521Y152636D01*
X423521Y152635D01*
X413517Y142631D01*
X403998D01*
Y130583D01*
X419046D01*
Y140102D01*
X426716Y147773D01*
X478712D01*
Y145097D01*
X486759D01*
Y156145D01*
D02*
G37*
G36*
X123755Y170134D02*
X121139Y169789D01*
X118700Y168779D01*
X116606Y167172D01*
X115000Y165079D01*
X113989Y162640D01*
X113645Y160023D01*
X113989Y157406D01*
X115000Y154968D01*
X116606Y152874D01*
X118700Y151267D01*
X121139Y150257D01*
X123755Y149913D01*
X126372Y150257D01*
X128811Y151267D01*
X130905Y152874D01*
X132511Y154968D01*
X133521Y157406D01*
X133866Y160023D01*
X133521Y162640D01*
X132511Y165079D01*
X130905Y167172D01*
X128811Y168779D01*
X126372Y169789D01*
X123755Y170134D01*
D02*
G37*
G36*
X329704Y185968D02*
X299986D01*
Y157520D01*
X309407D01*
Y141811D01*
X109979D01*
X108102Y143688D01*
Y160023D01*
X107613Y163736D01*
X106180Y167197D01*
X103900Y170168D01*
X100929Y172448D01*
X97469Y173881D01*
X93755Y174370D01*
X90042Y173881D01*
X86582Y172448D01*
X83611Y170168D01*
X81331Y167197D01*
X79897Y163736D01*
X79409Y160023D01*
Y137746D01*
X79409Y137745D01*
X79897Y134032D01*
X81331Y130572D01*
X83611Y127601D01*
X93891Y117320D01*
X93891Y117320D01*
X96863Y115040D01*
X100323Y113607D01*
X104036Y113118D01*
X104036Y113118D01*
X314845D01*
X315777Y113241D01*
X328050D01*
X328638Y112570D01*
Y101414D01*
X322656Y95432D01*
X268006D01*
X268006Y95433D01*
X264293Y94944D01*
X260833Y93510D01*
X257862Y91230D01*
X257861Y91230D01*
X235217Y68586D01*
X202172D01*
X198459Y68097D01*
X194999Y66664D01*
X192027Y64384D01*
X189747Y61413D01*
X188314Y57953D01*
X187825Y54240D01*
X188314Y50526D01*
X189747Y47066D01*
X192027Y44095D01*
X194999Y41815D01*
X198459Y40382D01*
X202172Y39893D01*
X241160D01*
X241160Y39893D01*
X244873Y40382D01*
X248333Y41815D01*
X251305Y44095D01*
X273949Y66739D01*
X328598D01*
X328599Y66739D01*
X332312Y67228D01*
X335772Y68661D01*
X338743Y70941D01*
X353129Y85327D01*
X353129Y85327D01*
X355409Y88298D01*
X356843Y91759D01*
X357331Y95472D01*
X357331Y95472D01*
Y112570D01*
X356843Y116283D01*
X355409Y119743D01*
X354919Y120382D01*
X354919Y137073D01*
X354436Y138240D01*
X353270Y138723D01*
X332437D01*
X332204Y138820D01*
X332199Y138822D01*
X332197Y138822D01*
X332197Y138822D01*
X332196Y138822D01*
X331612Y138580D01*
X331031Y138339D01*
X331031Y138339D01*
X331030Y138338D01*
X331028Y138334D01*
X330974Y138203D01*
X329704Y138456D01*
Y141689D01*
X320284D01*
Y157520D01*
X329704D01*
Y185968D01*
D02*
G37*
G36*
X420062Y129147D02*
X412792D01*
Y123377D01*
X420062D01*
Y129147D01*
D02*
G37*
G36*
X410252D02*
X402982D01*
Y123377D01*
X410252D01*
Y129147D01*
D02*
G37*
G36*
X447046Y142631D02*
X431998D01*
Y130583D01*
X441517D01*
X442796Y129304D01*
X442310Y128131D01*
X431998D01*
Y116083D01*
X441517D01*
X455101Y102499D01*
X455101Y102499D01*
X456025Y101882D01*
X457115Y101665D01*
X478712D01*
Y98989D01*
X486759D01*
Y110037D01*
X478712D01*
Y107362D01*
X458295D01*
X447046Y118612D01*
Y123809D01*
X448316Y124768D01*
X448561Y124719D01*
X448562Y124719D01*
X478712D01*
Y122043D01*
X486759D01*
Y133091D01*
X478712D01*
Y130416D01*
X449741D01*
X447046Y133112D01*
Y142631D01*
D02*
G37*
G36*
X420062Y120837D02*
X412792D01*
Y115067D01*
X420062D01*
Y120837D01*
D02*
G37*
G36*
X410252D02*
X402982D01*
Y115067D01*
X410252D01*
Y120837D01*
D02*
G37*
G36*
X152134Y68624D02*
Y59320D01*
X161439D01*
X161202Y60100D01*
X159787Y62747D01*
X157882Y65068D01*
X155562Y66972D01*
X152914Y68388D01*
X152134Y68624D01*
D02*
G37*
G36*
X141974D02*
X141194Y68388D01*
X138546Y66972D01*
X136226Y65068D01*
X134321Y62747D01*
X132906Y60100D01*
X132669Y59320D01*
X141974D01*
Y68624D01*
D02*
G37*
G36*
Y49159D02*
X132669D01*
X132906Y48379D01*
X134321Y45732D01*
X136226Y43411D01*
X138546Y41507D01*
X141194Y40092D01*
X141974Y39855D01*
Y49159D01*
D02*
G37*
G36*
X161439D02*
X152134D01*
Y39855D01*
X152914Y40092D01*
X155562Y41507D01*
X157882Y43411D01*
X159787Y45732D01*
X161202Y48379D01*
X161439Y49159D01*
D02*
G37*
G36*
X74156Y74913D02*
X70123Y74516D01*
X66245Y73339D01*
X62670Y71429D01*
X59538Y68858D01*
X56967Y65725D01*
X55056Y62151D01*
X53880Y58273D01*
X53482Y54240D01*
X53880Y50206D01*
X55056Y46328D01*
X56967Y42754D01*
X59538Y39621D01*
X62670Y37050D01*
X66245Y35140D01*
X70123Y33963D01*
X74156Y33566D01*
X78189Y33963D01*
X82067Y35140D01*
X85642Y37050D01*
X88774Y39621D01*
X91345Y42754D01*
X93256Y46328D01*
X94432Y50206D01*
X94830Y54240D01*
X94432Y58273D01*
X93256Y62151D01*
X91345Y65725D01*
X88774Y68858D01*
X85642Y71429D01*
X82067Y73339D01*
X78189Y74516D01*
X74156Y74913D01*
D02*
G37*
G36*
X545047Y63652D02*
X540622Y63304D01*
X536307Y62268D01*
X532207Y60569D01*
X528423Y58251D01*
X525049Y55368D01*
X522167Y51994D01*
X519848Y48210D01*
X518150Y44110D01*
X517114Y39795D01*
X516765Y35371D01*
X517114Y30947D01*
X518150Y26631D01*
X519848Y22531D01*
X522167Y18748D01*
X525049Y15373D01*
X528423Y12491D01*
X532207Y10172D01*
X536307Y8474D01*
X540622Y7438D01*
X545047Y7089D01*
X549471Y7438D01*
X553786Y8474D01*
X557886Y10172D01*
X561670Y12491D01*
X565044Y15373D01*
X567927Y18748D01*
X570245Y22531D01*
X571944Y26631D01*
X572980Y30947D01*
X573328Y35371D01*
X572980Y39795D01*
X571944Y44110D01*
X570245Y48210D01*
X567927Y51994D01*
X565044Y55368D01*
X561670Y58251D01*
X557886Y60569D01*
X553786Y62268D01*
X549471Y63304D01*
X545047Y63652D01*
D02*
G37*
G36*
X305828D02*
X301404Y63304D01*
X297089Y62268D01*
X292989Y60569D01*
X289205Y58251D01*
X285830Y55368D01*
X282948Y51994D01*
X280630Y48210D01*
X278931Y44110D01*
X277895Y39795D01*
X277547Y35371D01*
X277895Y30947D01*
X278931Y26631D01*
X280630Y22531D01*
X282948Y18748D01*
X285830Y15373D01*
X289205Y12491D01*
X292989Y10172D01*
X297089Y8474D01*
X301404Y7438D01*
X305828Y7089D01*
X310252Y7438D01*
X314568Y8474D01*
X318668Y10172D01*
X322452Y12491D01*
X325826Y15373D01*
X328708Y18748D01*
X331027Y22531D01*
X332725Y26631D01*
X333761Y30947D01*
X334109Y35371D01*
X333761Y39795D01*
X332725Y44110D01*
X331027Y48210D01*
X328708Y51994D01*
X325826Y55368D01*
X322452Y58251D01*
X318668Y60569D01*
X314568Y62268D01*
X310252Y63304D01*
X305828Y63652D01*
D02*
G37*
%LPD*%
G36*
X493441Y1120760D02*
Y1082436D01*
X469227Y1058221D01*
X467957Y1058747D01*
Y1062472D01*
X467691Y1063810D01*
X466933Y1064945D01*
X466933Y1064945D01*
X458593Y1073284D01*
X457458Y1074042D01*
X456121Y1074308D01*
X453653D01*
X452299Y1075663D01*
Y1076540D01*
X456898Y1081139D01*
X458614Y1080913D01*
X460996Y1081227D01*
X463215Y1082146D01*
X465121Y1083609D01*
X466584Y1085515D01*
X467503Y1087734D01*
X467817Y1090116D01*
X467503Y1092498D01*
X466584Y1094717D01*
X465121Y1096623D01*
X463689Y1097722D01*
X464037Y1099056D01*
X464641Y1099145D01*
X470183Y1093603D01*
X469725Y1092498D01*
X469411Y1090116D01*
X469725Y1087734D01*
X470644Y1085515D01*
X472107Y1083609D01*
X474013Y1082146D01*
X476232Y1081227D01*
X478614Y1080913D01*
X480996Y1081227D01*
X483215Y1082146D01*
X485121Y1083609D01*
X486584Y1085515D01*
X487503Y1087734D01*
X487817Y1090116D01*
X487503Y1092498D01*
X486584Y1094717D01*
X485121Y1096623D01*
X483215Y1098086D01*
X480996Y1099005D01*
X478614Y1099319D01*
X476232Y1099005D01*
X475127Y1098547D01*
X468321Y1105354D01*
X467187Y1106111D01*
X465849Y1106378D01*
X464300D01*
X463869Y1107648D01*
X465121Y1108609D01*
X466584Y1110515D01*
X467439Y1112580D01*
X467540Y1112607D01*
X468735Y1112469D01*
X469757Y1110002D01*
X471382Y1107884D01*
X473500Y1106259D01*
X473534Y1106245D01*
Y1115116D01*
Y1123987D01*
X473500Y1123973D01*
X471382Y1122348D01*
X469757Y1120230D01*
X468735Y1117763D01*
X467540Y1117625D01*
X467439Y1117652D01*
X466584Y1119717D01*
X465121Y1121623D01*
X463215Y1123086D01*
X462110Y1123544D01*
Y1125275D01*
X466117Y1129282D01*
X484920D01*
X493441Y1120760D01*
D02*
G37*
%LPC*%
G36*
X483694Y1123987D02*
Y1120196D01*
X487485D01*
X487471Y1120230D01*
X485846Y1122348D01*
X483728Y1123973D01*
X483694Y1123987D01*
D02*
G37*
G36*
X487485Y1110036D02*
X483694D01*
Y1106245D01*
X483728Y1106259D01*
X485846Y1107884D01*
X487471Y1110002D01*
X487485Y1110036D01*
D02*
G37*
%LPD*%
G36*
X498190Y524581D02*
Y490467D01*
X494838Y487116D01*
X493373D01*
Y493585D01*
X482325D01*
Y492131D01*
X475147D01*
X474621Y493401D01*
X480244Y499025D01*
X481309Y499521D01*
X486579D01*
Y504561D01*
Y509601D01*
X481462D01*
Y514576D01*
X487817Y520931D01*
X488792Y520737D01*
X490626Y521102D01*
X492180Y522140D01*
X493218Y523694D01*
X493583Y525528D01*
X493218Y527361D01*
X492423Y528551D01*
X493410Y529361D01*
X498190Y524581D01*
D02*
G37*
%LPC*%
G36*
X494389Y509601D02*
X489119D01*
Y505831D01*
X494389D01*
Y509601D01*
D02*
G37*
G36*
Y503291D02*
X489119D01*
Y499521D01*
X494389D01*
Y503291D01*
D02*
G37*
%LPD*%
G36*
X332297Y137073D02*
X353270D01*
X353270Y111305D01*
X340913Y98948D01*
X332227Y98948D01*
X332197Y137173D01*
X332297Y137073D01*
D02*
G37*
D11*
X177115Y342835D02*
X235381D01*
X166887Y332607D02*
X177115Y342835D01*
X166887Y317592D02*
Y332607D01*
Y238092D02*
Y317592D01*
X322679Y510282D02*
Y603737D01*
X427538Y384282D02*
Y483708D01*
X342824Y374282D02*
X347679Y369427D01*
X110498Y565175D02*
X133468D01*
X344231Y625289D02*
Y653024D01*
X322679Y603737D02*
X344231Y625289D01*
X372373Y374278D02*
X372679Y373971D01*
Y358282D02*
Y373971D01*
X407679Y520423D02*
X431731Y544475D01*
X407679Y510282D02*
Y520423D01*
X431731Y544475D02*
X456232D01*
X432679Y510282D02*
Y535414D01*
X446184Y533084D02*
Y533370D01*
X437676Y540411D02*
X457915D01*
X432679Y535414D02*
X437676Y540411D01*
X446836Y977350D02*
X449810Y974376D01*
X422941Y977350D02*
X446836D01*
X419016Y973424D02*
X422941Y977350D01*
X481898Y550649D02*
Y918513D01*
X449810Y950601D02*
X481898Y918513D01*
X449810Y950601D02*
Y974376D01*
X445016Y949648D02*
Y963890D01*
Y949648D02*
X477834Y916830D01*
Y548966D02*
Y916830D01*
X464810Y923932D02*
X473770Y914972D01*
X407565Y923932D02*
X464810D01*
X473770Y556266D02*
Y914972D01*
X474010Y454282D02*
X486201Y466473D01*
X458679Y454282D02*
X474010D01*
X332679Y545550D02*
X348337Y561208D01*
X332679Y510282D02*
Y545550D01*
X423525Y484020D02*
X433820D01*
X423525Y484020D02*
X423525Y484020D01*
X336424Y484020D02*
X423525D01*
X143317Y575024D02*
X178698D01*
X133468Y565175D02*
X143317Y575024D01*
X110498Y565079D02*
X110672Y564906D01*
Y546627D02*
Y564906D01*
X498755Y611117D02*
Y626086D01*
X513755Y594453D02*
X514782Y593426D01*
X513755Y594453D02*
Y626086D01*
X411084Y301336D02*
X418461Y308713D01*
X297894Y301336D02*
X411084D01*
X256997Y342233D02*
X297894Y301336D01*
X411006Y328146D02*
X418461Y320691D01*
Y308713D02*
Y320691D01*
X235983Y342233D02*
X256997D01*
X445415Y916152D02*
X466842D01*
X276420Y890034D02*
X284061D01*
X446024Y635569D02*
Y728071D01*
X284061Y890034D02*
X446024Y728071D01*
X342679Y532225D02*
X446024Y635569D01*
X342679Y510282D02*
Y532225D01*
X347679Y531477D02*
X450088Y633885D01*
X347679Y510282D02*
Y531477D01*
X450088Y633885D02*
Y729755D01*
X290360Y889483D02*
X450088Y729755D01*
X357679Y510282D02*
Y529982D01*
X469706Y557949D02*
Y913288D01*
X352679Y510282D02*
Y530730D01*
X454664Y632714D01*
X478613Y515756D02*
X488385Y525528D01*
X488792D01*
X478613Y501422D02*
Y515756D01*
X471473Y494282D02*
X478613Y501422D01*
X458679Y494282D02*
X471473D01*
X259673Y374282D02*
X306679D01*
X198604Y503702D02*
X235707Y466599D01*
X198604Y503702D02*
Y509693D01*
X316752Y494282D02*
X326389Y484645D01*
Y483731D02*
Y484645D01*
X306679Y494282D02*
X316752D01*
X322679Y497765D02*
X336424Y484020D01*
X322679Y497765D02*
Y510282D01*
X444082Y494282D02*
X458679D01*
X306679Y374282D02*
X342824D01*
X466842Y916152D02*
X469706Y913288D01*
X337679Y491206D02*
Y510282D01*
X456232Y544475D02*
X469706Y557949D01*
X457915Y540411D02*
X473770Y556266D01*
X254707Y618284D02*
X284502Y588490D01*
Y474260D02*
Y588490D01*
Y474260D02*
X289479Y469282D01*
X254423Y610039D02*
X280438Y584025D01*
Y472576D02*
Y584025D01*
Y472576D02*
X288732Y464282D01*
X514367Y167253D02*
Y350364D01*
X497735Y150621D02*
X514367Y167253D01*
X497735Y104513D02*
X524367Y131145D01*
X497735Y127567D02*
X519367Y149199D01*
X524367Y131145D02*
Y351859D01*
X471944Y404282D02*
X524367Y351859D01*
X458679Y404282D02*
X471944D01*
X519367Y149199D02*
Y351111D01*
X471197Y399282D02*
X519367Y351111D01*
X458679Y399282D02*
X471197D01*
X470449Y394282D02*
X514367Y350364D01*
X458679Y394282D02*
X470449D01*
X451655Y524783D02*
X451752Y524880D01*
X445236Y524783D02*
X451655D01*
X437679Y524865D02*
X446184Y533370D01*
X458679Y479282D02*
X504453D01*
X511251Y486079D01*
X481898Y550649D02*
X511251Y521296D01*
Y486079D02*
Y521296D01*
X419016Y963890D02*
Y973424D01*
X458679Y484267D02*
Y484282D01*
X432016Y940265D02*
X436360Y935921D01*
X432016Y940265D02*
Y963890D01*
X436360Y932095D02*
Y935921D01*
X276420Y966234D02*
X290360Y952294D01*
Y889483D02*
Y952294D01*
X439522Y122107D02*
X457115Y104513D01*
X482735D01*
X411522Y136607D02*
X425536Y150621D01*
X482735D01*
X273598Y473669D02*
X287984Y459282D01*
X273598Y473669D02*
Y580505D01*
X242433Y610039D02*
X254423D01*
X254707Y618284D02*
Y640217D01*
X289479Y469282D02*
X306679D01*
X288732Y464282D02*
X306679D01*
X287984Y459282D02*
X306679D01*
X287237Y454282D02*
X306679D01*
X238806Y502713D02*
X287237Y454282D01*
X238806Y502713D02*
Y550263D01*
X442679Y522226D02*
X445236Y524783D01*
X442679Y510282D02*
Y522226D01*
X437679Y510282D02*
Y524865D01*
X458679Y489282D02*
X488954D01*
X382679Y338337D02*
X405667Y315350D01*
X123755Y353413D02*
X204624Y434282D01*
X306679D01*
X123755Y383413D02*
X179624Y439282D01*
X306679D01*
X123755Y413413D02*
X154624Y444282D01*
X306679D01*
X382679Y338337D02*
Y358282D01*
X377679Y336162D02*
Y358282D01*
X356867Y315350D02*
X377679Y336162D01*
X425516Y940201D02*
Y963890D01*
X373487Y894919D02*
Y918112D01*
X373516Y865287D02*
Y894890D01*
X373511Y865282D02*
X373516Y865287D01*
X178925Y590251D02*
Y609723D01*
X178698Y590024D02*
X178925Y590251D01*
Y609723D02*
X204129D01*
X219158Y609752D02*
X242205D01*
X123755Y609763D02*
X178885D01*
X178925Y609723D01*
X198635Y550407D02*
X223662D01*
X238806Y550263D02*
X261956D01*
X197991Y549763D02*
X198635Y550407D01*
X123755Y549763D02*
X197991D01*
X198635Y524723D02*
Y550407D01*
X110672Y546627D02*
X119445Y537854D01*
X170443D01*
X198604Y509693D01*
X380016Y951481D02*
X407565Y923932D01*
X380016Y951481D02*
Y963890D01*
X357679Y529982D02*
X458728Y631031D01*
Y785361D01*
X463384Y790017D01*
X454664Y632714D02*
Y818837D01*
X532077Y568731D02*
Y718101D01*
X541139Y727164D01*
X347679Y358282D02*
Y369427D01*
X433820Y484020D02*
X444082Y494282D01*
X404114Y328146D02*
X411006D01*
X395897Y336363D02*
X404114Y328146D01*
X387679Y344580D02*
Y358282D01*
Y344580D02*
X395897Y336363D01*
X343032Y374278D02*
X372373D01*
X412679Y358282D02*
Y374036D01*
X412437Y374278D02*
X412679Y374036D01*
X372373Y374278D02*
X412437D01*
X422679Y358282D02*
Y374016D01*
X422418Y374278D02*
X422679Y374016D01*
X412437Y374278D02*
X422418D01*
X427538Y384282D02*
X427679Y384141D01*
X427538Y384282D02*
X458679D01*
X422418Y374278D02*
X427638D01*
X427679Y374319D01*
Y358282D02*
Y374319D01*
Y384141D01*
X306679Y429282D02*
X322510D01*
X337892Y444665D01*
Y477840D01*
X259238Y374717D02*
X259673Y374282D01*
X236772Y374717D02*
X259238D01*
X235454Y342762D02*
Y360161D01*
Y342762D02*
X235983Y342233D01*
X235381Y342835D02*
X235454Y342762D01*
X151362Y449282D02*
X306679D01*
X145493Y443413D02*
X151362Y449282D01*
X123755Y443413D02*
X145493D01*
X439522Y136607D02*
X448561Y127567D01*
X482735D01*
X458679Y484267D02*
X496018D01*
X501039Y489287D01*
Y525761D01*
X477834Y548966D02*
X501039Y525761D01*
X458679Y449282D02*
X482250D01*
X491566Y458597D01*
X458679Y444282D02*
X492173D01*
X497992Y450101D01*
X458679Y439282D02*
X504693D01*
X504896Y439486D01*
D43*
X360340Y894124D02*
D03*
X366840D02*
D03*
X373340D02*
D03*
X379840D02*
D03*
X386340D02*
D03*
X392840D02*
D03*
X399340D02*
D03*
X405840D02*
D03*
X412340D02*
D03*
X418840D02*
D03*
X425340D02*
D03*
X431840D02*
D03*
X438340D02*
D03*
X444840D02*
D03*
X360340Y963124D02*
D03*
X366840D02*
D03*
X373340D02*
D03*
X379840D02*
D03*
X386340D02*
D03*
X392840D02*
D03*
X399340D02*
D03*
X405840D02*
D03*
X412340D02*
D03*
X418840D02*
D03*
X425340D02*
D03*
X431840D02*
D03*
X438340D02*
D03*
X444840D02*
D03*
D44*
X270000Y133750D02*
D03*
Y166250D02*
D03*
X232500Y134046D02*
D03*
Y166546D02*
D03*
X195000Y134046D02*
D03*
Y166546D02*
D03*
X157500Y133750D02*
D03*
Y166250D02*
D03*
D45*
X212887Y238092D02*
D03*
Y317592D02*
D03*
X166887Y238092D02*
D03*
Y317592D02*
D03*
D46*
X348337Y576208D02*
D03*
Y561208D02*
D03*
X235983Y342233D02*
D03*
Y327233D02*
D03*
X235454Y360161D02*
D03*
Y375161D02*
D03*
X232602Y1136533D02*
D03*
Y1151533D02*
D03*
X256818Y1136918D02*
D03*
Y1151918D02*
D03*
Y1110248D02*
D03*
Y1095248D02*
D03*
X232132Y1110210D02*
D03*
Y1095210D02*
D03*
X487849Y504561D02*
D03*
Y489561D02*
D03*
X178698Y590024D02*
D03*
Y575024D02*
D03*
X242433Y610039D02*
D03*
Y595039D02*
D03*
X198604Y524693D02*
D03*
Y509693D02*
D03*
X262021Y550198D02*
D03*
Y535198D02*
D03*
D47*
X338340Y171744D02*
D03*
Y127465D02*
D03*
D48*
X314845Y171744D02*
D03*
Y127465D02*
D03*
D49*
X513725Y593426D02*
D03*
X498725D02*
D03*
X513755Y626086D02*
D03*
X498755D02*
D03*
X388479Y864166D02*
D03*
X373479D02*
D03*
X497735Y104513D02*
D03*
X482735D02*
D03*
X497735Y127567D02*
D03*
X482735D02*
D03*
X497735Y150621D02*
D03*
X482735D02*
D03*
X219158Y609752D02*
D03*
X204158D02*
D03*
X238806Y550263D02*
D03*
X223806D02*
D03*
D50*
X404434Y739259D02*
D03*
D51*
Y715764D02*
D03*
D52*
X322679Y358282D02*
D03*
X327679D02*
D03*
X332679D02*
D03*
X337679D02*
D03*
X342679D02*
D03*
X347679D02*
D03*
X352679D02*
D03*
X357679D02*
D03*
X362679D02*
D03*
X367679D02*
D03*
X372679D02*
D03*
X377679D02*
D03*
X382679D02*
D03*
X387679D02*
D03*
X392679D02*
D03*
X397679D02*
D03*
X402679D02*
D03*
X407679D02*
D03*
X412679D02*
D03*
X417679D02*
D03*
X422679D02*
D03*
X427679D02*
D03*
X432679D02*
D03*
X437679D02*
D03*
X442679D02*
D03*
Y510282D02*
D03*
X437679D02*
D03*
X432679D02*
D03*
X427679D02*
D03*
X422679D02*
D03*
X417679D02*
D03*
X412679D02*
D03*
X407679D02*
D03*
X402679D02*
D03*
X397679D02*
D03*
X392679D02*
D03*
X387679D02*
D03*
X382679D02*
D03*
X377679D02*
D03*
X372679D02*
D03*
X367679D02*
D03*
X362679D02*
D03*
X357679D02*
D03*
X352679D02*
D03*
X347679D02*
D03*
X342679D02*
D03*
X337679D02*
D03*
X332679D02*
D03*
X327679D02*
D03*
X322679D02*
D03*
D53*
X458679Y374282D02*
D03*
Y379282D02*
D03*
Y384282D02*
D03*
Y389282D02*
D03*
Y394282D02*
D03*
Y399282D02*
D03*
Y404282D02*
D03*
Y409282D02*
D03*
Y414282D02*
D03*
Y419282D02*
D03*
Y424282D02*
D03*
Y429282D02*
D03*
Y434282D02*
D03*
Y439282D02*
D03*
Y444282D02*
D03*
Y449282D02*
D03*
Y454282D02*
D03*
Y459282D02*
D03*
Y464282D02*
D03*
Y469282D02*
D03*
Y474282D02*
D03*
Y479282D02*
D03*
Y484282D02*
D03*
Y489282D02*
D03*
Y494282D02*
D03*
X306679D02*
D03*
Y489282D02*
D03*
Y484282D02*
D03*
Y479282D02*
D03*
Y474282D02*
D03*
Y469282D02*
D03*
Y464282D02*
D03*
Y459282D02*
D03*
Y454282D02*
D03*
Y449282D02*
D03*
Y444282D02*
D03*
Y439282D02*
D03*
Y434282D02*
D03*
Y429282D02*
D03*
Y424282D02*
D03*
Y419282D02*
D03*
Y414282D02*
D03*
Y409282D02*
D03*
Y404282D02*
D03*
Y399282D02*
D03*
Y394282D02*
D03*
Y389282D02*
D03*
Y384282D02*
D03*
Y379282D02*
D03*
Y374282D02*
D03*
D54*
X411522Y136607D02*
D03*
X439522D02*
D03*
X411522Y122107D02*
D03*
X439522D02*
D03*
D55*
X178925Y631723D02*
D03*
Y609723D02*
D03*
X198635Y572407D02*
D03*
Y550407D02*
D03*
D56*
X442033Y1052973D02*
X447144Y1058084D01*
X442033Y1047382D02*
Y1052973D01*
Y1047382D02*
X446435Y1042981D01*
Y1038028D02*
Y1042981D01*
X441633Y1033226D02*
X446435Y1038028D01*
X452205Y1070812D02*
X456121D01*
X448803Y1074214D02*
X452205Y1070812D01*
X448803Y1074214D02*
Y1077988D01*
X456121Y1070812D02*
X464460Y1062472D01*
X448803Y1077988D02*
X458614Y1087799D01*
X437275Y1033226D02*
X441633D01*
X433258Y1037244D02*
X437275Y1033226D01*
X427192Y1037244D02*
X433258D01*
X422537Y1032590D02*
X427192Y1037244D01*
X422537Y1005010D02*
Y1032590D01*
X458614Y1087799D02*
Y1090116D01*
X464460Y1057938D02*
Y1062472D01*
X460841Y1054318D02*
X464460Y1057938D01*
X456183Y1054318D02*
X460841D01*
X452417Y1058084D02*
X456183Y1054318D01*
X447144Y1058084D02*
X452417D01*
X415947Y1007400D02*
Y1079973D01*
X406805Y998257D02*
X415947Y1007400D01*
Y1079973D02*
X438856Y1102881D01*
X232602Y1151533D02*
X272877D01*
X464669Y1132778D02*
X486368D01*
X458614Y1126723D02*
X464669Y1132778D01*
X458614Y1115116D02*
Y1126723D01*
X439791Y1006451D02*
Y1023841D01*
X486368Y1132778D02*
X496937Y1122208D01*
Y1080987D02*
Y1122208D01*
X439791Y1023841D02*
X496937Y1080987D01*
X309294Y1115116D02*
X458614D01*
X465849Y1102881D02*
X478614Y1090116D01*
X438856Y1102881D02*
X465849D01*
X419913Y986573D02*
X439791Y1006451D01*
X409435Y991907D02*
X422537Y1005010D01*
X348431Y986573D02*
X419913D01*
X272877Y1151533D02*
X309294Y1115116D01*
X341767Y991907D02*
X409435D01*
X338480Y988621D02*
X341767Y991907D01*
X185494Y1136000D02*
Y1138699D01*
X320187Y879265D02*
Y987589D01*
X232113Y1075663D02*
X320187Y987589D01*
X256818Y1095248D02*
X257505Y1094562D01*
Y1072584D02*
Y1094562D01*
X325562Y883174D02*
Y1004526D01*
X257505Y1072584D02*
X325562Y1004526D01*
X232113Y1095191D02*
X232132Y1095210D01*
X232113Y1075663D02*
Y1095191D01*
X343814Y981956D02*
X348431Y986573D01*
X343814Y934158D02*
Y981956D01*
X185494Y1138699D02*
X198328Y1151533D01*
X232602D01*
X320187Y879265D02*
X354736Y844715D01*
X394015D01*
X358566Y850170D02*
X391927D01*
X325562Y883174D02*
X358566Y850170D01*
X332130Y991251D02*
X339137Y998257D01*
X406805D01*
X332130Y924016D02*
Y991251D01*
Y924016D02*
X339829Y916317D01*
X358512D01*
X360516Y914314D01*
Y894890D02*
Y914314D01*
X373487Y894919D02*
X373516Y894890D01*
X425065Y939749D02*
X425516Y940201D01*
X361143Y922667D02*
X366883Y916926D01*
Y915376D02*
Y916926D01*
Y915376D02*
X367016Y915244D01*
Y894890D02*
Y915244D01*
X386516Y894890D02*
Y915857D01*
X374372Y928001D02*
X386516Y915857D01*
X232132Y1110210D02*
Y1136880D01*
X256818Y1110248D02*
Y1136918D01*
X338480Y926646D02*
Y988621D01*
Y926646D02*
X342459Y922667D01*
X361143D01*
X412516Y863216D02*
Y894890D01*
X394015Y844715D02*
X412516Y863216D01*
X406016Y864259D02*
Y894890D01*
X391927Y850170D02*
X406016Y864259D01*
X349971Y928001D02*
X374372D01*
X343814Y934158D02*
X349971Y928001D01*
X386516Y915857D02*
X393016Y909357D01*
Y894890D02*
Y909357D01*
D57*
X277687Y291630D02*
X338340Y230977D01*
X321880Y653024D02*
X344231D01*
X300325Y631469D02*
X321880Y653024D01*
X404434Y739259D02*
Y745673D01*
X353147Y796959D02*
X404434Y745673D01*
X300325Y577706D02*
Y631469D01*
X338340Y171744D02*
Y230977D01*
X299826Y692838D02*
X353147Y746159D01*
X150872Y692838D02*
X299826D01*
X96705Y747004D02*
X150872Y692838D01*
X78612Y765097D02*
X96705Y747004D01*
X78612Y765097D02*
Y894011D01*
X96705Y912104D01*
D58*
X328599Y81086D02*
X342985Y95472D01*
X194155Y127465D02*
X314845D01*
X147054D02*
X194155D01*
X130093D02*
X147054D01*
X104036D02*
X130093D01*
X93755Y137745D02*
X104036Y127465D01*
X93755Y137745D02*
Y160023D01*
X268006Y81086D02*
X328599D01*
X241160Y54240D02*
X268006Y81086D01*
X202172Y54240D02*
X241160D01*
X342985Y95472D02*
Y112570D01*
D59*
X314845Y127465D02*
Y171744D01*
D60*
X395031Y653024D02*
X404434Y662427D01*
Y715764D01*
X257937Y922351D02*
X276420Y940834D01*
X257937Y792947D02*
Y922351D01*
Y792947D02*
X276420Y774464D01*
D61*
X505714Y1162816D02*
D03*
Y1042416D02*
D03*
D62*
X458614Y1115116D02*
D03*
Y1090116D02*
D03*
X478614D02*
D03*
Y1115116D02*
D03*
D63*
X353147Y746159D02*
D03*
Y771559D02*
D03*
Y796959D02*
D03*
X344231Y653024D02*
D03*
X369631D02*
D03*
X420431D02*
D03*
X395031D02*
D03*
X356867Y315350D02*
D03*
X405667D02*
D03*
D64*
X197680Y799864D02*
D03*
Y723664D02*
D03*
X276420Y799864D02*
D03*
Y723664D02*
D03*
Y774464D02*
D03*
Y749064D02*
D03*
X197680Y774464D02*
D03*
Y749064D02*
D03*
Y966234D02*
D03*
Y890034D02*
D03*
X276420Y966234D02*
D03*
Y890034D02*
D03*
Y940834D02*
D03*
Y915434D02*
D03*
X197680Y940834D02*
D03*
Y915434D02*
D03*
D65*
X74156Y54240D02*
D03*
X52577Y1146174D02*
D03*
X369463D02*
D03*
X305828Y35371D02*
D03*
X545047D02*
D03*
D66*
X147054Y54240D02*
D03*
X202172D02*
D03*
D67*
X126705Y747004D02*
D03*
Y777004D02*
D03*
Y807004D02*
D03*
X96705D02*
D03*
Y747004D02*
D03*
Y777004D02*
D03*
X93755Y353413D02*
D03*
Y383413D02*
D03*
Y413413D02*
D03*
Y443413D02*
D03*
X123755Y353413D02*
D03*
Y383413D02*
D03*
Y413413D02*
D03*
Y443413D02*
D03*
X126705Y912104D02*
D03*
Y942104D02*
D03*
Y972104D02*
D03*
X96705D02*
D03*
Y912104D02*
D03*
Y942104D02*
D03*
X93755Y549763D02*
D03*
Y579763D02*
D03*
Y609763D02*
D03*
Y639763D02*
D03*
X123755Y549763D02*
D03*
Y579763D02*
D03*
Y609763D02*
D03*
Y639763D02*
D03*
X93755Y160023D02*
D03*
Y190023D02*
D03*
Y220023D02*
D03*
Y250023D02*
D03*
X123755Y160023D02*
D03*
Y190023D02*
D03*
Y220023D02*
D03*
Y250023D02*
D03*
D68*
X53505Y777004D02*
D03*
X50555Y421813D02*
D03*
Y375013D02*
D03*
X53505Y942104D02*
D03*
X50555Y618163D02*
D03*
Y571363D02*
D03*
Y228423D02*
D03*
Y181623D02*
D03*
D69*
X541139Y955764D02*
D03*
X515740D02*
D03*
Y930364D02*
D03*
X541139D02*
D03*
Y879564D02*
D03*
X515740D02*
D03*
Y904964D02*
D03*
X541139D02*
D03*
Y803364D02*
D03*
X515740D02*
D03*
Y777964D02*
D03*
X541139D02*
D03*
Y828764D02*
D03*
X515740D02*
D03*
Y854164D02*
D03*
X541139D02*
D03*
Y727164D02*
D03*
X515740D02*
D03*
Y752564D02*
D03*
X541139D02*
D03*
D70*
X470709Y1071697D02*
D03*
X185494Y1136000D02*
D03*
X227190Y841722D02*
D03*
Y858063D02*
D03*
X446184Y533084D02*
D03*
X351487Y590671D02*
D03*
X335523D02*
D03*
X538210Y290329D02*
D03*
Y304366D02*
D03*
Y318404D02*
D03*
X495886Y300540D02*
D03*
Y314578D02*
D03*
Y328616D02*
D03*
X545574Y562556D02*
D03*
X534686Y552318D02*
D03*
X523798Y542081D02*
D03*
X406614Y941383D02*
D03*
X368876Y1034241D02*
D03*
X384755Y1034506D02*
D03*
X110498Y565079D02*
D03*
X343032Y374278D02*
D03*
X322753Y529142D02*
D03*
X498755Y611117D02*
D03*
X445415Y916152D02*
D03*
X492862Y516675D02*
D03*
X488792Y525528D02*
D03*
X235707Y466599D02*
D03*
X326389Y483731D02*
D03*
X337892Y477840D02*
D03*
X337679Y491206D02*
D03*
X451655Y524783D02*
D03*
X436360Y932095D02*
D03*
X273598Y580505D02*
D03*
X254707Y640217D02*
D03*
X425065Y939749D02*
D03*
X373487Y918112D02*
D03*
X463384Y790017D02*
D03*
X454664Y818837D02*
D03*
X532077Y568731D02*
D03*
X395897Y336363D02*
D03*
X427446Y439416D02*
D03*
X259238Y374717D02*
D03*
X339281Y890931D02*
D03*
X389513Y878476D02*
D03*
X363772Y442771D02*
D03*
Y424197D02*
D03*
Y405085D02*
D03*
X381000D02*
D03*
Y424197D02*
D03*
Y442771D02*
D03*
X486201Y466473D02*
D03*
X491566Y458597D02*
D03*
X497992Y450101D02*
D03*
X504896Y439486D02*
D03*
D71*
X300325Y577706D02*
D03*
X277687Y291630D02*
D03*
M02*
