G04*
G04 #@! TF.GenerationSoftware,Altium Limited,Altium Designer,18.1.6 (161)*
G04*
G04 Layer_Color=16711935*
%FSLAX44Y44*%
%MOMM*%
G71*
G01*
G75*
%ADD22R,1.0032X0.7032*%
%ADD25R,0.7032X1.0032*%
%ADD26R,1.4732X0.9652*%
%ADD27R,2.7432X2.8702*%
%ADD31R,1.0032X1.0032*%
%ADD32C,3.4032*%
%ADD33C,1.7232*%
%ADD34C,2.2032*%
%ADD35O,1.7272X1.2192*%
%ADD36C,4.0132*%
%ADD37C,2.7432*%
%ADD38C,1.9032*%
%ADD39C,3.7032*%
%ADD40C,1.8542*%
%ADD41C,0.8382*%
%ADD42C,1.4732*%
%ADD76R,1.4532X3.0532*%
%ADD77R,5.7532X6.7032*%
%ADD78R,3.0532X1.4532*%
%ADD79R,6.7032X5.7532*%
D22*
X301560Y536501D02*
D03*
Y521501D02*
D03*
X343152Y403996D02*
D03*
Y388996D02*
D03*
X429463Y300219D02*
D03*
Y315219D02*
D03*
X333693Y300420D02*
D03*
Y315420D02*
D03*
X300325Y301044D02*
D03*
Y286044D02*
D03*
X477640Y256549D02*
D03*
Y271549D02*
D03*
X386074Y126513D02*
D03*
Y141513D02*
D03*
X178193Y920425D02*
D03*
Y935425D02*
D03*
Y754158D02*
D03*
Y769158D02*
D03*
X382679Y249067D02*
D03*
Y264067D02*
D03*
X242433Y640252D02*
D03*
Y625252D02*
D03*
X178922Y616106D02*
D03*
Y601106D02*
D03*
X198631Y550779D02*
D03*
Y535779D02*
D03*
X262021Y580505D02*
D03*
Y565505D02*
D03*
D25*
X396977Y439318D02*
D03*
X411977D02*
D03*
X219158Y640166D02*
D03*
X204158D02*
D03*
X238806Y580452D02*
D03*
X223806D02*
D03*
D26*
X185624Y1093297D02*
D03*
X428674Y842264D02*
D03*
D27*
X185624Y1069802D02*
D03*
X428674Y818769D02*
D03*
D31*
X149350Y897878D02*
D03*
Y919877D02*
D03*
Y957431D02*
D03*
Y935431D02*
D03*
Y791281D02*
D03*
Y769281D02*
D03*
Y731862D02*
D03*
Y753862D02*
D03*
X179028Y662153D02*
D03*
Y640153D02*
D03*
X198573Y602444D02*
D03*
Y580444D02*
D03*
D32*
X505714Y1162816D02*
D03*
Y1042416D02*
D03*
D33*
X458614Y1115116D02*
D03*
Y1090116D02*
D03*
X478614D02*
D03*
Y1115116D02*
D03*
D34*
X353147Y746159D02*
D03*
Y771559D02*
D03*
Y796959D02*
D03*
X344231Y653024D02*
D03*
X369631D02*
D03*
X420431D02*
D03*
X395031D02*
D03*
X356867Y315350D02*
D03*
X405667D02*
D03*
D35*
X197680Y799864D02*
D03*
Y723664D02*
D03*
X276420Y799864D02*
D03*
Y723664D02*
D03*
Y774464D02*
D03*
Y749064D02*
D03*
X197680Y774464D02*
D03*
Y749064D02*
D03*
Y966234D02*
D03*
Y890034D02*
D03*
X276420Y966234D02*
D03*
Y890034D02*
D03*
Y940834D02*
D03*
Y915434D02*
D03*
X197680Y940834D02*
D03*
Y915434D02*
D03*
D36*
X74156Y54240D02*
D03*
X52577Y1146174D02*
D03*
X369463D02*
D03*
X305828Y35371D02*
D03*
X545047D02*
D03*
D37*
X147054Y54240D02*
D03*
X202172D02*
D03*
D38*
X126705Y747004D02*
D03*
Y777004D02*
D03*
Y807004D02*
D03*
X96705D02*
D03*
Y747004D02*
D03*
Y777004D02*
D03*
X93755Y353413D02*
D03*
Y383413D02*
D03*
Y413413D02*
D03*
Y443413D02*
D03*
X123755Y353413D02*
D03*
Y383413D02*
D03*
Y413413D02*
D03*
Y443413D02*
D03*
X126705Y912104D02*
D03*
Y942104D02*
D03*
Y972104D02*
D03*
X96705D02*
D03*
Y912104D02*
D03*
Y942104D02*
D03*
X93755Y549763D02*
D03*
Y579763D02*
D03*
Y609763D02*
D03*
Y639763D02*
D03*
X123755Y549763D02*
D03*
Y579763D02*
D03*
Y609763D02*
D03*
Y639763D02*
D03*
X93755Y160023D02*
D03*
Y190023D02*
D03*
Y220023D02*
D03*
Y250023D02*
D03*
X123755Y160023D02*
D03*
Y190023D02*
D03*
Y220023D02*
D03*
Y250023D02*
D03*
D39*
X53505Y777004D02*
D03*
X50555Y421813D02*
D03*
Y375013D02*
D03*
X53505Y942104D02*
D03*
X50555Y618163D02*
D03*
Y571363D02*
D03*
Y228423D02*
D03*
Y181623D02*
D03*
D40*
X541139Y955764D02*
D03*
X515740D02*
D03*
Y930364D02*
D03*
X541139D02*
D03*
Y879564D02*
D03*
X515740D02*
D03*
Y904964D02*
D03*
X541139D02*
D03*
Y803364D02*
D03*
X515740D02*
D03*
Y777964D02*
D03*
X541139D02*
D03*
Y828764D02*
D03*
X515740D02*
D03*
Y854164D02*
D03*
X541139D02*
D03*
Y727164D02*
D03*
X515740D02*
D03*
Y752564D02*
D03*
X541139D02*
D03*
D41*
X185494Y1136000D02*
D03*
X446184Y533084D02*
D03*
X351487Y590671D02*
D03*
X335523D02*
D03*
X538210Y290329D02*
D03*
Y304366D02*
D03*
Y318404D02*
D03*
X495886Y300540D02*
D03*
Y314578D02*
D03*
Y328616D02*
D03*
X545574Y562556D02*
D03*
X534686Y552318D02*
D03*
X523798Y542081D02*
D03*
X406614Y941383D02*
D03*
X368876Y1034241D02*
D03*
X384755Y1034506D02*
D03*
X110498Y565079D02*
D03*
X343032Y374278D02*
D03*
X322753Y529142D02*
D03*
X498755Y611117D02*
D03*
X445415Y916152D02*
D03*
X492862Y516675D02*
D03*
X488792Y525528D02*
D03*
X235707Y466599D02*
D03*
X326389Y483731D02*
D03*
X337892Y477840D02*
D03*
X337679Y491206D02*
D03*
X451655Y524783D02*
D03*
X436360Y932095D02*
D03*
X273598Y580505D02*
D03*
X254707Y640217D02*
D03*
X425065Y939749D02*
D03*
X373487Y918112D02*
D03*
X463384Y790017D02*
D03*
X454664Y818837D02*
D03*
X532077Y568731D02*
D03*
X395897Y336363D02*
D03*
X427446Y439416D02*
D03*
X259238Y374717D02*
D03*
X339281Y890931D02*
D03*
X389513Y878476D02*
D03*
X363772Y442771D02*
D03*
Y424197D02*
D03*
Y405085D02*
D03*
X381000D02*
D03*
Y424197D02*
D03*
Y442771D02*
D03*
X486201Y466473D02*
D03*
X491566Y458597D02*
D03*
X497992Y450101D02*
D03*
X504896Y439486D02*
D03*
D42*
X300325Y577706D02*
D03*
X277687Y291630D02*
D03*
D76*
X450513Y255175D02*
D03*
X404913D02*
D03*
X236164Y343510D02*
D03*
X190564D02*
D03*
D77*
X427714Y191175D02*
D03*
X213364Y279510D02*
D03*
D78*
X352730Y95893D02*
D03*
Y141493D02*
D03*
Y216264D02*
D03*
Y261864D02*
D03*
D79*
X288730Y118693D02*
D03*
Y239064D02*
D03*
M02*
