G04*
G04 #@! TF.GenerationSoftware,Altium Limited,Altium Designer,18.1.6 (161)*
G04*
G04 Layer_Color=32896*
%FSLAX44Y44*%
%MOMM*%
G71*
G01*
G75*
%ADD11C,0.2540*%
%ADD13C,0.2000*%
%ADD15C,0.1270*%
%ADD17R,3.6830X0.5080*%
D11*
X434563Y260805D02*
X437104Y258265D01*
X432024D02*
X434563Y260805D01*
X432024Y258265D02*
X437104D01*
X434063Y264835D02*
X440414D01*
X434063Y252135D02*
Y264835D01*
X421363Y252135D02*
X434063D01*
X421363D02*
Y264835D01*
X415014D02*
X421363D01*
Y245785D02*
X434063D01*
X421363D02*
X427714D01*
Y239435D02*
Y245785D01*
X220214Y349140D02*
X222754Y346600D01*
X217674D02*
X220214Y349140D01*
X217674Y346600D02*
X222754D01*
X219714Y353170D02*
X226064D01*
X219714Y340470D02*
Y353170D01*
X207014Y340470D02*
X219714D01*
X207014D02*
Y353170D01*
X200664D02*
X207014D01*
Y334120D02*
X219714D01*
X207014D02*
X213364D01*
Y327770D02*
Y334120D01*
X355820Y109303D02*
X358360Y111843D01*
X355820Y114383D02*
X358360Y111843D01*
X355820Y109303D02*
Y114383D01*
X362390Y105993D02*
Y112343D01*
X349690D02*
X362390D01*
X349690D02*
Y125043D01*
X362390D01*
Y131393D01*
X343340Y112343D02*
Y125043D01*
Y118693D02*
Y125043D01*
X336990Y118693D02*
X343340D01*
X355820Y229674D02*
X358360Y232214D01*
X355820Y234754D02*
X358360Y232214D01*
X355820Y229674D02*
Y234754D01*
X362390Y226364D02*
Y232714D01*
X349690D02*
X362390D01*
X349690D02*
Y245414D01*
X362390D01*
Y251764D01*
X343340Y232714D02*
Y245414D01*
Y239064D02*
Y245414D01*
X336990Y239064D02*
X343340D01*
X295310Y541251D02*
X307810D01*
Y516751D02*
Y541251D01*
X295310Y516751D02*
X307810D01*
X295310D02*
Y541251D01*
X392227Y433068D02*
Y445568D01*
X416727D01*
Y433068D02*
Y445568D01*
X392227Y433068D02*
X416727D01*
X336902Y408745D02*
X349402D01*
Y384245D02*
Y408745D01*
X336902Y384245D02*
X349402D01*
X336902D02*
Y408745D01*
X204674Y1048212D02*
Y1105362D01*
X166574D02*
X204674D01*
X166574Y1048212D02*
Y1105362D01*
Y1048212D02*
X204674D01*
X447724Y797179D02*
Y854329D01*
X409624D02*
X447724D01*
X409624Y797179D02*
Y854329D01*
Y797179D02*
X447724D01*
X423213Y295469D02*
X435713D01*
X423213D02*
Y319969D01*
X435713D01*
Y295469D02*
Y319969D01*
X327443Y295670D02*
X339943D01*
X327443D02*
Y320170D01*
X339943D01*
Y295670D02*
Y320170D01*
X199408Y633916D02*
X223908D01*
Y646416D01*
X199408D02*
X223908D01*
X199408Y633916D02*
Y646416D01*
X306575Y281294D02*
Y305794D01*
X294075D02*
X306575D01*
X294075Y281294D02*
Y305794D01*
Y281294D02*
X306575D01*
X471390Y251799D02*
Y276299D01*
Y251799D02*
X483890D01*
Y276299D01*
X471390D02*
X483890D01*
X379824Y121763D02*
Y146263D01*
Y121763D02*
X392324D01*
Y146263D01*
X379824D02*
X392324D01*
X171943Y915675D02*
Y940175D01*
Y915675D02*
X184443D01*
Y940175D01*
X171943D02*
X184443D01*
X171943Y749408D02*
Y773908D01*
Y749408D02*
X184443D01*
Y773908D01*
X171943D02*
X184443D01*
X376429Y244317D02*
Y268817D01*
Y244317D02*
X388929D01*
Y268817D01*
X376429D02*
X388929D01*
X248683Y620502D02*
Y645002D01*
X236183D02*
X248683D01*
X236183Y620502D02*
Y645002D01*
Y620502D02*
X248683D01*
X185172Y596357D02*
Y620857D01*
X172672D02*
X185172D01*
X172672Y596357D02*
Y620857D01*
Y596357D02*
X185172D01*
X204881Y531029D02*
Y555529D01*
X192381D02*
X204881D01*
X192381Y531029D02*
Y555529D01*
Y531029D02*
X204881D01*
X268271Y560755D02*
Y585255D01*
X255771D02*
X268271D01*
X255771Y560755D02*
Y585255D01*
Y560755D02*
X268271D01*
X219056Y574202D02*
X243556D01*
Y586702D01*
X219056D02*
X243556D01*
X219056Y574202D02*
Y586702D01*
X406710Y281835D02*
Y291992D01*
X409249Y294531D01*
X414328D01*
X416867Y291992D01*
Y281835D01*
X414328Y279296D01*
X409249D01*
X411788Y284374D02*
X406710Y279296D01*
X409249D02*
X406710Y281835D01*
X391475Y279296D02*
X401632D01*
X391475Y289453D01*
Y291992D01*
X394014Y294531D01*
X399092D01*
X401632Y291992D01*
X234635Y372924D02*
Y383080D01*
X237174Y385620D01*
X242253D01*
X244792Y383080D01*
Y372924D01*
X242253Y370384D01*
X237174D01*
X239713Y375463D02*
X234635Y370384D01*
X237174D02*
X234635Y372924D01*
X229557Y370384D02*
X224478D01*
X227018D01*
Y385620D01*
X229557Y383080D01*
X359318Y162807D02*
Y172963D01*
X361857Y175502D01*
X366936D01*
X369475Y172963D01*
Y162807D01*
X366936Y160267D01*
X361857D01*
X364397Y165346D02*
X359318Y160267D01*
X361857D02*
X359318Y162807D01*
X346622Y160267D02*
Y175502D01*
X354240Y167885D01*
X344083D01*
X359318Y283151D02*
Y293308D01*
X361857Y295847D01*
X366936D01*
X369475Y293308D01*
Y283151D01*
X366936Y280612D01*
X361857D01*
X364397Y285691D02*
X359318Y280612D01*
X361857D02*
X359318Y283151D01*
X354240Y293308D02*
X351701Y295847D01*
X346622D01*
X344083Y293308D01*
Y290769D01*
X346622Y288230D01*
X349161D01*
X346622D01*
X344083Y285691D01*
Y283151D01*
X346622Y280612D01*
X351701D01*
X354240Y283151D01*
X446392Y878451D02*
Y863216D01*
X438774D01*
X436235Y865755D01*
Y875912D01*
X438774Y878451D01*
X446392D01*
X431157Y875912D02*
X428617Y878451D01*
X423539D01*
X421000Y875912D01*
Y873372D01*
X423539Y870833D01*
X426078D01*
X423539D01*
X421000Y868294D01*
Y865755D01*
X423539Y863216D01*
X428617D01*
X431157Y865755D01*
X203282Y1129521D02*
Y1114286D01*
X195665D01*
X193125Y1116825D01*
Y1126982D01*
X195665Y1129521D01*
X203282D01*
X177890Y1114286D02*
X188047D01*
X177890Y1124443D01*
Y1126982D01*
X180429Y1129521D01*
X185508D01*
X188047Y1126982D01*
X405344Y467046D02*
X407884Y469585D01*
X412962D01*
X415501Y467046D01*
Y456890D01*
X412962Y454351D01*
X407884D01*
X405344Y456890D01*
X400266Y467046D02*
X397727Y469585D01*
X392649D01*
X390109Y467046D01*
Y464507D01*
X392649Y461968D01*
X395188D01*
X392649D01*
X390109Y459429D01*
Y456890D01*
X392649Y454351D01*
X397727D01*
X400266Y456890D01*
X303797Y566610D02*
X306336Y569150D01*
X311414D01*
X313954Y566610D01*
Y556454D01*
X311414Y553914D01*
X306336D01*
X303797Y556454D01*
X288562Y553914D02*
X298718D01*
X288562Y564071D01*
Y566610D01*
X291101Y569150D01*
X296179D01*
X298718Y566610D01*
X337959Y430423D02*
X340498Y432962D01*
X345577D01*
X348116Y430423D01*
Y420266D01*
X345577Y417727D01*
X340498D01*
X337959Y420266D01*
X332881Y417727D02*
X327803D01*
X330342D01*
Y432962D01*
X332881Y430423D01*
X456029Y323858D02*
X458568Y321319D01*
Y316241D01*
X456029Y313702D01*
X445872D01*
X443333Y316241D01*
Y321319D01*
X445872Y323858D01*
X458568Y328937D02*
Y339094D01*
X456029D01*
X445872Y328937D01*
X443333D01*
X337813Y336209D02*
X340353Y333670D01*
Y328592D01*
X337813Y326053D01*
X327657D01*
X325118Y328592D01*
Y333670D01*
X327657Y336209D01*
X340353Y351445D02*
X337813Y346366D01*
X332735Y341288D01*
X327657D01*
X325118Y343827D01*
Y348905D01*
X327657Y351445D01*
X330196D01*
X332735Y348905D01*
Y341288D01*
X186649Y950418D02*
Y965653D01*
X179032D01*
X176493Y963113D01*
Y958035D01*
X179032Y955496D01*
X186649D01*
X181571D02*
X176493Y950418D01*
X171414Y963113D02*
X168875Y965653D01*
X163797D01*
X161257Y963113D01*
Y960574D01*
X163797Y958035D01*
X161257Y955496D01*
Y952957D01*
X163797Y950418D01*
X168875D01*
X171414Y952957D01*
Y955496D01*
X168875Y958035D01*
X171414Y960574D01*
Y963113D01*
X168875Y958035D02*
X163797D01*
X185737Y782862D02*
Y798097D01*
X178119D01*
X175580Y795558D01*
Y790480D01*
X178119Y787940D01*
X185737D01*
X180658D02*
X175580Y782862D01*
X170501Y785401D02*
X167962Y782862D01*
X162884D01*
X160345Y785401D01*
Y795558D01*
X162884Y798097D01*
X167962D01*
X170501Y795558D01*
Y793019D01*
X167962Y790480D01*
X160345D01*
X308268Y351440D02*
X293032D01*
Y343822D01*
X295572Y341283D01*
X300650D01*
X303189Y343822D01*
Y351440D01*
Y346361D02*
X308268Y341283D01*
Y336205D02*
Y331126D01*
Y333666D01*
X293032D01*
X295572Y336205D01*
Y323509D02*
X293032Y320970D01*
Y315891D01*
X295572Y313352D01*
X305728D01*
X308268Y315891D01*
Y320970D01*
X305728Y323509D01*
X295572D01*
X375126Y203750D02*
X390361D01*
Y211368D01*
X387822Y213907D01*
X382744D01*
X380205Y211368D01*
Y203750D01*
Y208829D02*
X375126Y213907D01*
Y218985D02*
Y224064D01*
Y221525D01*
X390361D01*
X387822Y218985D01*
X375126Y231681D02*
Y236760D01*
Y234220D01*
X390361D01*
X387822Y231681D01*
X471044Y206153D02*
X486279D01*
Y213771D01*
X483740Y216310D01*
X478662D01*
X476122Y213771D01*
Y206153D01*
Y211232D02*
X471044Y216310D01*
Y221388D02*
Y226467D01*
Y223927D01*
X486279D01*
X483740Y221388D01*
X471044Y244241D02*
Y234084D01*
X481201Y244241D01*
X483740D01*
X486279Y241702D01*
Y236623D01*
X483740Y234084D01*
X400105Y90063D02*
X415340D01*
Y97681D01*
X412801Y100220D01*
X407723D01*
X405183Y97681D01*
Y90063D01*
Y95142D02*
X400105Y100220D01*
Y105298D02*
Y110377D01*
Y107838D01*
X415340D01*
X412801Y105298D01*
Y117994D02*
X415340Y120534D01*
Y125612D01*
X412801Y128151D01*
X410262D01*
X407723Y125612D01*
Y123073D01*
Y125612D01*
X405183Y128151D01*
X402644D01*
X400105Y125612D01*
Y120534D01*
X402644Y117994D01*
X281821Y631044D02*
X284361Y633583D01*
X289439D01*
X291978Y631044D01*
Y620887D01*
X289439Y618348D01*
X284361D01*
X281821Y620887D01*
X276743Y618348D02*
X271665D01*
X274204D01*
Y633583D01*
X276743Y631044D01*
X264047D02*
X261508Y633583D01*
X256430D01*
X253890Y631044D01*
Y620887D01*
X256430Y618348D01*
X261508D01*
X264047Y620887D01*
Y631044D01*
X278583Y546165D02*
X281122Y548704D01*
X286200D01*
X288740Y546165D01*
Y536008D01*
X286200Y533469D01*
X281122D01*
X278583Y536008D01*
X273505Y533469D02*
X268426D01*
X270965D01*
Y548704D01*
X273505Y546165D01*
X250652Y533469D02*
X260809D01*
X250652Y543626D01*
Y546165D01*
X253191Y548704D01*
X258270D01*
X260809Y546165D01*
X164265Y986099D02*
Y970864D01*
X156647D01*
X154108Y973403D01*
Y983560D01*
X156647Y986099D01*
X164265D01*
X149029Y983560D02*
X146490Y986099D01*
X141412D01*
X138873Y983560D01*
Y981020D01*
X141412Y978481D01*
X138873Y975942D01*
Y973403D01*
X141412Y970864D01*
X146490D01*
X149029Y973403D01*
Y975942D01*
X146490Y978481D01*
X149029Y981020D01*
Y983560D01*
X146490Y978481D02*
X141412D01*
X168824Y887922D02*
Y872687D01*
X161206D01*
X158667Y875226D01*
Y885383D01*
X161206Y887922D01*
X168824D01*
X153589Y875226D02*
X151050Y872687D01*
X145971D01*
X143432Y875226D01*
Y885383D01*
X145971Y887922D01*
X151050D01*
X153589Y885383D01*
Y882843D01*
X151050Y880304D01*
X143432D01*
X179801Y820807D02*
Y805572D01*
X172184D01*
X169645Y808111D01*
Y818267D01*
X172184Y820807D01*
X179801D01*
X164566Y805572D02*
X159488D01*
X162027D01*
Y820807D01*
X164566Y818267D01*
X151870D02*
X149331Y820807D01*
X144253D01*
X141713Y818267D01*
Y808111D01*
X144253Y805572D01*
X149331D01*
X151870Y808111D01*
Y818267D01*
X180059Y724033D02*
Y708798D01*
X172442D01*
X169902Y711337D01*
Y721494D01*
X172442Y724033D01*
X180059D01*
X164824Y708798D02*
X159746D01*
X162285D01*
Y724033D01*
X164824Y721494D01*
X152128Y708798D02*
X147050D01*
X149589D01*
Y724033D01*
X152128Y721494D01*
X186077Y688959D02*
Y673724D01*
X178459D01*
X175920Y676263D01*
Y686420D01*
X178459Y688959D01*
X186077D01*
X170841Y673724D02*
X165763D01*
X168302D01*
Y688959D01*
X170841Y686420D01*
X147989Y673724D02*
X158146D01*
X147989Y683880D01*
Y686420D01*
X150528Y688959D01*
X155606D01*
X158146Y686420D01*
X229124Y629541D02*
Y614306D01*
X221507D01*
X218967Y616845D01*
Y627002D01*
X221507Y629541D01*
X229124D01*
X213889Y614306D02*
X208811D01*
X211350D01*
Y629541D01*
X213889Y627002D01*
X193576Y614306D02*
Y629541D01*
X201193Y621923D01*
X191037D01*
X184106Y573079D02*
Y588314D01*
X176488D01*
X173949Y585775D01*
Y580697D01*
X176488Y578158D01*
X184106D01*
X179027D02*
X173949Y573079D01*
X168871D02*
X163792D01*
X166331D01*
Y588314D01*
X168871Y585775D01*
X148557Y573079D02*
Y588314D01*
X156175Y580697D01*
X146018D01*
X229885Y657580D02*
Y672816D01*
X222267D01*
X219728Y670276D01*
Y665198D01*
X222267Y662659D01*
X229885D01*
X224806D02*
X219728Y657580D01*
X214650D02*
X209571D01*
X212111D01*
Y672816D01*
X214650Y670276D01*
X191797Y672816D02*
X201954D01*
Y665198D01*
X196876Y667737D01*
X194336D01*
X191797Y665198D01*
Y660120D01*
X194336Y657580D01*
X199415D01*
X201954Y660120D01*
X231733Y505155D02*
Y520390D01*
X224116D01*
X221576Y517851D01*
Y512772D01*
X224116Y510233D01*
X231733D01*
X226655D02*
X221576Y505155D01*
X216498D02*
X211420D01*
X213959D01*
Y520390D01*
X216498Y517851D01*
X203802D02*
X201263Y520390D01*
X196185D01*
X193646Y517851D01*
Y515311D01*
X196185Y512772D01*
X193646Y510233D01*
Y507694D01*
X196185Y505155D01*
X201263D01*
X203802Y507694D01*
Y510233D01*
X201263Y512772D01*
X203802Y515311D01*
Y517851D01*
X201263Y512772D02*
X196185D01*
X247398Y552084D02*
Y567319D01*
X239780D01*
X237241Y564780D01*
Y559702D01*
X239780Y557163D01*
X247398D01*
X242320D02*
X237241Y552084D01*
X232163D02*
X227084D01*
X229624D01*
Y567319D01*
X232163Y564780D01*
X219467Y554624D02*
X216928Y552084D01*
X211849D01*
X209310Y554624D01*
Y564780D01*
X211849Y567319D01*
X216928D01*
X219467Y564780D01*
Y562241D01*
X216928Y559702D01*
X209310D01*
D13*
X394714Y154675D02*
Y273425D01*
Y154675D02*
X460714D01*
Y273425D01*
X394714D02*
X460714D01*
X180364Y243010D02*
Y361760D01*
Y243010D02*
X246364D01*
Y361760D01*
X180364D02*
X246364D01*
X252230Y151693D02*
X370980D01*
X252230Y85693D02*
Y151693D01*
Y85693D02*
X370980D01*
Y151693D01*
X252230Y272064D02*
X370980D01*
X252230Y206064D02*
Y272064D01*
Y206064D02*
X370980D01*
Y272064D01*
D15*
X142238Y896178D02*
X143508D01*
X155192Y921832D02*
X156462D01*
X155192Y896432D02*
X156462D01*
X142238Y921578D02*
X143508D01*
X156462Y896432D02*
Y921832D01*
X142238Y896178D02*
Y921578D01*
X155192Y959131D02*
X156462D01*
X142238Y933477D02*
X143508D01*
X142238Y958877D02*
X143508D01*
X155192Y933731D02*
X156462D01*
X142238Y933477D02*
Y958877D01*
X156462Y933731D02*
Y959131D01*
X155192Y792981D02*
X156462D01*
X142238Y767327D02*
X143508D01*
X142238Y792727D02*
X143508D01*
X155192Y767581D02*
X156462D01*
X142238Y767327D02*
Y792727D01*
X156462Y767581D02*
Y792981D01*
X142238Y730162D02*
X143508D01*
X155192Y755816D02*
X156462D01*
X155192Y730416D02*
X156462D01*
X142238Y755562D02*
X143508D01*
X156462Y730416D02*
Y755816D01*
X142238Y730162D02*
Y755562D01*
X184870Y663853D02*
X186140D01*
X171916Y638199D02*
X173186D01*
X171916Y663599D02*
X173186D01*
X184870Y638453D02*
X186140D01*
X171916Y638199D02*
Y663599D01*
X186140Y638453D02*
Y663853D01*
X204415Y604144D02*
X205685D01*
X191460Y578490D02*
X192731D01*
X191460Y603890D02*
X192731D01*
X204415Y578744D02*
X205685D01*
X191460Y578490D02*
Y603890D01*
X205685Y578744D02*
Y604144D01*
D17*
X184989Y1052023D02*
D03*
X428039Y800989D02*
D03*
M02*
